<svg xmlns="http://www.w3.org/2000/svg" width="480" height="252" viewBox="0 0 480 252" role="img" aria-label="Agentic Orchestration">
  <style>
    .title{fill:#58A6FF;font:600 19px -apple-system,BlinkMacSystemFont,"Segoe UI",sans-serif}
    .subtitle{fill:#8B949E;font:600 11.7px -apple-system,BlinkMacSystemFont,"Segoe UI",sans-serif}
    .label{fill:#8B949E;font:600 12.7px -apple-system,BlinkMacSystemFont,"Segoe UI",sans-serif}
    .value{fill:#F0F6FC;font:600 19px -apple-system,BlinkMacSystemFont,"Segoe UI",sans-serif}
    .small{fill:#F0F6FC;font:600 12.6px -apple-system,BlinkMacSystemFont,"Segoe UI",sans-serif}
    .tiny{fill:#8B949E;font:600 10.6px -apple-system,BlinkMacSystemFont,"Segoe UI",sans-serif}
    .compactLabel{fill:#F0F6FC;font:600 11.2px -apple-system,BlinkMacSystemFont,"Segoe UI",sans-serif}
    .empty{fill:#8B949E;font:600 13.7px -apple-system,BlinkMacSystemFont,"Segoe UI",sans-serif}
  </style>
  <rect x=".5" y=".5" width="479" height="251" rx="12" fill="#0D1117" stroke="#30363D"/>
  <g transform="translate(20 17) scale(1.125)" fill="none" stroke="#A371F7" stroke-width="1.5" stroke-linecap="round" stroke-linejoin="round"><circle cx="3" cy="3" r="2"/><circle cx="13" cy="13" r="2"/><path d="M5 3h3a3 3 0 0 1 3 3v2a3 3 0 0 0 2 3"/></g>
  <text x="48" y="31" class="title">Agentic Orchestration</text>
  <text x="48" y="49" class="subtitle">Planning, delegation, handoffs and human control</text>
  <text x="22" y="88" class="value">0</text>
      <text x="22" y="106" class="label">repositories</text>
      <text x="164" y="88" class="value">0</text>
      <text x="164" y="106" class="label">evidence signals</text>
      <rect x="304" y="75" width="150" height="10" rx="5" fill="#21262D"/>
      <rect x="304" y="75" width="0.0" height="10" rx="5" fill="#8B949E"/>
      <text x="454" y="103" text-anchor="end" style="fill:#8B949E;font:600 11px -apple-system,BlinkMacSystemFont,'Segoe UI',sans-serif">Not detected depth</text>
      <rect x="20" y="132" width="212" height="46" rx="8" fill="#A371F7" fill-opacity=".075" stroke="#A371F7" stroke-opacity=".42"/>
      <g transform="translate(30 142) scale(0.875)" fill="none" stroke="#A371F7" stroke-width="1.5" stroke-linecap="round" stroke-linejoin="round"><rect x="2" y="4" width="12" height="9" rx="2"/><path d="M8 1v3M5 8h.01M11 8h.01M5 11h6M1 7h1M14 7h1"/></g>
      <text x="52" y="153" class="small">0</text>
      <text x="30" y="170" class="compactLabel">Agent definitions</text><rect x="244" y="132" width="212" height="46" rx="8" fill="#A371F7" fill-opacity=".075" stroke="#A371F7" stroke-opacity=".42"/>
      <g transform="translate(254 142) scale(0.875)" fill="none" stroke="#A371F7" stroke-width="1.5" stroke-linecap="round" stroke-linejoin="round"><circle cx="8" cy="3" r="2"/><circle cx="3" cy="12" r="2"/><circle cx="13" cy="12" r="2"/><path d="M7 5 4 10M9 5l3 5M5 12h6"/></g>
      <text x="276" y="153" class="small">0</text>
      <text x="254" y="170" class="compactLabel">Multi-agent &amp; routers</text><rect x="20" y="188" width="212" height="46" rx="8" fill="#A371F7" fill-opacity=".075" stroke="#A371F7" stroke-opacity=".42"/>
      <g transform="translate(30 198) scale(0.875)" fill="none" stroke="#A371F7" stroke-width="1.5" stroke-linecap="round" stroke-linejoin="round"><circle cx="3" cy="3" r="2"/><circle cx="13" cy="13" r="2"/><path d="M5 3h3a3 3 0 0 1 3 3v2a3 3 0 0 0 2 3"/></g>
      <text x="52" y="209" class="small">0</text>
      <text x="30" y="226" class="compactLabel">Planning &amp; handoffs</text><rect x="244" y="188" width="212" height="46" rx="8" fill="#A371F7" fill-opacity=".075" stroke="#A371F7" stroke-opacity=".42"/>
      <g transform="translate(254 198) scale(0.875)" fill="none" stroke="#A371F7" stroke-width="1.5" stroke-linecap="round" stroke-linejoin="round"><path d="M8 1.5 14 4v4c0 3.4-2.2 5.8-6 7-3.8-1.2-6-3.6-6-7V4l6-2.5zM5.5 8l1.6 1.6L11 5.7"/></g>
      <text x="276" y="209" class="small">0</text>
      <text x="254" y="226" class="compactLabel">Flow &amp; human control</text>
</svg>