<svg xmlns="http://www.w3.org/2000/svg" width="820" height="402" viewBox="0 0 820 402" role="img" aria-label="Context Engineering &amp; Governance">
  <style>
    .title{fill:#58A6FF;font:600 19px -apple-system,BlinkMacSystemFont,"Segoe UI",sans-serif}
    .subtitle{fill:#8B949E;font:600 11.7px -apple-system,BlinkMacSystemFont,"Segoe UI",sans-serif}
    .label{fill:#8B949E;font:600 12.7px -apple-system,BlinkMacSystemFont,"Segoe UI",sans-serif}
    .value{fill:#F0F6FC;font:600 19px -apple-system,BlinkMacSystemFont,"Segoe UI",sans-serif}
    .small{fill:#F0F6FC;font:600 12.6px -apple-system,BlinkMacSystemFont,"Segoe UI",sans-serif}
    .tiny{fill:#8B949E;font:600 10.6px -apple-system,BlinkMacSystemFont,"Segoe UI",sans-serif}
    .compactLabel{fill:#F0F6FC;font:600 11.2px -apple-system,BlinkMacSystemFont,"Segoe UI",sans-serif}
    .empty{fill:#8B949E;font:600 13.7px -apple-system,BlinkMacSystemFont,"Segoe UI",sans-serif}
  </style>
  <rect x=".5" y=".5" width="819" height="401" rx="12" fill="#0D1117" stroke="#30363D"/>
  <g transform="translate(20 17) scale(1.125)" fill="none" stroke="#F85149" stroke-width="1.5" stroke-linecap="round" stroke-linejoin="round"><path d="M8 1.5 14 4v4c0 3.4-2.2 5.8-6 7-3.8-1.2-6-3.6-6-7V4l6-2.5zM5.5 8l1.6 1.6L11 5.7"/></g>
  <text x="48" y="31" class="title">Context Engineering &amp; Governance</text>
  <text x="48" y="49" class="subtitle">Structured context, human control, secret safety and validation evidence</text>
  <g transform="translate(20 67) scale(1)" fill="none" stroke="#58A6FF" stroke-width="1.5" stroke-linecap="round" stroke-linejoin="round"><path d="M3 1h7l3 3v11H3zM10 1v4h3M5 8h6M5 11h6"/></g>
      <text x="46" y="80" class="value">2</text>
      <text x="46" y="98" class="label">Repository instruction files</text><g transform="translate(410 67) scale(1)" fill="none" stroke="#A371F7" stroke-width="1.5" stroke-linecap="round" stroke-linejoin="round"><path d="M8 1l7 4-7 4-7-4 7-4zM1 8l7 4 7-4M1 11l7 4 7-4"/></g>
      <text x="436" y="80" class="value">0</text>
      <text x="436" y="98" class="label">Module-level instruction files</text><g transform="translate(20 129) scale(1)" fill="none" stroke="#39C5CF" stroke-width="1.5" stroke-linecap="round" stroke-linejoin="round"><path d="M8 1l1.4 4.6L14 7l-4.6 1.4L8 13l-1.4-4.6L2 7l4.6-1.4L8 1z"/></g>
      <text x="46" y="142" class="value">0</text>
      <text x="46" y="160" class="label">Reusable prompt/command files</text><g transform="translate(410 129) scale(1)" fill="none" stroke="#F0883E" stroke-width="1.5" stroke-linecap="round" stroke-linejoin="round"><path d="M10.5 2.2a3.5 3.5 0 0 0-4.2 4.5L2 11l3 3 4.3-4.3a3.5 3.5 0 0 0 4.5-4.2l-2.2 2.2-2.3-.6-.6-2.3 1.8-2.6z"/></g>
      <text x="436" y="142" class="value">0</text>
      <text x="436" y="160" class="label">Reusable skill definitions</text><g transform="translate(20 191) scale(1)" fill="none" stroke="#D29922" stroke-width="1.5" stroke-linecap="round" stroke-linejoin="round"><path d="M1 8h3l2-5 4 10 2-5h3"/></g>
      <text x="46" y="204" class="value">0</text>
      <text x="46" y="222" class="label">Handover and journal signals</text><g transform="translate(410 191) scale(1)" fill="none" stroke="#F85149" stroke-width="1.5" stroke-linecap="round" stroke-linejoin="round"><rect x="3" y="7" width="10" height="8" rx="2"/><path d="M5 7V5a3 3 0 0 1 6 0v2"/></g>
      <text x="436" y="204" class="value">0</text>
      <text x="436" y="222" class="label">Repositories with secret protection</text><g transform="translate(20 253) scale(1)" fill="none" stroke="#3FB950" stroke-width="1.5" stroke-linecap="round" stroke-linejoin="round"><path d="M8 1.5 14 4v4c0 3.4-2.2 5.8-6 7-3.8-1.2-6-3.6-6-7V4l6-2.5zM5.5 8l1.6 1.6L11 5.7"/></g>
      <text x="46" y="266" class="value">0</text>
      <text x="46" y="284" class="label">Repositories with output validation</text><g transform="translate(410 253) scale(1)" fill="none" stroke="#F0883E" stroke-width="1.5" stroke-linecap="round" stroke-linejoin="round"><path d="M8 1.5 14 4v4c0 3.4-2.2 5.8-6 7-3.8-1.2-6-3.6-6-7V4l6-2.5zM5.5 8l1.6 1.6L11 5.7"/></g>
      <text x="436" y="266" class="value">0</text>
      <text x="436" y="284" class="label">Repositories with production safeguards</text><g transform="translate(20 315) scale(1)" fill="none" stroke="#DB61A2" stroke-width="1.5" stroke-linecap="round" stroke-linejoin="round"><path d="M8 1.5 14 4v4c0 3.4-2.2 5.8-6 7-3.8-1.2-6-3.6-6-7V4l6-2.5zM5.5 8l1.6 1.6L11 5.7"/></g>
      <text x="46" y="328" class="value">0</text>
      <text x="46" y="346" class="label">Human-approval checkpoints</text><g transform="translate(410 315) scale(1)" fill="none" stroke="#39C5CF" stroke-width="1.5" stroke-linecap="round" stroke-linejoin="round"><rect x="3" y="7" width="10" height="8" rx="2"/><path d="M5 7V5a3 3 0 0 1 6 0v2"/></g>
      <text x="436" y="328" class="value">0</text>
      <text x="436" y="346" class="label">Restricted-command policies</text>
</svg>