<svg xmlns="http://www.w3.org/2000/svg" width="920" height="241" viewBox="0 0 920 241" role="img" aria-label="AI Engineering Capabilities">
  <style>
    .title{fill:#58A6FF;font:600 19px -apple-system,BlinkMacSystemFont,"Segoe UI",sans-serif}
    .subtitle{fill:#8B949E;font:600 11.7px -apple-system,BlinkMacSystemFont,"Segoe UI",sans-serif}
    .label{fill:#8B949E;font:600 12.7px -apple-system,BlinkMacSystemFont,"Segoe UI",sans-serif}
    .value{fill:#F0F6FC;font:600 19px -apple-system,BlinkMacSystemFont,"Segoe UI",sans-serif}
    .small{fill:#F0F6FC;font:600 12.6px -apple-system,BlinkMacSystemFont,"Segoe UI",sans-serif}
    .tiny{fill:#8B949E;font:600 10.6px -apple-system,BlinkMacSystemFont,"Segoe UI",sans-serif}
    .compactLabel{fill:#F0F6FC;font:600 11.2px -apple-system,BlinkMacSystemFont,"Segoe UI",sans-serif}
    .empty{fill:#8B949E;font:600 13.7px -apple-system,BlinkMacSystemFont,"Segoe UI",sans-serif}
  </style>
  <rect x=".5" y=".5" width="919" height="240" rx="12" fill="#0D1117" stroke="#30363D"/>
  <g transform="translate(20 17) scale(1.125)" fill="none" stroke="#39C5CF" stroke-width="1.5" stroke-linecap="round" stroke-linejoin="round"><path d="M8 1l1.4 4.6L14 7l-4.6 1.4L8 13l-1.4-4.6L2 7l4.6-1.4L8 1z"/></g>
  <text x="48" y="31" class="title">AI Engineering Capabilities</text>
  <text x="48" y="49" class="subtitle">Repository coverage plus evidence signals · weak keyword mentions cannot independently award capabilities</text>
  <circle cx="29" cy="77" r="5" fill="#39C5CF"/>
      <text x="42" y="82" class="small">Tool Calling</text>
      <rect x="259" y="70" width="140" height="8" rx="4" fill="#21262D"/>
      <rect x="259" y="70" width="140.0" height="8" rx="4" fill="#39C5CF"/>
      <text x="454" y="82" text-anchor="end" class="tiny">9 repos · 29 signals</text><circle cx="479" cy="77" r="5" fill="#3FB950"/>
      <text x="492" y="82" class="small">Evaluation</text>
      <rect x="709" y="70" width="140" height="8" rx="4" fill="#21262D"/>
      <rect x="709" y="70" width="31.1" height="8" rx="4" fill="#3FB950"/>
      <text x="904" y="82" text-anchor="end" class="tiny">2 repos · 89 signals</text><circle cx="29" cy="124" r="5" fill="#A371F7"/>
      <text x="42" y="129" class="small">Agentic Development</text>
      <rect x="259" y="117" width="140" height="8" rx="4" fill="#21262D"/>
      <rect x="259" y="117" width="31.1" height="8" rx="4" fill="#A371F7"/>
      <text x="454" y="129" text-anchor="end" class="tiny">2 repos · 16 signals</text><circle cx="479" cy="124" r="5" fill="#F0883E"/>
      <text x="492" y="129" class="small">AI Automation</text>
      <rect x="709" y="117" width="140" height="8" rx="4" fill="#21262D"/>
      <rect x="709" y="117" width="31.1" height="8" rx="4" fill="#F0883E"/>
      <text x="904" y="129" text-anchor="end" class="tiny">2 repos · 16 signals</text><circle cx="29" cy="171" r="5" fill="#39C5CF"/>
      <text x="42" y="176" class="small">Context Engineering</text>
      <rect x="259" y="164" width="140" height="8" rx="4" fill="#21262D"/>
      <rect x="259" y="164" width="15.6" height="8" rx="4" fill="#39C5CF"/>
      <text x="454" y="176" text-anchor="end" class="tiny">1 repos · 2 signals</text><circle cx="479" cy="171" r="5" fill="#3FB950"/>
      <text x="492" y="176" class="small">LLM API Integration</text>
      <rect x="709" y="164" width="140" height="8" rx="4" fill="#21262D"/>
      <rect x="709" y="164" width="15.6" height="8" rx="4" fill="#3FB950"/>
      <text x="904" y="176" text-anchor="end" class="tiny">1 repos · 1 signals</text>
</svg>