<svg xmlns="http://www.w3.org/2000/svg" width="900" height="446" viewBox="0 0 900 446" role="img" aria-label="Agentic Orchestration">
  <style>
    .title{fill:#58A6FF;font:600 18px -apple-system,BlinkMacSystemFont,"Segoe UI",sans-serif}
    .subtitle{fill:#8B949E;font:400 11px -apple-system,BlinkMacSystemFont,"Segoe UI",sans-serif}
    .label{fill:#8B949E;font:500 11px -apple-system,BlinkMacSystemFont,"Segoe UI",sans-serif}
    .value{fill:#F0F6FC;font:700 20px -apple-system,BlinkMacSystemFont,"Segoe UI",sans-serif}
    .small{fill:#F0F6FC;font:600 12px -apple-system,BlinkMacSystemFont,"Segoe UI",sans-serif}
    .tiny{fill:#8B949E;font:400 10px -apple-system,BlinkMacSystemFont,"Segoe UI",sans-serif}
    .empty{fill:#8B949E;font:400 13px -apple-system,BlinkMacSystemFont,"Segoe UI",sans-serif}
  </style>
  <rect x=".5" y=".5" width="899" height="445" rx="12" fill="#0D1117" stroke="#30363D"/>
  <g transform="translate(20 17) scale(1.125)" fill="none" stroke="#A371F7" stroke-width="1.5" stroke-linecap="round" stroke-linejoin="round"><circle cx="3" cy="3" r="2"/><circle cx="13" cy="13" r="2"/><path d="M5 3h3a3 3 0 0 1 3 3v2a3 3 0 0 0 2 3"/></g>
  <text x="48" y="31" class="title">Agentic Orchestration</text>
  <text x="48" y="49" class="subtitle">Specialist agents, routers, planning, delegation, handoffs, parallel workflows and human checkpoints</text>
  <rect x="20" y="72" width="424" height="82" rx="10" fill="#A371F7" fill-opacity=".09" stroke="#A371F7" stroke-opacity=".55"/>
      <g transform="translate(33 85) scale(1.0625)" fill="none" stroke="#A371F7" stroke-width="1.5" stroke-linecap="round" stroke-linejoin="round"><circle cx="3" cy="3" r="2"/><circle cx="13" cy="13" r="2"/><path d="M5 3h3a3 3 0 0 1 3 3v2a3 3 0 0 0 2 3"/></g>
      <text x="62" y="103" class="value">4</text>
      <text x="33" y="128" text-anchor="start" class="label"><tspan x="33" dy="0">Repositories with agentic orchestration</tspan></text>
      <rect x="456" y="72" width="424" height="82" rx="10" fill="#A371F7" fill-opacity=".09" stroke="#A371F7" stroke-opacity=".55"/>
      <g transform="translate(469 85) scale(1.0625)" fill="none" stroke="#A371F7" stroke-width="1.5" stroke-linecap="round" stroke-linejoin="round"><rect x="2" y="4" width="12" height="9" rx="2"/><path d="M8 1v3M5 8h.01M11 8h.01M5 11h6M1 7h1M14 7h1"/></g>
      <text x="498" y="103" class="value">125</text>
      <text x="469" y="128" text-anchor="start" class="label"><tspan x="469" dy="0">Agent and sub-agent definition signals</tspan></text>
      <rect x="20" y="166" width="424" height="82" rx="10" fill="#A371F7" fill-opacity=".09" stroke="#A371F7" stroke-opacity=".55"/>
      <g transform="translate(33 179) scale(1.0625)" fill="none" stroke="#A371F7" stroke-width="1.5" stroke-linecap="round" stroke-linejoin="round"><circle cx="8" cy="3" r="2"/><circle cx="3" cy="12" r="2"/><circle cx="13" cy="12" r="2"/><path d="M7 5 4 10M9 5l3 5M5 12h6"/></g>
      <text x="62" y="197" class="value">4</text>
      <text x="33" y="222" text-anchor="start" class="label"><tspan x="33" dy="0">Multi-agent architecture signals</tspan></text>
      <rect x="456" y="166" width="424" height="82" rx="10" fill="#A371F7" fill-opacity=".09" stroke="#A371F7" stroke-opacity=".55"/>
      <g transform="translate(469 179) scale(1.0625)" fill="none" stroke="#A371F7" stroke-width="1.5" stroke-linecap="round" stroke-linejoin="round"><circle cx="3" cy="3" r="2"/><circle cx="13" cy="13" r="2"/><path d="M5 3h3a3 3 0 0 1 3 3v2a3 3 0 0 0 2 3"/></g>
      <text x="498" y="197" class="value">4</text>
      <text x="469" y="222" text-anchor="start" class="label"><tspan x="469" dy="0">Router, director and supervisor agents</tspan></text>
      <rect x="20" y="260" width="424" height="82" rx="10" fill="#A371F7" fill-opacity=".09" stroke="#A371F7" stroke-opacity=".55"/>
      <g transform="translate(33 273) scale(1.0625)" fill="none" stroke="#A371F7" stroke-width="1.5" stroke-linecap="round" stroke-linejoin="round"><path d="M6 2.2A2.8 2.8 0 0 0 3.4 5a2.8 2.8 0 0 0 .7 5.4A2.7 2.7 0 0 0 8 13V3.5A2 2 0 0 0 6 1.5M10 2.2A2.8 2.8 0 0 1 12.6 5a2.8 2.8 0 0 1-.7 5.4A2.7 2.7 0 0 1 8 13V3.5a2 2 0 0 1 2-2M4.2 6.2h2M9.8 6.2h2M5 9h1.5M9.5 9H11"/></g>
      <text x="62" y="291" class="value">3</text>
      <text x="33" y="316" text-anchor="start" class="label"><tspan x="33" dy="0">Planning and delegation signals</tspan></text>
      <rect x="456" y="260" width="424" height="82" rx="10" fill="#A371F7" fill-opacity=".09" stroke="#A371F7" stroke-opacity=".55"/>
      <g transform="translate(469 273) scale(1.0625)" fill="none" stroke="#A371F7" stroke-width="1.5" stroke-linecap="round" stroke-linejoin="round"><path d="M8 1l7 4-7 4-7-4 7-4zM1 8l7 4 7-4M1 11l7 4 7-4"/></g>
      <text x="498" y="291" class="value">1</text>
      <text x="469" y="316" text-anchor="start" class="label"><tspan x="469" dy="0">Agent handoff and transfer signals</tspan></text>
      <rect x="20" y="354" width="424" height="82" rx="10" fill="#A371F7" fill-opacity=".09" stroke="#A371F7" stroke-opacity=".55"/>
      <g transform="translate(33 367) scale(1.0625)" fill="none" stroke="#A371F7" stroke-width="1.5" stroke-linecap="round" stroke-linejoin="round"><path d="M1 8h3l2-5 4 10 2-5h3"/></g>
      <text x="62" y="385" class="value">0</text>
      <text x="33" y="410" text-anchor="start" class="label"><tspan x="33" dy="0">Parallel and sequential workflows</tspan></text>
      <rect x="456" y="354" width="424" height="82" rx="10" fill="#A371F7" fill-opacity=".09" stroke="#A371F7" stroke-opacity=".55"/>
      <g transform="translate(469 367) scale(1.0625)" fill="none" stroke="#A371F7" stroke-width="1.5" stroke-linecap="round" stroke-linejoin="round"><path d="M8 1.5 14 4v4c0 3.4-2.2 5.8-6 7-3.8-1.2-6-3.6-6-7V4l6-2.5zM5.5 8l1.6 1.6L11 5.7"/></g>
      <text x="498" y="385" class="value">1</text>
      <text x="469" y="410" text-anchor="start" class="label"><tspan x="469" dy="0">Human-in-the-loop checkpoints</tspan></text>
      
</svg>