<svg xmlns="http://www.w3.org/2000/svg" width="680" height="326" viewBox="0 0 680 326" role="img" aria-label="Agentic Workflow Maturity">
  <style>
    .title{fill:#58A6FF;font:600 19px -apple-system,BlinkMacSystemFont,"Segoe UI",sans-serif}
    .subtitle{fill:#8B949E;font:600 11.7px -apple-system,BlinkMacSystemFont,"Segoe UI",sans-serif}
    .label{fill:#8B949E;font:600 12.7px -apple-system,BlinkMacSystemFont,"Segoe UI",sans-serif}
    .value{fill:#F0F6FC;font:600 19px -apple-system,BlinkMacSystemFont,"Segoe UI",sans-serif}
    .small{fill:#F0F6FC;font:600 12.6px -apple-system,BlinkMacSystemFont,"Segoe UI",sans-serif}
    .tiny{fill:#8B949E;font:600 10.6px -apple-system,BlinkMacSystemFont,"Segoe UI",sans-serif}
    .compactLabel{fill:#F0F6FC;font:600 11.2px -apple-system,BlinkMacSystemFont,"Segoe UI",sans-serif}
    .empty{fill:#8B949E;font:600 13.7px -apple-system,BlinkMacSystemFont,"Segoe UI",sans-serif}
  </style>
  <rect x=".5" y=".5" width="679" height="325" rx="12" fill="#0D1117" stroke="#30363D"/>
  <g transform="translate(20 17) scale(1.125)" fill="none" stroke="#F0883E" stroke-width="1.5" stroke-linecap="round" stroke-linejoin="round"><path d="M8 1l7 4-7 4-7-4 7-4zM1 8l7 4 7-4M1 11l7 4 7-4"/></g>
  <text x="48" y="31" class="title">Agentic Workflow Maturity</text>
  <text x="48" y="49" class="subtitle">Average 2.3/4 · highest detected level 4/4</text>
  <g transform="translate(24 66) scale(0.9375)" fill="none" stroke="#8B949E" stroke-width="1.5" stroke-linecap="round" stroke-linejoin="round"><path d="M8 1l7 4-7 4-7-4 7-4zM1 8l7 4 7-4M1 11l7 4 7-4"/></g>
      <text x="50" y="82" class="small">Level 0 · No AI evidence</text>
      <rect x="290" y="70" width="330" height="9" rx="4.5" fill="#21262D"/>
      <rect x="290" y="70" width="330.0" height="9" rx="4.5" fill="#8B949E"/>
      <text x="650" y="82" text-anchor="end" class="label">9 repos</text><g transform="translate(24 109) scale(0.9375)" fill="none" stroke="#58A6FF" stroke-width="1.5" stroke-linecap="round" stroke-linejoin="round"><path d="M8 1l7 4-7 4-7-4 7-4zM1 8l7 4 7-4M1 11l7 4 7-4"/></g>
      <text x="50" y="125" class="small">Level 1 · AI Assisted</text>
      <rect x="290" y="113" width="330" height="9" rx="4.5" fill="#21262D"/>
      <rect x="290" y="113" width="330.0" height="9" rx="4.5" fill="#58A6FF"/>
      <text x="650" y="125" text-anchor="end" class="label">9 repos</text><g transform="translate(24 152) scale(0.9375)" fill="none" stroke="#A371F7" stroke-width="1.5" stroke-linecap="round" stroke-linejoin="round"><path d="M8 1l7 4-7 4-7-4 7-4zM1 8l7 4 7-4M1 11l7 4 7-4"/></g>
      <text x="50" y="168" class="small">Level 2 · Structured Workflow</text>
      <rect x="290" y="156" width="330" height="9" rx="4.5" fill="#21262D"/>
      <rect x="290" y="156" width="0.0" height="9" rx="4.5" fill="#A371F7"/>
      <text x="650" y="168" text-anchor="end" class="label">0 repos</text><g transform="translate(24 195) scale(0.9375)" fill="none" stroke="#F0883E" stroke-width="1.5" stroke-linecap="round" stroke-linejoin="round"><rect x="2" y="4" width="12" height="9" rx="2"/><path d="M8 1v3M5 8h.01M11 8h.01M5 11h6M1 7h1M14 7h1"/></g>
      <text x="50" y="211" class="small">Level 3 · Agentic Automation</text>
      <rect x="290" y="199" width="330" height="9" rx="4.5" fill="#21262D"/>
      <rect x="290" y="199" width="183.3" height="9" rx="4.5" fill="#F0883E"/>
      <text x="650" y="211" text-anchor="end" class="label">5 repos</text><g transform="translate(24 238) scale(0.9375)" fill="none" stroke="#3FB950" stroke-width="1.5" stroke-linecap="round" stroke-linejoin="round"><path d="M8 1.5 14 4v4c0 3.4-2.2 5.8-6 7-3.8-1.2-6-3.6-6-7V4l6-2.5zM5.5 8l1.6 1.6L11 5.7"/></g>
      <text x="50" y="254" class="small">Level 4 · Governed AI Engineering</text>
      <rect x="290" y="242" width="330" height="9" rx="4.5" fill="#21262D"/>
      <rect x="290" y="242" width="183.3" height="9" rx="4.5" fill="#3FB950"/>
      <text x="650" y="254" text-anchor="end" class="label">5 repos</text>
</svg>