<svg xmlns="http://www.w3.org/2000/svg" width="960" height="446" viewBox="0 0 960 446" role="img" aria-label="AI Engineering Overview">
  <style>
    .title{fill:#58A6FF;font:600 18px -apple-system,BlinkMacSystemFont,"Segoe UI",sans-serif}
    .subtitle{fill:#8B949E;font:400 11px -apple-system,BlinkMacSystemFont,"Segoe UI",sans-serif}
    .label{fill:#8B949E;font:500 11px -apple-system,BlinkMacSystemFont,"Segoe UI",sans-serif}
    .value{fill:#F0F6FC;font:700 20px -apple-system,BlinkMacSystemFont,"Segoe UI",sans-serif}
    .small{fill:#F0F6FC;font:600 12px -apple-system,BlinkMacSystemFont,"Segoe UI",sans-serif}
    .tiny{fill:#8B949E;font:400 10px -apple-system,BlinkMacSystemFont,"Segoe UI",sans-serif}
    .empty{fill:#8B949E;font:400 13px -apple-system,BlinkMacSystemFont,"Segoe UI",sans-serif}
  </style>
  <rect x=".5" y=".5" width="959" height="445" rx="12" fill="#0D1117" stroke="#30363D"/>
  <g transform="translate(20 17) scale(1.125)" fill="none" stroke="#A371F7" stroke-width="1.5" stroke-linecap="round" stroke-linejoin="round"><path d="M6 2.2A2.8 2.8 0 0 0 3.4 5a2.8 2.8 0 0 0 .7 5.4A2.7 2.7 0 0 0 8 13V3.5A2 2 0 0 0 6 1.5M10 2.2A2.8 2.8 0 0 1 12.6 5a2.8 2.8 0 0 1-.7 5.4A2.7 2.7 0 0 1 8 13V3.5a2 2 0 0 1 2-2M4.2 6.2h2M9.8 6.2h2M5 9h1.5M9.5 9H11"/></g>
  <text x="48" y="31" class="title">AI Engineering Overview</text>
  <text x="48" y="49" class="subtitle">10 public + 8 private AI-enabled repositories · evidence-based disciplines, not AI-generated-code claims</text>
  <rect x="20" y="72" width="298.6666666666667" height="82" rx="10" fill="#A371F7" fill-opacity=".09" stroke="#A371F7" stroke-opacity=".55"/>
      <g transform="translate(33 85) scale(1.0625)" fill="none" stroke="#A371F7" stroke-width="1.5" stroke-linecap="round" stroke-linejoin="round"><path d="M6 2.2A2.8 2.8 0 0 0 3.4 5a2.8 2.8 0 0 0 .7 5.4A2.7 2.7 0 0 0 8 13V3.5A2 2 0 0 0 6 1.5M10 2.2A2.8 2.8 0 0 1 12.6 5a2.8 2.8 0 0 1-.7 5.4A2.7 2.7 0 0 1 8 13V3.5a2 2 0 0 1 2-2M4.2 6.2h2M9.8 6.2h2M5 9h1.5M9.5 9H11"/></g>
      <text x="62" y="103" class="value">18</text>
      <text x="33" y="128" text-anchor="start" class="label"><tspan x="33" dy="0">AI-enabled repositories</tspan></text>
      <rect x="330.6666666666667" y="72" width="298.6666666666667" height="82" rx="10" fill="#DB61A2" fill-opacity=".09" stroke="#DB61A2" stroke-opacity=".55"/>
      <g transform="translate(343.6666666666667 85) scale(1.0625)" fill="none" stroke="#DB61A2" stroke-width="1.5" stroke-linecap="round" stroke-linejoin="round"><path d="M2 2h12v9H7l-3 3v-3H2zM5 5h6M5 8h4"/></g>
      <text x="372.6666666666667" y="103" class="value">7</text>
      <text x="343.6666666666667" y="128" text-anchor="start" class="label"><tspan x="343.6666666666667" dy="0">Prompt engineering</tspan><tspan x="343.6666666666667" dy="14">repositories</tspan></text>
      <rect x="641.3333333333334" y="72" width="298.6666666666667" height="82" rx="10" fill="#39C5CF" fill-opacity=".09" stroke="#39C5CF" stroke-opacity=".55"/>
      <g transform="translate(654.3333333333334 85) scale(1.0625)" fill="none" stroke="#39C5CF" stroke-width="1.5" stroke-linecap="round" stroke-linejoin="round"><path d="M3 1h7l3 3v11H3zM10 1v4h3M5 8h6M5 11h6"/></g>
      <text x="683.3333333333334" y="103" class="value">7</text>
      <text x="654.3333333333334" y="128" text-anchor="start" class="label"><tspan x="654.3333333333334" dy="0">Context engineering</tspan><tspan x="654.3333333333334" dy="14">repositories</tspan></text>
      <rect x="20" y="166" width="298.6666666666667" height="82" rx="10" fill="#D29922" fill-opacity=".09" stroke="#D29922" stroke-opacity=".55"/>
      <g transform="translate(33 179) scale(1.0625)" fill="none" stroke="#D29922" stroke-width="1.5" stroke-linecap="round" stroke-linejoin="round"><path d="M4 3h8v10H4zM2 5h2M2 8h2M2 11h2M12 5h2M12 8h2M12 11h2M6 1v2M10 1v2M6 13v2M10 13v2"/></g>
      <text x="62" y="197" class="value">3</text>
      <text x="33" y="222" text-anchor="start" class="label"><tspan x="33" dy="0">Memory engineering</tspan><tspan x="33" dy="14">repositories</tspan></text>
      <rect x="330.6666666666667" y="166" width="298.6666666666667" height="82" rx="10" fill="#F0883E" fill-opacity=".09" stroke="#F0883E" stroke-opacity=".55"/>
      <g transform="translate(343.6666666666667 179) scale(1.0625)" fill="none" stroke="#F0883E" stroke-width="1.5" stroke-linecap="round" stroke-linejoin="round"><path d="M2 8h3l2-4 3 8 2-4h2M3 14h10M4 2h8"/></g>
      <text x="372.6666666666667" y="197" class="value">17</text>
      <text x="343.6666666666667" y="222" text-anchor="start" class="label"><tspan x="343.6666666666667" dy="0">AI harness engineering</tspan><tspan x="343.6666666666667" dy="14">repositories</tspan></text>
      <rect x="641.3333333333334" y="166" width="298.6666666666667" height="82" rx="10" fill="#A371F7" fill-opacity=".09" stroke="#A371F7" stroke-opacity=".55"/>
      <g transform="translate(654.3333333333334 179) scale(1.0625)" fill="none" stroke="#A371F7" stroke-width="1.5" stroke-linecap="round" stroke-linejoin="round"><circle cx="3" cy="3" r="2"/><circle cx="13" cy="13" r="2"/><path d="M5 3h3a3 3 0 0 1 3 3v2a3 3 0 0 0 2 3"/></g>
      <text x="683.3333333333334" y="197" class="value">4</text>
      <text x="654.3333333333334" y="222" text-anchor="start" class="label"><tspan x="654.3333333333334" dy="0">Agentic orchestration</tspan><tspan x="654.3333333333334" dy="14">repositories</tspan></text>
      <rect x="20" y="260" width="298.6666666666667" height="82" rx="10" fill="#3FB950" fill-opacity=".09" stroke="#3FB950" stroke-opacity=".55"/>
      <g transform="translate(33 273) scale(1.0625)" fill="none" stroke="#3FB950" stroke-width="1.5" stroke-linecap="round" stroke-linejoin="round"><circle cx="8" cy="3" r="2"/><circle cx="3" cy="12" r="2"/><circle cx="13" cy="12" r="2"/><path d="M7 5 4 10M9 5l3 5M5 12h6"/></g>
      <text x="62" y="291" class="value">8</text>
      <text x="33" y="316" text-anchor="start" class="label"><tspan x="33" dy="0">MCP and tool integration</tspan><tspan x="33" dy="14">repositories</tspan></text>
      <rect x="330.6666666666667" y="260" width="298.6666666666667" height="82" rx="10" fill="#58A6FF" fill-opacity=".09" stroke="#58A6FF" stroke-opacity=".55"/>
      <g transform="translate(343.6666666666667 273) scale(1.0625)" fill="none" stroke="#58A6FF" stroke-width="1.5" stroke-linecap="round" stroke-linejoin="round"><circle cx="7" cy="7" r="5"/><path d="m11 11 4 4"/></g>
      <text x="372.6666666666667" y="291" class="value">4</text>
      <text x="343.6666666666667" y="316" text-anchor="start" class="label"><tspan x="343.6666666666667" dy="0">RAG and retrieval</tspan><tspan x="343.6666666666667" dy="14">repositories</tspan></text>
      <rect x="641.3333333333334" y="260" width="298.6666666666667" height="82" rx="10" fill="#39C5CF" fill-opacity=".09" stroke="#39C5CF" stroke-opacity=".55"/>
      <g transform="translate(654.3333333333334 273) scale(1.0625)" fill="none" stroke="#39C5CF" stroke-width="1.5" stroke-linecap="round" stroke-linejoin="round"><path d="M1 8s2.5-4 7-4 7 4 7 4-2.5 4-7 4-7-4-7-4z"/><circle cx="8" cy="8" r="2"/></g>
      <text x="683.3333333333334" y="291" class="value">6</text>
      <text x="654.3333333333334" y="316" text-anchor="start" class="label"><tspan x="654.3333333333334" dy="0">Evaluation and observability</tspan><tspan x="654.3333333333334" dy="14">repositories</tspan></text>
      <rect x="20" y="354" width="298.6666666666667" height="82" rx="10" fill="#F85149" fill-opacity=".09" stroke="#F85149" stroke-opacity=".55"/>
      <g transform="translate(33 367) scale(1.0625)" fill="none" stroke="#F85149" stroke-width="1.5" stroke-linecap="round" stroke-linejoin="round"><path d="M8 1.5 14 4v4c0 3.4-2.2 5.8-6 7-3.8-1.2-6-3.6-6-7V4l6-2.5zM5.5 8l1.6 1.6L11 5.7"/></g>
      <text x="62" y="385" class="value">5</text>
      <text x="33" y="410" text-anchor="start" class="label"><tspan x="33" dy="0">Governance and safety</tspan><tspan x="33" dy="14">repositories</tspan></text>
      <rect x="330.6666666666667" y="354" width="298.6666666666667" height="82" rx="10" fill="#F0883E" fill-opacity=".09" stroke="#F0883E" stroke-opacity=".55"/>
      <g transform="translate(343.6666666666667 367) scale(1.0625)" fill="none" stroke="#F0883E" stroke-width="1.5" stroke-linecap="round" stroke-linejoin="round"><rect x="2" y="4" width="12" height="9" rx="2"/><path d="M8 1v3M5 8h.01M11 8h.01M5 11h6M1 7h1M14 7h1"/></g>
      <text x="372.6666666666667" y="385" class="value">6</text>
      <text x="343.6666666666667" y="410" text-anchor="start" class="label"><tspan x="343.6666666666667" dy="0">Claude-configured</tspan><tspan x="343.6666666666667" dy="14">repositories</tspan></text>
      <rect x="641.3333333333334" y="354" width="298.6666666666667" height="82" rx="10" fill="#58A6FF" fill-opacity=".09" stroke="#58A6FF" stroke-opacity=".55"/>
      <g transform="translate(654.3333333333334 367) scale(1.0625)" fill="none" stroke="#58A6FF" stroke-width="1.5" stroke-linecap="round" stroke-linejoin="round"><path d="M6 3L1 8l5 5M10 3l5 5-5 5"/></g>
      <text x="683.3333333333334" y="385" class="value">6</text>
      <text x="654.3333333333334" y="410" text-anchor="start" class="label"><tspan x="654.3333333333334" dy="0">Codex-configured</tspan><tspan x="654.3333333333334" dy="14">repositories</tspan></text>
      
</svg>