<svg xmlns="http://www.w3.org/2000/svg" width="1000" height="510" viewBox="0 0 1000 510" role="img" aria-label="AI Engineering Trophies">
  <style>
    .title{fill:#58A6FF;font:600 18px -apple-system,BlinkMacSystemFont,"Segoe UI",sans-serif}
    .subtitle{fill:#8B949E;font:400 11px -apple-system,BlinkMacSystemFont,"Segoe UI",sans-serif}
    .label{fill:#8B949E;font:500 11px -apple-system,BlinkMacSystemFont,"Segoe UI",sans-serif}
    .value{fill:#F0F6FC;font:700 20px -apple-system,BlinkMacSystemFont,"Segoe UI",sans-serif}
    .small{fill:#F0F6FC;font:600 12px -apple-system,BlinkMacSystemFont,"Segoe UI",sans-serif}
    .tiny{fill:#8B949E;font:400 10px -apple-system,BlinkMacSystemFont,"Segoe UI",sans-serif}
    .empty{fill:#8B949E;font:400 13px -apple-system,BlinkMacSystemFont,"Segoe UI",sans-serif}
  </style>
  <rect x=".5" y=".5" width="999" height="509" rx="12" fill="#0D1117" stroke="#30363D"/>
  <g transform="translate(20 17) scale(1.125)" fill="none" stroke="#D29922" stroke-width="1.5" stroke-linecap="round" stroke-linejoin="round"><path d="M5 2h6v3a3 3 0 0 1-6 0V2zM6 10h4M8 8v5M5 14h6M3 3H1v1a3 3 0 0 0 3 3M13 3h2v1a3 3 0 0 1-3 3"/></g>
  <text x="48" y="31" class="title">AI Engineering Trophies</text>
  <text x="48" y="49" class="subtitle">Evidence-based discipline milestones with transparent repository and activity thresholds</text>
  <rect x="20" y="70" width="231" height="132" rx="10" fill="#21262D" stroke="#30363D"/>
      <g transform="translate(123.5 85) scale(1.5)" fill="none" stroke="#E5E4E2" stroke-width="1.5" stroke-linecap="round" stroke-linejoin="round"><path d="M5 2h6v3a3 3 0 0 1-6 0V2zM6 10h4M8 8v5M5 14h6M3 3H1v1a3 3 0 0 0 3 3M13 3h2v1a3 3 0 0 1-3 3"/></g>
      <text x="135.5" y="134" text-anchor="middle" class="small"><tspan x="135.5" dy="0">AI-Native Builder</tspan></text>
      <text x="135.5" y="171" text-anchor="middle" style="fill:#E5E4E2;font:700 12px -apple-system,BlinkMacSystemFont,'Segoe UI',sans-serif">Platinum</text>
      <text x="135.5" y="190" text-anchor="middle" class="tiny">Evidence score 18</text><rect x="263" y="70" width="231" height="132" rx="10" fill="#21262D" stroke="#30363D"/>
      <g transform="translate(366.5 85) scale(1.5)" fill="none" stroke="#D29922" stroke-width="1.5" stroke-linecap="round" stroke-linejoin="round"><path d="M5 2h6v3a3 3 0 0 1-6 0V2zM6 10h4M8 8v5M5 14h6M3 3H1v1a3 3 0 0 0 3 3M13 3h2v1a3 3 0 0 1-3 3"/></g>
      <text x="378.5" y="134" text-anchor="middle" class="small"><tspan x="378.5" dy="0">Prompt Engineer</tspan></text>
      <text x="378.5" y="171" text-anchor="middle" style="fill:#D29922;font:700 12px -apple-system,BlinkMacSystemFont,'Segoe UI',sans-serif">Gold</text>
      <text x="378.5" y="190" text-anchor="middle" class="tiny">Evidence score 7</text><rect x="506" y="70" width="231" height="132" rx="10" fill="#21262D" stroke="#30363D"/>
      <g transform="translate(609.5 85) scale(1.5)" fill="none" stroke="#D29922" stroke-width="1.5" stroke-linecap="round" stroke-linejoin="round"><path d="M5 2h6v3a3 3 0 0 1-6 0V2zM6 10h4M8 8v5M5 14h6M3 3H1v1a3 3 0 0 0 3 3M13 3h2v1a3 3 0 0 1-3 3"/></g>
      <text x="621.5" y="134" text-anchor="middle" class="small"><tspan x="621.5" dy="0">Context Engineer</tspan></text>
      <text x="621.5" y="171" text-anchor="middle" style="fill:#D29922;font:700 12px -apple-system,BlinkMacSystemFont,'Segoe UI',sans-serif">Gold</text>
      <text x="621.5" y="190" text-anchor="middle" class="tiny">Evidence score 7</text><rect x="749" y="70" width="231" height="132" rx="10" fill="#21262D" stroke="#30363D"/>
      <g transform="translate(852.5 85) scale(1.5)" fill="none" stroke="#C0C0C0" stroke-width="1.5" stroke-linecap="round" stroke-linejoin="round"><path d="M5 2h6v3a3 3 0 0 1-6 0V2zM6 10h4M8 8v5M5 14h6M3 3H1v1a3 3 0 0 0 3 3M13 3h2v1a3 3 0 0 1-3 3"/></g>
      <text x="864.5" y="134" text-anchor="middle" class="small"><tspan x="864.5" dy="0">Memory Engineer</tspan></text>
      <text x="864.5" y="171" text-anchor="middle" style="fill:#C0C0C0;font:700 12px -apple-system,BlinkMacSystemFont,'Segoe UI',sans-serif">Silver</text>
      <text x="864.5" y="190" text-anchor="middle" class="tiny">Evidence score 3</text><rect x="20" y="214" width="231" height="132" rx="10" fill="#21262D" stroke="#30363D"/>
      <g transform="translate(123.5 229) scale(1.5)" fill="none" stroke="#E5E4E2" stroke-width="1.5" stroke-linecap="round" stroke-linejoin="round"><path d="M5 2h6v3a3 3 0 0 1-6 0V2zM6 10h4M8 8v5M5 14h6M3 3H1v1a3 3 0 0 0 3 3M13 3h2v1a3 3 0 0 1-3 3"/></g>
      <text x="135.5" y="278" text-anchor="middle" class="small"><tspan x="135.5" dy="0">AI Harness Engineer</tspan></text>
      <text x="135.5" y="315" text-anchor="middle" style="fill:#E5E4E2;font:700 12px -apple-system,BlinkMacSystemFont,'Segoe UI',sans-serif">Platinum</text>
      <text x="135.5" y="334" text-anchor="middle" class="tiny">Evidence score 17</text><rect x="263" y="214" width="231" height="132" rx="10" fill="#21262D" stroke="#30363D"/>
      <g transform="translate(366.5 229) scale(1.5)" fill="none" stroke="#D29922" stroke-width="1.5" stroke-linecap="round" stroke-linejoin="round"><path d="M5 2h6v3a3 3 0 0 1-6 0V2zM6 10h4M8 8v5M5 14h6M3 3H1v1a3 3 0 0 0 3 3M13 3h2v1a3 3 0 0 1-3 3"/></g>
      <text x="378.5" y="278" text-anchor="middle" class="small"><tspan x="378.5" dy="0">Agentic Orchestrator</tspan></text>
      <text x="378.5" y="315" text-anchor="middle" style="fill:#D29922;font:700 12px -apple-system,BlinkMacSystemFont,'Segoe UI',sans-serif">Gold</text>
      <text x="378.5" y="334" text-anchor="middle" class="tiny">Evidence score 4</text><rect x="506" y="214" width="231" height="132" rx="10" fill="#21262D" stroke="#30363D"/>
      <g transform="translate(609.5 229) scale(1.5)" fill="none" stroke="#E5E4E2" stroke-width="1.5" stroke-linecap="round" stroke-linejoin="round"><path d="M5 2h6v3a3 3 0 0 1-6 0V2zM6 10h4M8 8v5M5 14h6M3 3H1v1a3 3 0 0 0 3 3M13 3h2v1a3 3 0 0 1-3 3"/></g>
      <text x="621.5" y="278" text-anchor="middle" class="small"><tspan x="621.5" dy="0">MCP Integrator</tspan></text>
      <text x="621.5" y="315" text-anchor="middle" style="fill:#E5E4E2;font:700 12px -apple-system,BlinkMacSystemFont,'Segoe UI',sans-serif">Platinum</text>
      <text x="621.5" y="334" text-anchor="middle" class="tiny">Evidence score 8</text><rect x="749" y="214" width="231" height="132" rx="10" fill="#21262D" stroke="#30363D"/>
      <g transform="translate(852.5 229) scale(1.5)" fill="none" stroke="#D29922" stroke-width="1.5" stroke-linecap="round" stroke-linejoin="round"><path d="M5 2h6v3a3 3 0 0 1-6 0V2zM6 10h4M8 8v5M5 14h6M3 3H1v1a3 3 0 0 0 3 3M13 3h2v1a3 3 0 0 1-3 3"/></g>
      <text x="864.5" y="278" text-anchor="middle" class="small"><tspan x="864.5" dy="0">RAG Engineer</tspan></text>
      <text x="864.5" y="315" text-anchor="middle" style="fill:#D29922;font:700 12px -apple-system,BlinkMacSystemFont,'Segoe UI',sans-serif">Gold</text>
      <text x="864.5" y="334" text-anchor="middle" class="tiny">Evidence score 4</text><rect x="20" y="358" width="231" height="132" rx="10" fill="#21262D" stroke="#30363D"/>
      <g transform="translate(123.5 373) scale(1.5)" fill="none" stroke="#E5E4E2" stroke-width="1.5" stroke-linecap="round" stroke-linejoin="round"><path d="M5 2h6v3a3 3 0 0 1-6 0V2zM6 10h4M8 8v5M5 14h6M3 3H1v1a3 3 0 0 0 3 3M13 3h2v1a3 3 0 0 1-3 3"/></g>
      <text x="135.5" y="422" text-anchor="middle" class="small"><tspan x="135.5" dy="0">Evaluation &amp;</tspan><tspan x="135.5" dy="14">Observability</tspan></text>
      <text x="135.5" y="459" text-anchor="middle" style="fill:#E5E4E2;font:700 12px -apple-system,BlinkMacSystemFont,'Segoe UI',sans-serif">Platinum</text>
      <text x="135.5" y="478" text-anchor="middle" class="tiny">Evidence score 6</text><rect x="263" y="358" width="231" height="132" rx="10" fill="#21262D" stroke="#30363D"/>
      <g transform="translate(366.5 373) scale(1.5)" fill="none" stroke="#D29922" stroke-width="1.5" stroke-linecap="round" stroke-linejoin="round"><path d="M5 2h6v3a3 3 0 0 1-6 0V2zM6 10h4M8 8v5M5 14h6M3 3H1v1a3 3 0 0 0 3 3M13 3h2v1a3 3 0 0 1-3 3"/></g>
      <text x="378.5" y="422" text-anchor="middle" class="small"><tspan x="378.5" dy="0">AI Governance</tspan></text>
      <text x="378.5" y="459" text-anchor="middle" style="fill:#D29922;font:700 12px -apple-system,BlinkMacSystemFont,'Segoe UI',sans-serif">Gold</text>
      <text x="378.5" y="478" text-anchor="middle" class="tiny">Evidence score 5</text><rect x="506" y="358" width="231" height="132" rx="10" fill="#21262D" stroke="#30363D"/>
      <g transform="translate(609.5 373) scale(1.5)" fill="none" stroke="#E5E4E2" stroke-width="1.5" stroke-linecap="round" stroke-linejoin="round"><path d="M5 2h6v3a3 3 0 0 1-6 0V2zM6 10h4M8 8v5M5 14h6M3 3H1v1a3 3 0 0 0 3 3M13 3h2v1a3 3 0 0 1-3 3"/></g>
      <text x="621.5" y="422" text-anchor="middle" class="small"><tspan x="621.5" dy="0">AI Workflow Evolution</tspan></text>
      <text x="621.5" y="459" text-anchor="middle" style="fill:#E5E4E2;font:700 12px -apple-system,BlinkMacSystemFont,'Segoe UI',sans-serif">Platinum</text>
      <text x="621.5" y="478" text-anchor="middle" class="tiny">Evidence score 110</text>
</svg>