<svg xmlns="http://www.w3.org/2000/svg" width="480" height="252" viewBox="0 0 480 252" role="img" aria-label="AI Harness Engineering">
  <style>
    .title{fill:#58A6FF;font:600 19px -apple-system,BlinkMacSystemFont,"Segoe UI",sans-serif}
    .subtitle{fill:#8B949E;font:600 11.7px -apple-system,BlinkMacSystemFont,"Segoe UI",sans-serif}
    .label{fill:#8B949E;font:600 12.7px -apple-system,BlinkMacSystemFont,"Segoe UI",sans-serif}
    .value{fill:#F0F6FC;font:600 19px -apple-system,BlinkMacSystemFont,"Segoe UI",sans-serif}
    .small{fill:#F0F6FC;font:600 12.6px -apple-system,BlinkMacSystemFont,"Segoe UI",sans-serif}
    .tiny{fill:#8B949E;font:600 10.6px -apple-system,BlinkMacSystemFont,"Segoe UI",sans-serif}
    .compactLabel{fill:#F0F6FC;font:600 11.2px -apple-system,BlinkMacSystemFont,"Segoe UI",sans-serif}
    .empty{fill:#8B949E;font:600 13.7px -apple-system,BlinkMacSystemFont,"Segoe UI",sans-serif}
  </style>
  <rect x=".5" y=".5" width="479" height="251" rx="12" fill="#0D1117" stroke="#30363D"/>
  <g transform="translate(20 17) scale(1.125)" fill="none" stroke="#F0883E" stroke-width="1.5" stroke-linecap="round" stroke-linejoin="round"><path d="M2 8h3l2-4 3 8 2-4h2M3 14h10M4 2h8"/></g>
  <text x="48" y="31" class="title">AI Harness Engineering</text>
  <text x="48" y="49" class="subtitle">Runtime control, reliability, routing and safeguards</text>
  <text x="22" y="88" class="value">18</text>
      <text x="22" y="106" class="label">repositories</text>
      <text x="164" y="88" class="value">1.6K</text>
      <text x="164" y="106" class="label">evidence signals</text>
      <rect x="304" y="75" width="150" height="10" rx="5" fill="#21262D"/>
      <rect x="304" y="75" width="150.0" height="10" rx="5" fill="#3FB950"/>
      <text x="454" y="103" text-anchor="end" style="fill:#3FB950;font:600 11px -apple-system,BlinkMacSystemFont,'Segoe UI',sans-serif">Deep depth</text>
      <rect x="20" y="132" width="212" height="46" rx="8" fill="#F0883E" fill-opacity=".075" stroke="#F0883E" stroke-opacity=".42"/>
      <g transform="translate(30 142) scale(0.875)" fill="none" stroke="#F0883E" stroke-width="1.5" stroke-linecap="round" stroke-linejoin="round"><path d="M2 8h3l2-4 3 8 2-4h2M3 14h10M4 2h8"/></g>
      <text x="52" y="153" class="small">1.4K</text>
      <text x="30" y="170" class="compactLabel">Runners &amp; execution loops</text><rect x="244" y="132" width="212" height="46" rx="8" fill="#F0883E" fill-opacity=".075" stroke="#F0883E" stroke-opacity=".42"/>
      <g transform="translate(254 142) scale(0.875)" fill="none" stroke="#F0883E" stroke-width="1.5" stroke-linecap="round" stroke-linejoin="round"><path d="M10.5 2.2a3.5 3.5 0 0 0-4.2 4.5L2 11l3 3 4.3-4.3a3.5 3.5 0 0 0 4.5-4.2l-2.2 2.2-2.3-.6-.6-2.3 1.8-2.6z"/></g>
      <text x="276" y="153" class="small">212</text>
      <text x="254" y="170" class="compactLabel">Tool registry &amp; hooks</text><rect x="20" y="188" width="212" height="46" rx="8" fill="#F0883E" fill-opacity=".075" stroke="#F0883E" stroke-opacity=".42"/>
      <g transform="translate(30 198) scale(0.875)" fill="none" stroke="#F0883E" stroke-width="1.5" stroke-linecap="round" stroke-linejoin="round"><path d="M1 8h3l2-5 4 10 2-5h3"/></g>
      <text x="52" y="209" class="small">15</text>
      <text x="30" y="226" class="compactLabel">Retries, budgets &amp; routing</text><rect x="244" y="188" width="212" height="46" rx="8" fill="#F0883E" fill-opacity=".075" stroke="#F0883E" stroke-opacity=".42"/>
      <g transform="translate(254 198) scale(0.875)" fill="none" stroke="#F0883E" stroke-width="1.5" stroke-linecap="round" stroke-linejoin="round"><path d="M8 1.5 14 4v4c0 3.4-2.2 5.8-6 7-3.8-1.2-6-3.6-6-7V4l6-2.5zM5.5 8l1.6 1.6L11 5.7"/></g>
      <text x="276" y="209" class="small">29</text>
      <text x="254" y="226" class="compactLabel">Safety, traces &amp; CI</text>
</svg>