<svg xmlns="http://www.w3.org/2000/svg" width="960" height="446" viewBox="0 0 960 446" role="img" aria-label="AI Harness Engineering">
  <style>
    .title{fill:#58A6FF;font:600 18px -apple-system,BlinkMacSystemFont,"Segoe UI",sans-serif}
    .subtitle{fill:#8B949E;font:400 11px -apple-system,BlinkMacSystemFont,"Segoe UI",sans-serif}
    .label{fill:#8B949E;font:500 11px -apple-system,BlinkMacSystemFont,"Segoe UI",sans-serif}
    .value{fill:#F0F6FC;font:700 20px -apple-system,BlinkMacSystemFont,"Segoe UI",sans-serif}
    .small{fill:#F0F6FC;font:600 12px -apple-system,BlinkMacSystemFont,"Segoe UI",sans-serif}
    .tiny{fill:#8B949E;font:400 10px -apple-system,BlinkMacSystemFont,"Segoe UI",sans-serif}
    .empty{fill:#8B949E;font:400 13px -apple-system,BlinkMacSystemFont,"Segoe UI",sans-serif}
  </style>
  <rect x=".5" y=".5" width="959" height="445" rx="12" fill="#0D1117" stroke="#30363D"/>
  <g transform="translate(20 17) scale(1.125)" fill="none" stroke="#F0883E" stroke-width="1.5" stroke-linecap="round" stroke-linejoin="round"><path d="M2 8h3l2-4 3 8 2-4h2M3 14h10M4 2h8"/></g>
  <text x="48" y="31" class="title">AI Harness Engineering</text>
  <text x="48" y="49" class="subtitle">Execution runtimes, tool dispatch, recovery, budgets, model routing, sandboxing, tracing and CI validation</text>
  <rect x="20" y="72" width="298.6666666666667" height="82" rx="10" fill="#F0883E" fill-opacity=".09" stroke="#F0883E" stroke-opacity=".55"/>
      <g transform="translate(33 85) scale(1.0625)" fill="none" stroke="#F0883E" stroke-width="1.5" stroke-linecap="round" stroke-linejoin="round"><path d="M2 8h3l2-4 3 8 2-4h2M3 14h10M4 2h8"/></g>
      <text x="62" y="103" class="value">17</text>
      <text x="33" y="128" text-anchor="start" class="label"><tspan x="33" dy="0">Repositories with AI harness</tspan><tspan x="33" dy="14">engineering</tspan></text>
      <rect x="330.6666666666667" y="72" width="298.6666666666667" height="82" rx="10" fill="#F0883E" fill-opacity=".09" stroke="#F0883E" stroke-opacity=".55"/>
      <g transform="translate(343.6666666666667 85) scale(1.0625)" fill="none" stroke="#F0883E" stroke-width="1.5" stroke-linecap="round" stroke-linejoin="round"><path d="M2 8h3l2-4 3 8 2-4h2M3 14h10M4 2h8"/></g>
      <text x="372.6666666666667" y="103" class="value">1.4K</text>
      <text x="343.6666666666667" y="128" text-anchor="start" class="label"><tspan x="343.6666666666667" dy="0">Agent runner and runtime</tspan><tspan x="343.6666666666667" dy="14">signals</tspan></text>
      <rect x="641.3333333333334" y="72" width="298.6666666666667" height="82" rx="10" fill="#F0883E" fill-opacity=".09" stroke="#F0883E" stroke-opacity=".55"/>
      <g transform="translate(654.3333333333334 85) scale(1.0625)" fill="none" stroke="#F0883E" stroke-width="1.5" stroke-linecap="round" stroke-linejoin="round"><path d="M10.5 2.2a3.5 3.5 0 0 0-4.2 4.5L2 11l3 3 4.3-4.3a3.5 3.5 0 0 0 4.5-4.2l-2.2 2.2-2.3-.6-.6-2.3 1.8-2.6z"/></g>
      <text x="683.3333333333334" y="103" class="value">138</text>
      <text x="654.3333333333334" y="128" text-anchor="start" class="label"><tspan x="654.3333333333334" dy="0">Tool registry and dispatch</tspan><tspan x="654.3333333333334" dy="14">signals</tspan></text>
      <rect x="20" y="166" width="298.6666666666667" height="82" rx="10" fill="#F0883E" fill-opacity=".09" stroke="#F0883E" stroke-opacity=".55"/>
      <g transform="translate(33 179) scale(1.0625)" fill="none" stroke="#F0883E" stroke-width="1.5" stroke-linecap="round" stroke-linejoin="round"><path d="M1 8h3l2-5 4 10 2-5h3"/></g>
      <text x="62" y="197" class="value">6</text>
      <text x="33" y="222" text-anchor="start" class="label"><tspan x="33" dy="0">Retry and error-recovery</tspan><tspan x="33" dy="14">controls</tspan></text>
      <rect x="330.6666666666667" y="166" width="298.6666666666667" height="82" rx="10" fill="#F0883E" fill-opacity=".09" stroke="#F0883E" stroke-opacity=".55"/>
      <g transform="translate(343.6666666666667 179) scale(1.0625)" fill="none" stroke="#F0883E" stroke-width="1.5" stroke-linecap="round" stroke-linejoin="round"><rect x="2" y="3" width="12" height="11" rx="2"/><path d="M5 1v4M11 1v4M2 7h12"/></g>
      <text x="372.6666666666667" y="197" class="value">8</text>
      <text x="343.6666666666667" y="222" text-anchor="start" class="label"><tspan x="343.6666666666667" dy="0">Timeout, token and cost</tspan><tspan x="343.6666666666667" dy="14">budgets</tspan></text>
      <rect x="641.3333333333334" y="166" width="298.6666666666667" height="82" rx="10" fill="#F0883E" fill-opacity=".09" stroke="#F0883E" stroke-opacity=".55"/>
      <g transform="translate(654.3333333333334 179) scale(1.0625)" fill="none" stroke="#F0883E" stroke-width="1.5" stroke-linecap="round" stroke-linejoin="round"><circle cx="3" cy="3" r="2"/><circle cx="13" cy="13" r="2"/><path d="M5 3h3a3 3 0 0 1 3 3v2a3 3 0 0 0 2 3"/></g>
      <text x="683.3333333333334" y="197" class="value">0</text>
      <text x="654.3333333333334" y="222" text-anchor="start" class="label"><tspan x="654.3333333333334" dy="0">Model routing and fallback</tspan><tspan x="654.3333333333334" dy="14">signals</tspan></text>
      <rect x="20" y="260" width="298.6666666666667" height="82" rx="10" fill="#F0883E" fill-opacity=".09" stroke="#F0883E" stroke-opacity=".55"/>
      <g transform="translate(33 273) scale(1.0625)" fill="none" stroke="#F0883E" stroke-width="1.5" stroke-linecap="round" stroke-linejoin="round"><circle cx="8" cy="3" r="2"/><circle cx="3" cy="12" r="2"/><circle cx="13" cy="12" r="2"/><path d="M7 5 4 10M9 5l3 5M5 12h6"/></g>
      <text x="62" y="291" class="value">4</text>
      <text x="33" y="316" text-anchor="start" class="label"><tspan x="33" dy="0">Concurrency and</tspan><tspan x="33" dy="14">parallel-execution controls</tspan></text>
      <rect x="330.6666666666667" y="260" width="298.6666666666667" height="82" rx="10" fill="#F0883E" fill-opacity=".09" stroke="#F0883E" stroke-opacity=".55"/>
      <g transform="translate(343.6666666666667 273) scale(1.0625)" fill="none" stroke="#F0883E" stroke-width="1.5" stroke-linecap="round" stroke-linejoin="round"><rect x="3" y="7" width="10" height="8" rx="2"/><path d="M5 7V5a3 3 0 0 1 6 0v2"/></g>
      <text x="372.6666666666667" y="291" class="value">3</text>
      <text x="343.6666666666667" y="316" text-anchor="start" class="label"><tspan x="343.6666666666667" dy="0">Sandbox and</tspan><tspan x="343.6666666666667" dy="14">isolated-execution controls</tspan></text>
      <rect x="641.3333333333334" y="260" width="298.6666666666667" height="82" rx="10" fill="#F0883E" fill-opacity=".09" stroke="#F0883E" stroke-opacity=".55"/>
      <g transform="translate(654.3333333333334 273) scale(1.0625)" fill="none" stroke="#F0883E" stroke-width="1.5" stroke-linecap="round" stroke-linejoin="round"><path d="M6 3L1 8l5 5M10 3l5 5-5 5"/></g>
      <text x="683.3333333333334" y="291" class="value">4</text>
      <text x="654.3333333333334" y="316" text-anchor="start" class="label"><tspan x="654.3333333333334" dy="0">Structured-output parsing</tspan><tspan x="654.3333333333334" dy="14">and schemas</tspan></text>
      <rect x="20" y="354" width="298.6666666666667" height="82" rx="10" fill="#F0883E" fill-opacity=".09" stroke="#F0883E" stroke-opacity=".55"/>
      <g transform="translate(33 367) scale(1.0625)" fill="none" stroke="#F0883E" stroke-width="1.5" stroke-linecap="round" stroke-linejoin="round"><path d="M10.5 2.2a3.5 3.5 0 0 0-4.2 4.5L2 11l3 3 4.3-4.3a3.5 3.5 0 0 0 4.5-4.2l-2.2 2.2-2.3-.6-.6-2.3 1.8-2.6z"/></g>
      <text x="62" y="385" class="value">49</text>
      <text x="33" y="410" text-anchor="start" class="label"><tspan x="33" dy="0">Lifecycle hooks and</tspan><tspan x="33" dy="14">automation</tspan></text>
      <rect x="330.6666666666667" y="354" width="298.6666666666667" height="82" rx="10" fill="#F0883E" fill-opacity=".09" stroke="#F0883E" stroke-opacity=".55"/>
      <g transform="translate(343.6666666666667 367) scale(1.0625)" fill="none" stroke="#F0883E" stroke-width="1.5" stroke-linecap="round" stroke-linejoin="round"><path d="M1 8s2.5-4 7-4 7 4 7 4-2.5 4-7 4-7-4-7-4z"/><circle cx="8" cy="8" r="2"/></g>
      <text x="372.6666666666667" y="385" class="value">12</text>
      <text x="343.6666666666667" y="410" text-anchor="start" class="label"><tspan x="343.6666666666667" dy="0">Runtime tracing and</tspan><tspan x="343.6666666666667" dy="14">telemetry</tspan></text>
      <rect x="641.3333333333334" y="354" width="298.6666666666667" height="82" rx="10" fill="#F0883E" fill-opacity=".09" stroke="#F0883E" stroke-opacity=".55"/>
      <g transform="translate(654.3333333333334 367) scale(1.0625)" fill="none" stroke="#F0883E" stroke-width="1.5" stroke-linecap="round" stroke-linejoin="round"><path d="M5 1h6M6 1v5l-4 7a1.5 1.5 0 0 0 1.3 2h9.4a1.5 1.5 0 0 0 1.3-2l-4-7V1M5 10h6"/></g>
      <text x="683.3333333333334" y="385" class="value">5</text>
      <text x="654.3333333333334" y="410" text-anchor="start" class="label"><tspan x="654.3333333333334" dy="0">AI workflow CI validation</tspan></text>
      
</svg>