<svg xmlns="http://www.w3.org/2000/svg" width="900" height="306" viewBox="0 0 900 306" role="img" aria-label="AI Workflow Activity">
  <style>
    .title{fill:#58A6FF;font:600 18px -apple-system,BlinkMacSystemFont,"Segoe UI",sans-serif}
    .subtitle{fill:#8B949E;font:400 11px -apple-system,BlinkMacSystemFont,"Segoe UI",sans-serif}
    .label{fill:#8B949E;font:500 11px -apple-system,BlinkMacSystemFont,"Segoe UI",sans-serif}
    .value{fill:#F0F6FC;font:700 20px -apple-system,BlinkMacSystemFont,"Segoe UI",sans-serif}
    .small{fill:#F0F6FC;font:600 12px -apple-system,BlinkMacSystemFont,"Segoe UI",sans-serif}
    .tiny{fill:#8B949E;font:400 10px -apple-system,BlinkMacSystemFont,"Segoe UI",sans-serif}
    .empty{fill:#8B949E;font:400 13px -apple-system,BlinkMacSystemFont,"Segoe UI",sans-serif}
  </style>
  <rect x=".5" y=".5" width="899" height="305" rx="12" fill="#0D1117" stroke="#30363D"/>
  <g transform="translate(20 17) scale(1.125)" fill="none" stroke="#3FB950" stroke-width="1.5" stroke-linecap="round" stroke-linejoin="round"><path d="M1 8h3l2-5 4 10 2-5h3"/></g>
  <text x="48" y="31" class="title">AI Workflow Activity</text>
  <text x="48" y="49" class="subtitle">First May 11, 2020 · latest Jul 18, 2026 · commits touching AI engineering evidence paths</text>
  <rect x="20" y="72" width="206" height="76" rx="10" fill="#3FB950" fill-opacity=".09" stroke="#3FB950" stroke-opacity=".55"/>
      <g transform="translate(32 84) scale(1)" fill="none" stroke="#3FB950" stroke-width="1.5" stroke-linecap="round" stroke-linejoin="round"><path d="M1 8h3l2-5 4 10 2-5h3"/></g>
      <text x="59" y="101" class="value">110</text>
      <text x="32" y="125" text-anchor="start" class="label"><tspan x="32" dy="0">AI-workflow commits</tspan></text><rect x="238" y="72" width="206" height="76" rx="10" fill="#58A6FF" fill-opacity=".09" stroke="#58A6FF" stroke-opacity=".55"/>
      <g transform="translate(250 84) scale(1)" fill="none" stroke="#58A6FF" stroke-width="1.5" stroke-linecap="round" stroke-linejoin="round"><path d="M3 1h7l3 3v11H3zM10 1v4h3M5 8h6M5 11h6"/></g>
      <text x="277" y="101" class="value">922</text>
      <text x="250" y="125" text-anchor="start" class="label"><tspan x="250" dy="0">AI evidence files</tspan><tspan x="250" dy="13">touched</tspan></text><rect x="456" y="72" width="206" height="76" rx="10" fill="#A371F7" fill-opacity=".09" stroke="#A371F7" stroke-opacity=".55"/>
      <g transform="translate(468 84) scale(1)" fill="none" stroke="#A371F7" stroke-width="1.5" stroke-linecap="round" stroke-linejoin="round"><path d="M8 1l7 4-7 4-7-4 7-4zM1 8l7 4 7-4M1 11l7 4 7-4"/></g>
      <text x="495" y="101" class="value">12</text>
      <text x="468" y="125" text-anchor="start" class="label"><tspan x="468" dy="0">Repositories with AI</tspan><tspan x="468" dy="13">evolution</tspan></text><rect x="674" y="72" width="206" height="76" rx="10" fill="#F0883E" fill-opacity=".09" stroke="#F0883E" stroke-opacity=".55"/>
      <g transform="translate(686 84) scale(1)" fill="none" stroke="#F0883E" stroke-width="1.5" stroke-linecap="round" stroke-linejoin="round"><rect x="2" y="3" width="12" height="11" rx="2"/><path d="M5 1v4M11 1v4M2 7h12"/></g>
      <text x="713" y="101" class="value">6</text>
      <text x="686" y="125" text-anchor="start" class="label"><tspan x="686" dy="0">Active AI-engineering</tspan><tspan x="686" dy="13">months</tspan></text><defs><linearGradient id="ai-activity-area" x1="0" y1="0" x2="0" y2="1"><stop offset="0" stop-color="#A371F7" stop-opacity=".48"/><stop offset="1" stop-color="#A371F7" stop-opacity="0"/></linearGradient></defs><line x1="36" y1="258" x2="864" y2="258" stroke="#30363D"/><polygon points="36,258 36.0,255.3 201.6,256.7 367.2,256.7 532.8,248.6 698.4,176.0 864.0,206.9 864,258" fill="url(#ai-activity-area)"/><polyline points="36.0,255.3 201.6,256.7 367.2,256.7 532.8,248.6 698.4,176.0 864.0,206.9" fill="none" stroke="#A371F7" stroke-width="2.2" stroke-linejoin="round" stroke-linecap="round"/><text x="36.0" y="292" text-anchor="middle" class="tiny">2020-05</text><text x="367.2" y="292" text-anchor="middle" class="tiny">2025-04</text><text x="698.4" y="292" text-anchor="middle" class="tiny">2026-06</text><text x="864.0" y="292" text-anchor="middle" class="tiny">2026-07</text>
</svg>