<svg xmlns="http://www.w3.org/2000/svg" width="840" height="290" viewBox="0 0 840 290" role="img" aria-label="AI Workflow Activity">
  <style>
    .title{fill:#58A6FF;font:600 18px -apple-system,BlinkMacSystemFont,"Segoe UI",sans-serif}
    .subtitle{fill:#8B949E;font:400 11px -apple-system,BlinkMacSystemFont,"Segoe UI",sans-serif}
    .label{fill:#8B949E;font:400 12px -apple-system,BlinkMacSystemFont,"Segoe UI",sans-serif}
    .value{fill:#F0F6FC;font:600 18px -apple-system,BlinkMacSystemFont,"Segoe UI",sans-serif}
    .small{fill:#F0F6FC;font:500 12px -apple-system,BlinkMacSystemFont,"Segoe UI",sans-serif}
    .tiny{fill:#8B949E;font:400 10px -apple-system,BlinkMacSystemFont,"Segoe UI",sans-serif}
    .empty{fill:#8B949E;font:400 13px -apple-system,BlinkMacSystemFont,"Segoe UI",sans-serif}
  </style>
  <rect x=".5" y=".5" width="839" height="289" rx="12" fill="#0D1117" stroke="#30363D"/>
  <g transform="translate(20 17) scale(1.125)" fill="none" stroke="#3FB950" stroke-width="1.5" stroke-linecap="round" stroke-linejoin="round"><path d="M1 8h3l2-5 4 10 2-5h3"/></g>
  <text x="48" y="31" class="title">AI Workflow Activity</text>
  <text x="48" y="49" class="subtitle">First May 11, 2020 · latest Jul 18, 2026 · GitHub-attributed commits touching AI workflow files</text>
  <g transform="translate(20 67) scale(1)" fill="none" stroke="#3FB950" stroke-width="1.5" stroke-linecap="round" stroke-linejoin="round"><path d="M1 8h3l2-5 4 10 2-5h3"/></g>
      <text x="46" y="80" class="value">110</text>
      <text x="46" y="98" class="label">AI-workflow commits</text><g transform="translate(220 67) scale(1)" fill="none" stroke="#58A6FF" stroke-width="1.5" stroke-linecap="round" stroke-linejoin="round"><path d="M3 1h7l3 3v11H3zM10 1v4h3M5 8h6M5 11h6"/></g>
      <text x="246" y="80" class="value">922</text>
      <text x="246" y="98" class="label">AI configuration files touched</text><g transform="translate(420 67) scale(1)" fill="none" stroke="#A371F7" stroke-width="1.5" stroke-linecap="round" stroke-linejoin="round"><path d="M8 1l7 4-7 4-7-4 7-4zM1 8l7 4 7-4M1 11l7 4 7-4"/></g>
      <text x="446" y="80" class="value">12</text>
      <text x="446" y="98" class="label">Repositories with AI evolution</text><g transform="translate(620 67) scale(1)" fill="none" stroke="#F0883E" stroke-width="1.5" stroke-linecap="round" stroke-linejoin="round"><rect x="2" y="3" width="12" height="11" rx="2"/><path d="M5 1v4M11 1v4M2 7h12"/></g>
      <text x="646" y="80" class="value">6</text>
      <text x="646" y="98" class="label">Active AI-engineering months</text><defs><linearGradient id="ai-activity-area" x1="0" y1="0" x2="0" y2="1"><stop offset="0" stop-color="#A371F7" stop-opacity=".48"/><stop offset="1" stop-color="#A371F7" stop-opacity="0"/></linearGradient></defs><line x1="36" y1="246" x2="804" y2="246" stroke="#30363D"/><polygon points="36,246 36.0,243.3 189.6,244.7 343.2,244.7 496.8,236.6 650.4,164.0 804.0,194.9 804,246" fill="url(#ai-activity-area)"/><polyline points="36.0,243.3 189.6,244.7 343.2,244.7 496.8,236.6 650.4,164.0 804.0,194.9" fill="none" stroke="#A371F7" stroke-width="2.2" stroke-linejoin="round" stroke-linecap="round"/><text x="36.0" y="274" text-anchor="middle" class="tiny">2020-05</text><text x="343.2" y="274" text-anchor="middle" class="tiny">2025-04</text><text x="650.4" y="274" text-anchor="middle" class="tiny">2026-06</text><text x="804.0" y="274" text-anchor="middle" class="tiny">2026-07</text>
</svg>