<svg xmlns="http://www.w3.org/2000/svg" width="1000" height="692" viewBox="0 0 1000 692" role="img" aria-label="Frameworks &amp; Platforms">
  <style>
    .title{fill:#58A6FF;font:600 19px -apple-system,BlinkMacSystemFont,"Segoe UI",sans-serif}
    .subtitle{fill:#8B949E;font:600 11.7px -apple-system,BlinkMacSystemFont,"Segoe UI",sans-serif}
    .label{fill:#8B949E;font:600 12.7px -apple-system,BlinkMacSystemFont,"Segoe UI",sans-serif}
    .value{fill:#F0F6FC;font:600 19px -apple-system,BlinkMacSystemFont,"Segoe UI",sans-serif}
    .small{fill:#F0F6FC;font:600 12.6px -apple-system,BlinkMacSystemFont,"Segoe UI",sans-serif}
    .tiny{fill:#8B949E;font:600 10.6px -apple-system,BlinkMacSystemFont,"Segoe UI",sans-serif}
    .metricValue{fill:#58A6FF;font:700 19px -apple-system,BlinkMacSystemFont,"Segoe UI",sans-serif}
    .metricLabel{fill:#F0F6FC;font:600 11.6px -apple-system,BlinkMacSystemFont,"Segoe UI",sans-serif}
    .metricNote{fill:#8B949E;font:600 9.6px -apple-system,BlinkMacSystemFont,"Segoe UI",sans-serif}
    .pairedValue{fill:#F0F6FC;font:700 22px -apple-system,BlinkMacSystemFont,"Segoe UI",sans-serif}
    .pairedLabel{fill:#8B949E;font:600 14px -apple-system,BlinkMacSystemFont,"Segoe UI",sans-serif}
    .compositionValue{fill:#F0F6FC;font:700 14.4px -apple-system,BlinkMacSystemFont,"Segoe UI",sans-serif}
    .compositionLabel{fill:#8B949E;font:600 11.8px -apple-system,BlinkMacSystemFont,"Segoe UI",sans-serif}
    .sectionLabel{fill:#3FB950;font:700 11px -apple-system,BlinkMacSystemFont,"Segoe UI",sans-serif;letter-spacing:.5px}
    .empty{fill:#8B949E;font:600 13.7px -apple-system,BlinkMacSystemFont,"Segoe UI",sans-serif}
  </style>
  <rect x=".5" y=".5" width="999" height="691" rx="12" fill="#0D1117" stroke="#30363D"/>
  <g transform="translate(20 17) scale(1.125)" fill="none" stroke="#A371F7" stroke-width="1.5" stroke-linecap="round" stroke-linejoin="round"><path d="M8 1l6 3.2v7.6L8 15l-6-3.2V4.2L8 1zM2.3 4.4L8 7.5l5.7-3.1M8 7.5V15"/></g>
  <text x="48" y="31" class="title">Frameworks &amp; Platforms</text>
  <text x="48" y="49" class="subtitle">Contribution impact in projects where detected · overlapping metrics across 28 repositories</text>
  <circle cx="31" cy="79" r="5" fill="#339933"/>
      <text x="44" y="84" class="small">Node.js</text>
      <text x="206" y="84" class="label">9 repos</text>
      <rect x="281" y="72" width="165" height="8" rx="4" fill="#21262D"/>
      <rect x="281" y="72" width="165.0" height="8" rx="4" fill="#339933"/>
      <text x="44" y="104" class="tiny">475.3K changed lines · 171 commits · 2.4K files touched</text><circle cx="521" cy="79" r="5" fill="#2088FF"/>
      <text x="534" y="84" class="small">GitHub Actions</text>
      <text x="696" y="84" class="label">8 repos</text>
      <rect x="771" y="72" width="165" height="8" rx="4" fill="#21262D"/>
      <rect x="771" y="72" width="164.0" height="8" rx="4" fill="#2088FF"/>
      <text x="534" y="104" class="tiny">482.5K changed lines · 173 commits · 2.5K files touched</text><circle cx="31" cy="137" r="5" fill="#4169E1"/>
      <text x="44" y="142" class="small">PostgreSQL</text>
      <text x="206" y="142" class="label">6 repos</text>
      <rect x="281" y="130" width="165" height="8" rx="4" fill="#21262D"/>
      <rect x="281" y="130" width="159.2" height="8" rx="4" fill="#4169E1"/>
      <text x="44" y="162" class="tiny">435.6K changed lines · 142 commits · 2.3K files touched</text><circle cx="521" cy="137" r="5" fill="#38BDF8"/>
      <text x="534" y="142" class="small">TailwindCSS</text>
      <text x="696" y="142" class="label">4 repos</text>
      <rect x="771" y="130" width="165" height="8" rx="4" fill="#21262D"/>
      <rect x="771" y="130" width="154.1" height="8" rx="4" fill="#38BDF8"/>
      <text x="534" y="162" class="tiny">375.7K changed lines · 161 commits · 1.8K files touched</text><circle cx="31" cy="195" r="5" fill="#3ECF8E"/>
      <text x="44" y="200" class="small">Supabase</text>
      <text x="206" y="200" class="label">3 repos</text>
      <rect x="281" y="188" width="165" height="8" rx="4" fill="#21262D"/>
      <rect x="281" y="188" width="150.8" height="8" rx="4" fill="#3ECF8E"/>
      <text x="44" y="220" class="tiny">368.5K changed lines · 147 commits · 1.7K files touched</text><circle cx="521" cy="195" r="5" fill="#646CFF"/>
      <text x="534" y="200" class="small">Vite</text>
      <text x="696" y="200" class="label">2 repos</text>
      <rect x="771" y="188" width="165" height="8" rx="4" fill="#21262D"/>
      <rect x="771" y="188" width="146.0" height="8" rx="4" fill="#646CFF"/>
      <text x="534" y="220" class="tiny">329.5K changed lines · 134 commits · 1.6K files touched</text><circle cx="31" cy="253" r="5" fill="#2496ED"/>
      <text x="44" y="258" class="small">Docker</text>
      <text x="206" y="258" class="label">4 repos</text>
      <rect x="281" y="246" width="165" height="8" rx="4" fill="#21262D"/>
      <rect x="281" y="246" width="135.4" height="8" rx="4" fill="#2496ED"/>
      <text x="44" y="278" class="tiny">101.8K changed lines · 29 commits · 705 files touched</text><circle cx="521" cy="253" r="5" fill="#10A37F"/>
      <text x="534" y="258" class="small">OpenAI</text>
      <text x="696" y="258" class="label">4 repos</text>
      <rect x="771" y="246" width="165" height="8" rx="4" fill="#21262D"/>
      <rect x="771" y="246" width="133.9" height="8" rx="4" fill="#10A37F"/>
      <text x="534" y="278" class="tiny">104.4K changed lines · 18 commits · 747 files touched</text><circle cx="31" cy="311" r="5" fill="#3DDC84"/>
      <text x="44" y="316" class="small">Android</text>
      <text x="206" y="316" class="label">13 repos</text>
      <rect x="281" y="304" width="165" height="8" rx="4" fill="#21262D"/>
      <rect x="281" y="304" width="132.5" height="8" rx="4" fill="#3DDC84"/>
      <text x="44" y="336" class="tiny">21.8K changed lines · 16 commits · 462 files touched</text><circle cx="521" cy="311" r="5" fill="#61DAFB"/>
      <text x="534" y="316" class="small">React</text>
      <text x="696" y="316" class="label">3 repos</text>
      <rect x="771" y="304" width="165" height="8" rx="4" fill="#21262D"/>
      <rect x="771" y="304" width="127.9" height="8" rx="4" fill="#61DAFB"/>
      <text x="534" y="336" class="tiny">53.3K changed lines · 41 commits · 364 files touched</text><circle cx="31" cy="369" r="5" fill="#A2AAAD"/>
      <text x="44" y="374" class="small">iOS</text>
      <text x="206" y="374" class="label">9 repos</text>
      <rect x="281" y="362" width="165" height="8" rx="4" fill="#21262D"/>
      <rect x="281" y="362" width="122.1" height="8" rx="4" fill="#A2AAAD"/>
      <text x="44" y="394" class="tiny">11.2K changed lines · 14 commits · 329 files touched</text><circle cx="521" cy="369" r="5" fill="#61DAFB"/>
      <text x="534" y="374" class="small">React Native</text>
      <text x="696" y="374" class="label">2 repos</text>
      <rect x="771" y="362" width="165" height="8" rx="4" fill="#21262D"/>
      <rect x="771" y="362" width="120.8" height="8" rx="4" fill="#61DAFB"/>
      <text x="534" y="394" class="tiny">46.1K changed lines · 27 commits · 208 files touched</text><circle cx="31" cy="427" r="5" fill="#02569B"/>
      <text x="44" y="432" class="small">Flutter</text>
      <text x="206" y="432" class="label">7 repos</text>
      <rect x="281" y="420" width="165" height="8" rx="4" fill="#21262D"/>
      <rect x="281" y="420" width="113.9" height="8" rx="4" fill="#02569B"/>
      <text x="44" y="452" class="tiny">7.8K changed lines · 7 commits · 301 files touched</text><circle cx="521" cy="427" r="5" fill="#4285F4"/>
      <text x="534" y="432" class="small">Jetpack Compose</text>
      <text x="696" y="432" class="label">3 repos</text>
      <rect x="771" y="420" width="165" height="8" rx="4" fill="#21262D"/>
      <rect x="771" y="420" width="113.0" height="8" rx="4" fill="#4285F4"/>
      <text x="534" y="452" class="tiny">15.5K changed lines · 11 commits · 360 files touched</text><circle cx="31" cy="485" r="5" fill="#F0F6FC"/>
      <text x="44" y="490" class="small">Next.js</text>
      <text x="206" y="490" class="label">1 repo</text>
      <rect x="281" y="478" width="165" height="8" rx="4" fill="#21262D"/>
      <rect x="281" y="478" width="98.1" height="8" rx="4" fill="#F0F6FC"/>
      <text x="44" y="510" class="tiny">7.2K changed lines · 14 commits · 156 files touched</text><circle cx="521" cy="485" r="5" fill="#A97BFF"/>
      <text x="534" y="490" class="small">Hilt</text>
      <text x="696" y="490" class="label">1 repo</text>
      <rect x="771" y="478" width="165" height="8" rx="4" fill="#21262D"/>
      <rect x="771" y="478" width="94.7" height="8" rx="4" fill="#A97BFF"/>
      <text x="534" y="510" class="tiny">8.9K changed lines · 4 commits · 100 files touched</text><circle cx="31" cy="543" r="5" fill="#00AFAA"/>
      <text x="44" y="548" class="small">HERE SDK</text>
      <text x="206" y="548" class="label">2 repos</text>
      <rect x="281" y="536" width="165" height="8" rx="4" fill="#21262D"/>
      <rect x="281" y="536" width="94.4" height="8" rx="4" fill="#00AFAA"/>
      <text x="44" y="568" class="tiny">4K changed lines · 4 commits · 216 files touched</text><circle cx="521" cy="543" r="5" fill="#F0F6FC"/>
      <text x="534" y="548" class="small">Express</text>
      <text x="696" y="548" class="label">1 repo</text>
      <rect x="771" y="536" width="165" height="8" rx="4" fill="#21262D"/>
      <rect x="771" y="536" width="8.3" height="8" rx="4" fill="#F0F6FC"/>
      <text x="534" y="568" class="tiny">0 changed lines · 0 commits · 0 files touched</text><circle cx="31" cy="601" r="5" fill="#FFCA28"/>
      <text x="44" y="606" class="small">Firebase</text>
      <text x="206" y="606" class="label">1 repo</text>
      <rect x="281" y="594" width="165" height="8" rx="4" fill="#21262D"/>
      <rect x="281" y="594" width="8.3" height="8" rx="4" fill="#FFCA28"/>
      <text x="44" y="626" class="tiny">0 changed lines · 0 commits · 0 files touched</text>
</svg>