<svg xmlns="http://www.w3.org/2000/svg" width="1000" height="634" viewBox="0 0 1000 634" role="img" aria-label="Frameworks &amp; Platforms">
  <style>
    .title{fill:#58A6FF;font:600 18px -apple-system,BlinkMacSystemFont,"Segoe UI",sans-serif}
    .subtitle{fill:#8B949E;font:400 11px -apple-system,BlinkMacSystemFont,"Segoe UI",sans-serif}
    .label{fill:#8B949E;font:400 12px -apple-system,BlinkMacSystemFont,"Segoe UI",sans-serif}
    .value{fill:#F0F6FC;font:600 18px -apple-system,BlinkMacSystemFont,"Segoe UI",sans-serif}
    .small{fill:#F0F6FC;font:500 12px -apple-system,BlinkMacSystemFont,"Segoe UI",sans-serif}
    .tiny{fill:#8B949E;font:400 10px -apple-system,BlinkMacSystemFont,"Segoe UI",sans-serif}
    .empty{fill:#8B949E;font:400 13px -apple-system,BlinkMacSystemFont,"Segoe UI",sans-serif}
  </style>
  <rect x=".5" y=".5" width="999" height="633" rx="12" fill="#0D1117" stroke="#30363D"/>
  <g transform="translate(20 17) scale(1.125)" fill="none" stroke="#A371F7" stroke-width="1.5" stroke-linecap="round" stroke-linejoin="round"><path d="M8 1l6 3.2v7.6L8 15l-6-3.2V4.2L8 1zM2.3 4.4L8 7.5l5.7-3.1M8 7.5V15"/></g>
  <text x="48" y="31" class="title">Frameworks &amp; Platforms</text>
  <text x="48" y="49" class="subtitle">Contribution impact in projects where detected · overlapping metrics across 26 repositories</text>
  <circle cx="31" cy="79" r="5" fill="#339933"/>
      <text x="44" y="84" class="small">Node.js</text>
      <text x="206" y="84" class="label">8 repos</text>
      <rect x="281" y="72" width="165" height="8" rx="4" fill="#21262D"/>
      <rect x="281" y="72" width="165.0" height="8" rx="4" fill="#339933"/>
      <text x="44" y="104" class="tiny">467.8K changed lines · 156 commits · 2.3K files touched</text><circle cx="521" cy="79" r="5" fill="#2088FF"/>
      <text x="534" y="84" class="small">GitHub Actions</text>
      <text x="696" y="84" class="label">6 repos</text>
      <rect x="771" y="72" width="165" height="8" rx="4" fill="#21262D"/>
      <rect x="771" y="72" width="161.9" height="8" rx="4" fill="#2088FF"/>
      <text x="534" y="104" class="tiny">466.1K changed lines · 154 commits · 2.2K files touched</text><circle cx="31" cy="137" r="5" fill="#4169E1"/>
      <text x="44" y="142" class="small">PostgreSQL</text>
      <text x="206" y="142" class="label">5 repos</text>
      <rect x="281" y="130" width="165" height="8" rx="4" fill="#21262D"/>
      <rect x="281" y="130" width="158.2" height="8" rx="4" fill="#4169E1"/>
      <text x="44" y="162" class="tiny">422K changed lines · 125 commits · 2.1K files touched</text><circle cx="521" cy="137" r="5" fill="#3ECF8E"/>
      <text x="534" y="142" class="small">Supabase</text>
      <text x="696" y="142" class="label">3 repos</text>
      <rect x="771" y="130" width="165" height="8" rx="4" fill="#21262D"/>
      <rect x="771" y="130" width="152.5" height="8" rx="4" fill="#3ECF8E"/>
      <text x="534" y="162" class="tiny">368.1K changed lines · 146 commits · 1.7K files touched</text><circle cx="31" cy="195" r="5" fill="#38BDF8"/>
      <text x="44" y="200" class="small">TailwindCSS</text>
      <text x="206" y="200" class="label">3 repos</text>
      <rect x="281" y="188" width="165" height="8" rx="4" fill="#21262D"/>
      <rect x="281" y="188" width="152.5" height="8" rx="4" fill="#38BDF8"/>
      <text x="44" y="220" class="tiny">368.1K changed lines · 146 commits · 1.7K files touched</text><circle cx="521" cy="195" r="5" fill="#646CFF"/>
      <text x="534" y="200" class="small">Vite</text>
      <text x="696" y="200" class="label">1 repo</text>
      <rect x="771" y="188" width="165" height="8" rx="4" fill="#21262D"/>
      <rect x="771" y="188" width="142.0" height="8" rx="4" fill="#646CFF"/>
      <text x="534" y="220" class="tiny">322.4K changed lines · 120 commits · 1.5K files touched</text><circle cx="31" cy="253" r="5" fill="#2496ED"/>
      <text x="44" y="258" class="small">Docker</text>
      <text x="206" y="258" class="label">3 repos</text>
      <rect x="281" y="246" width="165" height="8" rx="4" fill="#21262D"/>
      <rect x="281" y="246" width="130.8" height="8" rx="4" fill="#2496ED"/>
      <text x="44" y="278" class="tiny">94.6K changed lines · 15 commits · 549 files touched</text><circle cx="521" cy="253" r="5" fill="#3DDC84"/>
      <text x="534" y="258" class="small">Android</text>
      <text x="696" y="258" class="label">13 repos</text>
      <rect x="771" y="246" width="165" height="8" rx="4" fill="#21262D"/>
      <rect x="771" y="246" width="130.2" height="8" rx="4" fill="#3DDC84"/>
      <text x="534" y="278" class="tiny">15.4K changed lines · 13 commits · 404 files touched</text><circle cx="31" cy="311" r="5" fill="#10A37F"/>
      <text x="44" y="316" class="small">OpenAI</text>
      <text x="206" y="316" class="label">3 repos</text>
      <rect x="281" y="304" width="165" height="8" rx="4" fill="#21262D"/>
      <rect x="281" y="304" width="126.4" height="8" rx="4" fill="#10A37F"/>
      <text x="44" y="336" class="tiny">97.2K changed lines · 4 commits · 591 files touched</text><circle cx="521" cy="311" r="5" fill="#A2AAAD"/>
      <text x="534" y="316" class="small">iOS</text>
      <text x="696" y="316" class="label">9 repos</text>
      <rect x="771" y="304" width="165" height="8" rx="4" fill="#21262D"/>
      <rect x="771" y="304" width="123.5" height="8" rx="4" fill="#A2AAAD"/>
      <text x="534" y="336" class="tiny">11.2K changed lines · 14 commits · 329 files touched</text><circle cx="31" cy="369" r="5" fill="#61DAFB"/>
      <text x="44" y="374" class="small">React</text>
      <text x="206" y="374" class="label">2 repos</text>
      <rect x="281" y="362" width="165" height="8" rx="4" fill="#21262D"/>
      <rect x="281" y="362" width="121.9" height="8" rx="4" fill="#61DAFB"/>
      <text x="44" y="394" class="tiny">45.8K changed lines · 26 commits · 202 files touched</text><circle cx="521" cy="369" r="5" fill="#61DAFB"/>
      <text x="534" y="374" class="small">React Native</text>
      <text x="696" y="374" class="label">2 repos</text>
      <rect x="771" y="362" width="165" height="8" rx="4" fill="#21262D"/>
      <rect x="771" y="362" width="121.9" height="8" rx="4" fill="#61DAFB"/>
      <text x="534" y="394" class="tiny">45.8K changed lines · 26 commits · 202 files touched</text><circle cx="31" cy="427" r="5" fill="#02569B"/>
      <text x="44" y="432" class="small">Flutter</text>
      <text x="206" y="432" class="label">7 repos</text>
      <rect x="281" y="420" width="165" height="8" rx="4" fill="#21262D"/>
      <rect x="281" y="420" width="115.2" height="8" rx="4" fill="#02569B"/>
      <text x="44" y="452" class="tiny">7.8K changed lines · 7 commits · 301 files touched</text><circle cx="521" cy="427" r="5" fill="#4285F4"/>
      <text x="534" y="432" class="small">Jetpack Compose</text>
      <text x="696" y="432" class="label">3 repos</text>
      <rect x="771" y="420" width="165" height="8" rx="4" fill="#21262D"/>
      <rect x="771" y="420" width="108.5" height="8" rx="4" fill="#4285F4"/>
      <text x="534" y="452" class="tiny">9K changed lines · 8 commits · 302 files touched</text><circle cx="31" cy="485" r="5" fill="#00AFAA"/>
      <text x="44" y="490" class="small">HERE SDK</text>
      <text x="206" y="490" class="label">2 repos</text>
      <rect x="281" y="478" width="165" height="8" rx="4" fill="#21262D"/>
      <rect x="281" y="478" width="95.5" height="8" rx="4" fill="#00AFAA"/>
      <text x="44" y="510" class="tiny">4K changed lines · 4 commits · 216 files touched</text><circle cx="521" cy="485" r="5" fill="#F0F6FC"/>
      <text x="534" y="490" class="small">Express</text>
      <text x="696" y="490" class="label">1 repo</text>
      <rect x="771" y="478" width="165" height="8" rx="4" fill="#21262D"/>
      <rect x="771" y="478" width="8.4" height="8" rx="4" fill="#F0F6FC"/>
      <text x="534" y="510" class="tiny">0 changed lines · 0 commits · 0 files touched</text><circle cx="31" cy="543" r="5" fill="#FFCA28"/>
      <text x="44" y="548" class="small">Firebase</text>
      <text x="206" y="548" class="label">1 repo</text>
      <rect x="281" y="536" width="165" height="8" rx="4" fill="#21262D"/>
      <rect x="281" y="536" width="8.4" height="8" rx="4" fill="#FFCA28"/>
      <text x="44" y="568" class="tiny">0 changed lines · 0 commits · 0 files touched</text>
</svg>