<svg xmlns="http://www.w3.org/2000/svg" width="1000" height="518" viewBox="0 0 1000 518" role="img" aria-label="Frameworks &amp; Platforms">
  <style>
    .title{fill:#58A6FF;font:600 18px -apple-system,BlinkMacSystemFont,"Segoe UI",sans-serif}
    .subtitle{fill:#8B949E;font:400 11px -apple-system,BlinkMacSystemFont,"Segoe UI",sans-serif}
    .label{fill:#8B949E;font:400 12px -apple-system,BlinkMacSystemFont,"Segoe UI",sans-serif}
    .value{fill:#F0F6FC;font:600 18px -apple-system,BlinkMacSystemFont,"Segoe UI",sans-serif}
    .small{fill:#F0F6FC;font:500 12px -apple-system,BlinkMacSystemFont,"Segoe UI",sans-serif}
    .tiny{fill:#8B949E;font:400 10px -apple-system,BlinkMacSystemFont,"Segoe UI",sans-serif}
    .empty{fill:#8B949E;font:400 13px -apple-system,BlinkMacSystemFont,"Segoe UI",sans-serif}
  </style>
  <rect x=".5" y=".5" width="999" height="517" rx="12" fill="#0D1117" stroke="#30363D"/>
  <g transform="translate(20 17) scale(1.125)" fill="none" stroke="#A371F7" stroke-width="1.5" stroke-linecap="round" stroke-linejoin="round"><path d="M8 1l6 3.2v7.6L8 15l-6-3.2V4.2L8 1zM2.3 4.4L8 7.5l5.7-3.1M8 7.5V15"/></g>
  <text x="48" y="31" class="title">Frameworks &amp; Platforms</text>
  <text x="48" y="49" class="subtitle">Contribution impact in projects where detected · overlapping metrics across 22 repositories</text>
  <circle cx="31" cy="79" r="5" fill="#339933"/>
      <text x="44" y="84" class="small">Node.js</text>
      <text x="206" y="84" class="label">7 repos</text>
      <rect x="281" y="72" width="165" height="8" rx="4" fill="#21262D"/>
      <rect x="281" y="72" width="165.0" height="8" rx="4" fill="#339933"/>
      <text x="44" y="104" class="tiny">373.2K changed lines · 155 commits · 1.7K files touched</text><circle cx="521" cy="79" r="5" fill="#2088FF"/>
      <text x="534" y="84" class="small">GitHub Actions</text>
      <text x="696" y="84" class="label">4 repos</text>
      <rect x="771" y="72" width="165" height="8" rx="4" fill="#21262D"/>
      <rect x="771" y="72" width="164.9" height="8" rx="4" fill="#2088FF"/>
      <text x="534" y="104" class="tiny">371.5K changed lines · 153 commits · 1.7K files touched</text><circle cx="31" cy="137" r="5" fill="#61DAFB"/>
      <text x="44" y="142" class="small">React</text>
      <text x="206" y="142" class="label">3 repos</text>
      <rect x="281" y="130" width="165" height="8" rx="4" fill="#21262D"/>
      <rect x="281" y="130" width="164.5" height="8" rx="4" fill="#61DAFB"/>
      <text x="44" y="162" class="tiny">368.1K changed lines · 146 commits · 1.7K files touched</text><circle cx="521" cy="137" r="5" fill="#3ECF8E"/>
      <text x="534" y="142" class="small">Supabase</text>
      <text x="696" y="142" class="label">3 repos</text>
      <rect x="771" y="130" width="165" height="8" rx="4" fill="#21262D"/>
      <rect x="771" y="130" width="164.5" height="8" rx="4" fill="#3ECF8E"/>
      <text x="534" y="162" class="tiny">368.1K changed lines · 146 commits · 1.7K files touched</text><circle cx="31" cy="195" r="5" fill="#38BDF8"/>
      <text x="44" y="200" class="small">TailwindCSS</text>
      <text x="206" y="200" class="label">3 repos</text>
      <rect x="281" y="188" width="165" height="8" rx="4" fill="#21262D"/>
      <rect x="281" y="188" width="164.5" height="8" rx="4" fill="#38BDF8"/>
      <text x="44" y="220" class="tiny">368.1K changed lines · 146 commits · 1.7K files touched</text><circle cx="521" cy="195" r="5" fill="#646CFF"/>
      <text x="534" y="200" class="small">Vite</text>
      <text x="696" y="200" class="label">1 repo</text>
      <rect x="771" y="188" width="165" height="8" rx="4" fill="#21262D"/>
      <rect x="771" y="188" width="161.9" height="8" rx="4" fill="#646CFF"/>
      <text x="534" y="220" class="tiny">322.4K changed lines · 120 commits · 1.5K files touched</text><circle cx="31" cy="253" r="5" fill="#61DAFB"/>
      <text x="44" y="258" class="small">React Native</text>
      <text x="206" y="258" class="label">2 repos</text>
      <rect x="281" y="246" width="165" height="8" rx="4" fill="#21262D"/>
      <rect x="281" y="246" width="130.9" height="8" rx="4" fill="#61DAFB"/>
      <text x="44" y="278" class="tiny">45.8K changed lines · 26 commits · 202 files touched</text><circle cx="521" cy="253" r="5" fill="#3DDC84"/>
      <text x="534" y="258" class="small">Android</text>
      <text x="696" y="258" class="label">10 repos</text>
      <rect x="771" y="246" width="165" height="8" rx="4" fill="#21262D"/>
      <rect x="771" y="246" width="112.7" height="8" rx="4" fill="#3DDC84"/>
      <text x="534" y="278" class="tiny">11.4K changed lines · 9 commits · 188 files touched</text><circle cx="31" cy="311" r="5" fill="#4285F4"/>
      <text x="44" y="316" class="small">Jetpack Compose</text>
      <text x="206" y="316" class="label">2 repos</text>
      <rect x="281" y="304" width="165" height="8" rx="4" fill="#21262D"/>
      <rect x="281" y="304" width="99.5" height="8" rx="4" fill="#4285F4"/>
      <text x="44" y="336" class="tiny">5.1K changed lines · 4 commits · 86 files touched</text><circle cx="521" cy="311" r="5" fill="#02569B"/>
      <text x="534" y="316" class="small">Flutter</text>
      <text x="696" y="316" class="label">5 repos</text>
      <rect x="771" y="304" width="165" height="8" rx="4" fill="#21262D"/>
      <rect x="771" y="304" width="95.7" height="8" rx="4" fill="#02569B"/>
      <text x="534" y="336" class="tiny">3.8K changed lines · 3 commits · 85 files touched</text><circle cx="31" cy="369" r="5" fill="#2496ED"/>
      <text x="44" y="374" class="small">Docker</text>
      <text x="206" y="374" class="label">2 repos</text>
      <rect x="281" y="362" width="165" height="8" rx="4" fill="#21262D"/>
      <rect x="281" y="362" width="53.1" height="8" rx="4" fill="#2496ED"/>
      <text x="44" y="394" class="tiny">48 changed lines · 14 commits · 2 files touched</text><circle cx="521" cy="369" r="5" fill="#F0F6FC"/>
      <text x="534" y="374" class="small">Express</text>
      <text x="696" y="374" class="label">1 repo</text>
      <rect x="771" y="362" width="165" height="8" rx="4" fill="#21262D"/>
      <rect x="771" y="362" width="0.0" height="8" rx="4" fill="#F0F6FC"/>
      <text x="534" y="394" class="tiny">0 changed lines · 0 commits · 0 files touched</text><circle cx="31" cy="427" r="5" fill="#FFCA28"/>
      <text x="44" y="432" class="small">Firebase</text>
      <text x="206" y="432" class="label">1 repo</text>
      <rect x="281" y="420" width="165" height="8" rx="4" fill="#21262D"/>
      <rect x="281" y="420" width="0.0" height="8" rx="4" fill="#FFCA28"/>
      <text x="44" y="452" class="tiny">0 changed lines · 0 commits · 0 files touched</text><circle cx="521" cy="427" r="5" fill="#4169E1"/>
      <text x="534" y="432" class="small">PostgreSQL</text>
      <text x="696" y="432" class="label">1 repo</text>
      <rect x="771" y="420" width="165" height="8" rx="4" fill="#21262D"/>
      <rect x="771" y="420" width="0.0" height="8" rx="4" fill="#4169E1"/>
      <text x="534" y="452" class="tiny">0 changed lines · 0 commits · 0 files touched</text>
</svg>