<svg xmlns="http://www.w3.org/2000/svg" width="900" height="310" viewBox="0 0 900 310" role="img" aria-label="Frameworks &amp; Platforms">
  <style>
    .title{fill:#58A6FF;font:600 18px -apple-system,BlinkMacSystemFont,"Segoe UI",sans-serif}
    .subtitle{fill:#8B949E;font:400 11px -apple-system,BlinkMacSystemFont,"Segoe UI",sans-serif}
    .label{fill:#8B949E;font:400 12px -apple-system,BlinkMacSystemFont,"Segoe UI",sans-serif}
    .value{fill:#F0F6FC;font:600 18px -apple-system,BlinkMacSystemFont,"Segoe UI",sans-serif}
    .small{fill:#F0F6FC;font:500 12px -apple-system,BlinkMacSystemFont,"Segoe UI",sans-serif}
    .tiny{fill:#8B949E;font:400 10px -apple-system,BlinkMacSystemFont,"Segoe UI",sans-serif}
    .empty{fill:#8B949E;font:400 13px -apple-system,BlinkMacSystemFont,"Segoe UI",sans-serif}
  </style>
  <rect x=".5" y=".5" width="899" height="309" rx="12" fill="#0D1117" stroke="#30363D"/>
  <g transform="translate(20 17) scale(1.125)" fill="none" stroke="#A371F7" stroke-width="1.5" stroke-linecap="round" stroke-linejoin="round"><path d="M8 1l6 3.2v7.6L8 15l-6-3.2V4.2L8 1zM2.3 4.4L8 7.5l5.7-3.1M8 7.5V15"/></g>
  <text x="48" y="31" class="title">Frameworks &amp; Platforms</text>
  <text x="48" y="49" class="subtitle">Repository count where detected · manifests and project structure across 22 repositories</text>
  <circle cx="29" cy="77" r="5" fill="#3DDC84"/>
      <text x="42" y="82" class="small">Android</text>
      <rect x="164" y="70" width="118" height="7" rx="3.5" fill="#21262D"/>
      <rect x="164" y="70" width="118.0" height="7" rx="3.5" fill="#3DDC84"/>
      <text x="294" y="82" text-anchor="end" class="tiny">10</text><circle cx="321" cy="77" r="5" fill="#339933"/>
      <text x="334" y="82" class="small">Node.js</text>
      <rect x="456" y="70" width="118" height="7" rx="3.5" fill="#21262D"/>
      <rect x="456" y="70" width="82.6" height="7" rx="3.5" fill="#339933"/>
      <text x="586" y="82" text-anchor="end" class="tiny">7</text><circle cx="613" cy="77" r="5" fill="#02569B"/>
      <text x="626" y="82" class="small">Flutter</text>
      <rect x="748" y="70" width="118" height="7" rx="3.5" fill="#21262D"/>
      <rect x="748" y="70" width="59.0" height="7" rx="3.5" fill="#02569B"/>
      <text x="878" y="82" text-anchor="end" class="tiny">5</text><circle cx="29" cy="119" r="5" fill="#2088FF"/>
      <text x="42" y="124" class="small">GitHub Actions</text>
      <rect x="164" y="112" width="118" height="7" rx="3.5" fill="#21262D"/>
      <rect x="164" y="112" width="47.2" height="7" rx="3.5" fill="#2088FF"/>
      <text x="294" y="124" text-anchor="end" class="tiny">4</text><circle cx="321" cy="119" r="5" fill="#61DAFB"/>
      <text x="334" y="124" class="small">React</text>
      <rect x="456" y="112" width="118" height="7" rx="3.5" fill="#21262D"/>
      <rect x="456" y="112" width="35.4" height="7" rx="3.5" fill="#61DAFB"/>
      <text x="586" y="124" text-anchor="end" class="tiny">3</text><circle cx="613" cy="119" r="5" fill="#3ECF8E"/>
      <text x="626" y="124" class="small">Supabase</text>
      <rect x="748" y="112" width="118" height="7" rx="3.5" fill="#21262D"/>
      <rect x="748" y="112" width="35.4" height="7" rx="3.5" fill="#3ECF8E"/>
      <text x="878" y="124" text-anchor="end" class="tiny">3</text><circle cx="29" cy="161" r="5" fill="#38BDF8"/>
      <text x="42" y="166" class="small">TailwindCSS</text>
      <rect x="164" y="154" width="118" height="7" rx="3.5" fill="#21262D"/>
      <rect x="164" y="154" width="35.4" height="7" rx="3.5" fill="#38BDF8"/>
      <text x="294" y="166" text-anchor="end" class="tiny">3</text><circle cx="321" cy="161" r="5" fill="#2496ED"/>
      <text x="334" y="166" class="small">Docker</text>
      <rect x="456" y="154" width="118" height="7" rx="3.5" fill="#21262D"/>
      <rect x="456" y="154" width="23.6" height="7" rx="3.5" fill="#2496ED"/>
      <text x="586" y="166" text-anchor="end" class="tiny">2</text><circle cx="613" cy="161" r="5" fill="#4285F4"/>
      <text x="626" y="166" class="small">Jetpack Compose</text>
      <rect x="748" y="154" width="118" height="7" rx="3.5" fill="#21262D"/>
      <rect x="748" y="154" width="23.6" height="7" rx="3.5" fill="#4285F4"/>
      <text x="878" y="166" text-anchor="end" class="tiny">2</text><circle cx="29" cy="203" r="5" fill="#61DAFB"/>
      <text x="42" y="208" class="small">React Native</text>
      <rect x="164" y="196" width="118" height="7" rx="3.5" fill="#21262D"/>
      <rect x="164" y="196" width="23.6" height="7" rx="3.5" fill="#61DAFB"/>
      <text x="294" y="208" text-anchor="end" class="tiny">2</text><circle cx="321" cy="203" r="5" fill="#F0F6FC"/>
      <text x="334" y="208" class="small">Express</text>
      <rect x="456" y="196" width="118" height="7" rx="3.5" fill="#21262D"/>
      <rect x="456" y="196" width="11.8" height="7" rx="3.5" fill="#F0F6FC"/>
      <text x="586" y="208" text-anchor="end" class="tiny">1</text><circle cx="613" cy="203" r="5" fill="#FFCA28"/>
      <text x="626" y="208" class="small">Firebase</text>
      <rect x="748" y="196" width="118" height="7" rx="3.5" fill="#21262D"/>
      <rect x="748" y="196" width="11.8" height="7" rx="3.5" fill="#FFCA28"/>
      <text x="878" y="208" text-anchor="end" class="tiny">1</text><circle cx="29" cy="245" r="5" fill="#4169E1"/>
      <text x="42" y="250" class="small">PostgreSQL</text>
      <rect x="164" y="238" width="118" height="7" rx="3.5" fill="#21262D"/>
      <rect x="164" y="238" width="11.8" height="7" rx="3.5" fill="#4169E1"/>
      <text x="294" y="250" text-anchor="end" class="tiny">1</text><circle cx="321" cy="245" r="5" fill="#646CFF"/>
      <text x="334" y="250" class="small">Vite</text>
      <rect x="456" y="238" width="118" height="7" rx="3.5" fill="#21262D"/>
      <rect x="456" y="238" width="11.8" height="7" rx="3.5" fill="#646CFF"/>
      <text x="586" y="250" text-anchor="end" class="tiny">1</text>
</svg>