<svg xmlns="http://www.w3.org/2000/svg" width="560" height="280" viewBox="0 0 560 280" role="img" aria-label="GitHub Overview">
  <style>
    .title{fill:#58A6FF;font:600 18px -apple-system,BlinkMacSystemFont,"Segoe UI",sans-serif}
    .subtitle{fill:#8B949E;font:400 11px -apple-system,BlinkMacSystemFont,"Segoe UI",sans-serif}
    .label{fill:#8B949E;font:400 12px -apple-system,BlinkMacSystemFont,"Segoe UI",sans-serif}
    .value{fill:#F0F6FC;font:600 18px -apple-system,BlinkMacSystemFont,"Segoe UI",sans-serif}
    .small{fill:#F0F6FC;font:500 12px -apple-system,BlinkMacSystemFont,"Segoe UI",sans-serif}
    .tiny{fill:#8B949E;font:400 10px -apple-system,BlinkMacSystemFont,"Segoe UI",sans-serif}
    .empty{fill:#8B949E;font:400 13px -apple-system,BlinkMacSystemFont,"Segoe UI",sans-serif}
  </style>
  <rect x=".5" y=".5" width="559" height="279" rx="12" fill="#0D1117" stroke="#30363D"/>
  <g transform="translate(20 17) scale(1.125)" fill="none" stroke="#D29922" stroke-width="1.5" stroke-linecap="round" stroke-linejoin="round"><path d="M8 1.2l2.05 4.15 4.58.67-3.31 3.23.78 4.56L8 11.65l-4.1 2.16.78-4.56L1.37 6.02l4.58-.67L8 1.2z"/></g>
  <text x="48" y="31" class="title">GitHub Overview</text>
  <text x="48" y="49" class="subtitle">Public + token-accessible private engineering activity</text>
  <g transform="translate(20 65) scale(1)" fill="none" stroke="#58A6FF" stroke-width="1.5" stroke-linecap="round" stroke-linejoin="round"><path d="M2 2.5A1.5 1.5 0 0 1 3.5 1H14v12H4a2 2 0 0 0-2 2V2.5z"/><path d="M4 13h10M5 4h6"/></g>
      <text x="46" y="78" class="value">22</text>
      <text x="46" y="96" class="label">Token-accessible repositories</text><g transform="translate(280 65) scale(1)" fill="none" stroke="#D29922" stroke-width="1.5" stroke-linecap="round" stroke-linejoin="round"><path d="M8 1.2l2.05 4.15 4.58.67-3.31 3.23.78 4.56L8 11.65l-4.1 2.16.78-4.56L1.37 6.02l4.58-.67L8 1.2z"/></g>
      <text x="306" y="78" class="value">2</text>
      <text x="306" y="96" class="label">Stars received · current</text><g transform="translate(20 127) scale(1)" fill="none" stroke="#3FB950" stroke-width="1.5" stroke-linecap="round" stroke-linejoin="round"><path d="M1 8h3l2-5 4 10 2-5h3"/></g>
      <text x="46" y="140" class="value">206</text>
      <text x="46" y="158" class="label">Contributions · last 12 months</text><g transform="translate(280 127) scale(1)" fill="none" stroke="#39C5CF" stroke-width="1.5" stroke-linecap="round" stroke-linejoin="round"><circle cx="8" cy="8" r="2.5"/><path d="M0 8h5.5M10.5 8H16"/></g>
      <text x="306" y="140" class="value">95</text>
      <text x="306" y="158" class="label">Commit contributions · all time</text><g transform="translate(20 189) scale(1)" fill="none" stroke="#A371F7" stroke-width="1.5" stroke-linecap="round" stroke-linejoin="round"><circle cx="4" cy="3" r="2"/><circle cx="12" cy="13" r="2"/><path d="M4 5v6a2 2 0 0 0 2 2h4M10 3h2a2 2 0 0 1 2 2v4M12 7l2 2 2-2"/></g>
      <text x="46" y="202" class="value">62</text>
      <text x="46" y="220" class="label">Pull requests opened · all time</text><g transform="translate(280 189) scale(1)" fill="none" stroke="#DB61A2" stroke-width="1.5" stroke-linecap="round" stroke-linejoin="round"><circle cx="6" cy="5" r="2.5"/><circle cx="12" cy="6" r="2"/><path d="M1.5 14c.3-3 2-4.5 4.5-4.5S10.2 11 10.5 14M10 10c2.6 0 4 1.2 4.5 4"/></g>
      <text x="306" y="202" class="value">9</text>
      <text x="306" y="220" class="label">Followers · current</text>
</svg>