<svg xmlns="http://www.w3.org/2000/svg" width="900" height="320" viewBox="0 0 900 320" role="img" aria-label="GitHub Engineering Trophies">
  <style>
    .title{fill:#58A6FF;font:600 18px -apple-system,BlinkMacSystemFont,"Segoe UI",sans-serif}
    .subtitle{fill:#8B949E;font:400 11px -apple-system,BlinkMacSystemFont,"Segoe UI",sans-serif}
    .label{fill:#8B949E;font:400 12px -apple-system,BlinkMacSystemFont,"Segoe UI",sans-serif}
    .value{fill:#F0F6FC;font:600 18px -apple-system,BlinkMacSystemFont,"Segoe UI",sans-serif}
    .small{fill:#F0F6FC;font:500 12px -apple-system,BlinkMacSystemFont,"Segoe UI",sans-serif}
    .tiny{fill:#8B949E;font:400 10px -apple-system,BlinkMacSystemFont,"Segoe UI",sans-serif}
    .empty{fill:#8B949E;font:400 13px -apple-system,BlinkMacSystemFont,"Segoe UI",sans-serif}
  </style>
  <rect x=".5" y=".5" width="899" height="319" rx="12" fill="#0D1117" stroke="#30363D"/>
  <g transform="translate(20 17) scale(1.125)" fill="none" stroke="#D29922" stroke-width="1.5" stroke-linecap="round" stroke-linejoin="round"><path d="M5 2h6v3a3 3 0 0 1-6 0V2zM6 10h4M8 8v5M5 14h6M3 3H1v1a3 3 0 0 0 3 3M13 3h2v1a3 3 0 0 1-3 3"/></g>
  <text x="48" y="31" class="title">GitHub Engineering Trophies</text>
  <text x="48" y="49" class="subtitle">Custom Bronze, Silver, Gold and Platinum milestones derived from verified GitHub analytics · not GitHub-issued achievements</text>
  <rect x="22" y="70" width="206" height="94" rx="10" fill="#21262D" stroke="#30363D"/>
      <g transform="translate(38 86) scale(1.375)" fill="none" stroke="#CD7F32" stroke-width="1.5" stroke-linecap="round" stroke-linejoin="round"><circle cx="8" cy="8" r="2.5"/><path d="M0 8h5.5M10.5 8H16"/></g>
      <text x="72" y="101" class="small">Commit Builder</text>
      <text x="38" y="131" class="value" style="fill:#CD7F32">Bronze · 104</text>
      <text x="38" y="150" class="tiny">Milestone-based GitHub analytics</text><rect x="240" y="70" width="206" height="94" rx="10" fill="#21262D" stroke="#30363D"/>
      <g transform="translate(256 86) scale(1.375)" fill="none" stroke="#C0C0C0" stroke-width="1.5" stroke-linecap="round" stroke-linejoin="round"><circle cx="4" cy="3" r="2"/><circle cx="12" cy="13" r="2"/><path d="M4 5v6a2 2 0 0 0 2 2h4M10 3h2a2 2 0 0 1 2 2v4M12 7l2 2 2-2"/></g>
      <text x="290" y="101" class="small">Pull Shark</text>
      <text x="256" y="131" class="value" style="fill:#C0C0C0">Silver · 62</text>
      <text x="256" y="150" class="tiny">Milestone-based GitHub analytics</text><rect x="458" y="70" width="206" height="94" rx="10" fill="#21262D" stroke="#30363D"/>
      <g transform="translate(474 86) scale(1.375)" fill="none" stroke="#8B949E" stroke-width="1.5" stroke-linecap="round" stroke-linejoin="round"><circle cx="6" cy="5" r="2.5"/><circle cx="12" cy="6" r="2"/><path d="M1.5 14c.3-3 2-4.5 4.5-4.5S10.2 11 10.5 14M10 10c2.6 0 4 1.2 4.5 4"/></g>
      <text x="508" y="101" class="small">Code Reviewer</text>
      <text x="474" y="131" class="value" style="fill:#8B949E">0 / 10</text>
      <text x="474" y="150" class="tiny">Milestone-based GitHub analytics</text><rect x="676" y="70" width="206" height="94" rx="10" fill="#21262D" stroke="#30363D"/>
      <g transform="translate(692 86) scale(1.375)" fill="none" stroke="#D29922" stroke-width="1.5" stroke-linecap="round" stroke-linejoin="round"><path d="M6 3L1 8l5 5M10 3l5 5-5 5"/></g>
      <text x="726" y="101" class="small">Polyglot</text>
      <text x="692" y="131" class="value" style="fill:#D29922">Gold · 15</text>
      <text x="692" y="150" class="tiny">Milestone-based GitHub analytics</text><rect x="22" y="182" width="206" height="94" rx="10" fill="#21262D" stroke="#30363D"/>
      <g transform="translate(38 198) scale(1.375)" fill="none" stroke="#D29922" stroke-width="1.5" stroke-linecap="round" stroke-linejoin="round"><path d="M8 1l7 4-7 4-7-4 7-4zM1 8l7 4 7-4M1 11l7 4 7-4"/></g>
      <text x="72" y="213" class="small">Stack Architect</text>
      <text x="38" y="243" class="value" style="fill:#D29922">Gold · 17</text>
      <text x="38" y="262" class="tiny">Milestone-based GitHub analytics</text><rect x="240" y="182" width="206" height="94" rx="10" fill="#21262D" stroke="#30363D"/>
      <g transform="translate(256 198) scale(1.375)" fill="none" stroke="#D29922" stroke-width="1.5" stroke-linecap="round" stroke-linejoin="round"><path d="M2 2.5A1.5 1.5 0 0 1 3.5 1H14v12H4a2 2 0 0 0-2 2V2.5z"/><path d="M4 13h10M5 4h6"/></g>
      <text x="290" y="213" class="small">Repository Builder</text>
      <text x="256" y="243" class="value" style="fill:#D29922">Gold · 23</text>
      <text x="256" y="262" class="tiny">Milestone-based GitHub analytics</text><rect x="458" y="182" width="206" height="94" rx="10" fill="#21262D" stroke="#30363D"/>
      <g transform="translate(474 198) scale(1.375)" fill="none" stroke="#CD7F32" stroke-width="1.5" stroke-linecap="round" stroke-linejoin="round"><path d="M8.2 1.2c.8 2.9-.6 4.1-1.5 5.2-.8 1-.7 2.2.2 2.8-.1-1.4.8-2.1 1.7-3 .8 1.3 2.5 2.5 2.5 4.8A3.1 3.1 0 0 1 8 14.2 4.7 4.7 0 0 1 3.3 9.5c0-3.2 2.1-5.5 4.9-8.3z"/></g>
      <text x="508" y="213" class="small">Streak Keeper</text>
      <text x="474" y="243" class="value" style="fill:#CD7F32">Bronze · 9</text>
      <text x="474" y="262" class="tiny">Milestone-based GitHub analytics</text><rect x="676" y="182" width="206" height="94" rx="10" fill="#21262D" stroke="#30363D"/>
      <g transform="translate(692 198) scale(1.375)" fill="none" stroke="#D29922" stroke-width="1.5" stroke-linecap="round" stroke-linejoin="round"><circle cx="4" cy="3" r="2"/><circle cx="4" cy="13" r="2"/><circle cx="12" cy="8" r="2"/><path d="M4 5v6M6 4c4 0 4 4 4 4"/></g>
      <text x="726" y="213" class="small">Open Source Contributor</text>
      <text x="692" y="243" class="value" style="fill:#D29922">Gold · 3</text>
      <text x="692" y="262" class="tiny">Milestone-based GitHub analytics</text>
</svg>