<svg xmlns="http://www.w3.org/2000/svg" width="760" height="360" viewBox="0 0 760 360" role="img" aria-labelledby="github-overview-title github-overview-description">
  <title id="github-overview-title">GitHub Overview</title>
  <desc id="github-overview-description">Repository scale, rolling contribution delivery, collaboration reach, and engineering quality metrics.</desc>
  <style>text{font-family:-apple-system,BlinkMacSystemFont,"Segoe UI",sans-serif}</style>
  <defs>
    <linearGradient id="overview-flow" x1="0" x2="1"><stop stop-color="#58A6FF"/><stop offset=".5" stop-color="#3FB950"/><stop offset="1" stop-color="#A371F7"/></linearGradient>
    <radialGradient id="overview-core"><stop stop-color="#19314A"/><stop offset=".62" stop-color="#111923"/><stop offset="1" stop-color="#0D1117"/></radialGradient>
    <linearGradient id="overview-quality" x1="0" x2="1"><stop stop-color="#39C5CF"/><stop offset="1" stop-color="#3FB950"/></linearGradient>
    <filter id="overview-glow" x="-50%" y="-50%" width="200%" height="200%"><feGaussianBlur stdDeviation="7"/></filter></defs>
  <rect x=".5" y=".5" width="759" height="359" rx="2" fill="#0D1117" stroke="#30363D"/>
  <g transform="translate(22 20) scale(1.125)" fill="none" stroke="#D29922" stroke-width="1.5" stroke-linecap="round" stroke-linejoin="round"><path d="M8 1.2l2.05 4.15 4.58.67-3.31 3.23.78 4.56L8 11.65l-4.1 2.16.78-4.56L1.37 6.02l4.58-.67L8 1.2z"/></g><text x="54" y="36" fill="#F0F6FC" font-size="19" font-weight="700" text-anchor="start">GitHub Overview</text><text x="54" y="55" fill="#8B949E" font-size="11" font-weight="400" text-anchor="start">From repository scale to sustained delivery and engineering quality</text><circle cx="570" cy="31" r="3" fill="#3FB950"/><text x="732" y="34" fill="#8B949E" font-size="7.5" font-weight="700" text-anchor="end" letter-spacing=".5">PRIVATE + PUBLIC · DAILY</text><line x1="22" y1="68" x2="738" y2="68" stroke="#30363D" stroke-width="1"/><text x="28" y="90" fill="#58A6FF" font-size="8.1" font-weight="750" text-anchor="start" letter-spacing="1.05">REPOSITORY BASE</text><g transform="translate(30 101) scale(1.3)" fill="none" stroke="#58A6FF" stroke-width="1.5" stroke-linecap="round" stroke-linejoin="round"><path d="M2 2.5A1.5 1.5 0 0 1 3.5 1H14v12H4a2 2 0 0 0-2 2V2.5z"/><path d="M4 13h10M5 4h6"/></g><text x="64" y="120" fill="#F0F6FC" font-size="20" font-weight="780" text-anchor="start">27</text><text x="64" y="137" fill="#D0D7DE" font-size="9.2" font-weight="600" text-anchor="start"><tspan>Verified repositories</tspan><tspan fill="#8B949E" font-weight="500"></tspan></text><line x1="28" y1="149" x2="205" y2="149" stroke="#202730" stroke-width="1"/><g transform="translate(30 153) scale(1.3)" fill="none" stroke="#58A6FF" stroke-width="1.5" stroke-linecap="round" stroke-linejoin="round"><path d="M1 8h3l2-5 4 10 2-5h3"/></g><text x="64" y="172" fill="#F0F6FC" font-size="20" font-weight="780" text-anchor="start">12</text><text x="64" y="189" fill="#D0D7DE" font-size="9.2" font-weight="600" text-anchor="start"><tspan>Active repositories</tspan><tspan fill="#8B949E" font-weight="500"> · 90d</tspan></text><line x1="28" y1="201" x2="205" y2="201" stroke="#202730" stroke-width="1"/><g transform="translate(30 205) scale(1.3)" fill="none" stroke="#58A6FF" stroke-width="1.5" stroke-linecap="round" stroke-linejoin="round"><rect x="2" y="3" width="12" height="11" rx="2"/><path d="M5 1v4M11 1v4M2 7h12"/></g><text x="64" y="224" fill="#F0F6FC" font-size="20" font-weight="780" text-anchor="start">8y 4m</text><text x="64" y="241" fill="#D0D7DE" font-size="9.2" font-weight="600" text-anchor="start"><tspan>Contribution tenure</tspan><tspan fill="#8B949E" font-weight="500"></tspan></text><path d="M211 177 C254 177 265 160 307 160" fill="none" stroke="#58A6FF" stroke-opacity=".4" stroke-width="2"/><path d="M453 160 C495 160 506 177 548 177" fill="none" stroke="#A371F7" stroke-opacity=".4" stroke-width="2"/><circle cx="380" cy="169" r="68" fill="#58A6FF" opacity=".08" filter="url(#overview-glow)"/><circle cx="380" cy="169" r="62" fill="url(#overview-core)" stroke="url(#overview-flow)" stroke-width="2"/><circle cx="380" cy="169" r="52" fill="none" stroke="#303D4D" stroke-dasharray="2 7"/><g transform="translate(318 134) scale(1.3)" fill="none" stroke="#3FB950" stroke-width="1.5" stroke-linecap="round" stroke-linejoin="round"><path d="M1 8h3l2-5 4 10 2-5h3"/></g><text x="350" y="162" fill="#F0F6FC" font-size="34" font-weight="820" text-anchor="start">232</text><text x="380" y="183" fill="#3FB950" font-size="8.6" font-weight="780" text-anchor="middle" letter-spacing=".75">CONTRIBUTIONS</text><text x="380" y="200" fill="#B1BAC4" font-size="7.7" font-weight="650" text-anchor="middle" letter-spacing=".45">ROLLING 12 MONTHS</text><circle cx="307" cy="160" r="4" fill="#58A6FF"/><circle cx="453" cy="160" r="4" fill="#A371F7"/><g transform="translate(284 72) scale(1.3)" fill="none" stroke="#39C5CF" stroke-width="1.5" stroke-linecap="round" stroke-linejoin="round"><circle cx="8" cy="8" r="2.5"/><path d="M0 8h5.5M10.5 8H16"/></g><text x="318" y="91" fill="#39C5CF" font-size="17" font-weight="780" text-anchor="start">119</text><text x="380" y="107" fill="#D0D7DE" font-size="7.8" font-weight="600" text-anchor="middle" letter-spacing=".25"><tspan>COMMIT CONTRIBUTIONS</tspan><tspan fill="#8B949E" font-weight="500"> · ALL TIME</tspan></text><g transform="translate(331 235) scale(1.3)" fill="none" stroke="#3FB950" stroke-width="1.5" stroke-linecap="round" stroke-linejoin="round"><circle cx="4" cy="3" r="2"/><circle cx="12" cy="13" r="2"/><path d="M4 5v6a2 2 0 0 0 2 2h4M10 3h2a2 2 0 0 1 2 2v4M12 7l2 2 2-2"/></g><text x="365" y="254" fill="#3FB950" font-size="17" font-weight="780" text-anchor="start">55</text><text x="380" y="271" fill="#D0D7DE" font-size="7.9" font-weight="600" text-anchor="middle" letter-spacing=".35"><tspan>MERGED PRS</tspan><tspan fill="#8B949E" font-weight="500"> · ALL TIME</tspan></text><line x1="380" y1="232" x2="380" y2="238" stroke="#3FB950" stroke-width="1" stroke-opacity=".45"/><text x="552" y="90" fill="#A371F7" font-size="8.1" font-weight="750" text-anchor="start" letter-spacing=".75">COLLABORATION REACH</text><g transform="translate(554 101) scale(1.3)" fill="none" stroke="#A371F7" stroke-width="1.5" stroke-linecap="round" stroke-linejoin="round"><circle cx="4" cy="3" r="2"/><circle cx="4" cy="13" r="2"/><circle cx="12" cy="8" r="2"/><path d="M4 5v6M6 4c4 0 4 4 4 4"/></g><text x="588" y="120" fill="#F0F6FC" font-size="20" font-weight="780" text-anchor="start">4</text><text x="588" y="137" fill="#D0D7DE" font-size="9.2" font-weight="600" text-anchor="start"><tspan>Public contribution repos</tspan><tspan fill="#8B949E" font-weight="500"></tspan></text><line x1="552" y1="149" x2="732" y2="149" stroke="#202730" stroke-width="1"/><g transform="translate(554 153) scale(1.3)" fill="none" stroke="#A371F7" stroke-width="1.5" stroke-linecap="round" stroke-linejoin="round"><circle cx="6" cy="5" r="2.5"/><circle cx="12" cy="6" r="2"/><path d="M1.5 14c.3-3 2-4.5 4.5-4.5S10.2 11 10.5 14M10 10c2.6 0 4 1.2 4.5 4"/></g><text x="588" y="172" fill="#F0F6FC" font-size="20" font-weight="780" text-anchor="start">1</text><text x="588" y="189" fill="#D0D7DE" font-size="9.2" font-weight="600" text-anchor="start"><tspan>Public organizations</tspan><tspan fill="#8B949E" font-weight="500"></tspan></text><line x1="552" y1="201" x2="732" y2="201" stroke="#202730" stroke-width="1"/><g transform="translate(554 205) scale(1.3)" fill="none" stroke="#A371F7" stroke-width="1.5" stroke-linecap="round" stroke-linejoin="round"><circle cx="6" cy="5" r="2.5"/><circle cx="12" cy="6" r="2"/><path d="M1.5 14c.3-3 2-4.5 4.5-4.5S10.2 11 10.5 14M10 10c2.6 0 4 1.2 4.5 4"/></g><text x="588" y="224" fill="#F0F6FC" font-size="20" font-weight="780" text-anchor="start">0</text><text x="588" y="241" fill="#D0D7DE" font-size="9.2" font-weight="600" text-anchor="start"><tspan>PR reviews</tspan><tspan fill="#8B949E" font-weight="500"> · all time</tspan></text><g transform="translate(554 248) scale(1.3)" fill="none" stroke="#D29922" stroke-width="1.5" stroke-linecap="round" stroke-linejoin="round"><path d="M8 1.2l2.05 4.15 4.58.67-3.31 3.23.78 4.56L8 11.65l-4.1 2.16.78-4.56L1.37 6.02l4.58-.67L8 1.2z"/></g><text x="588" y="267" fill="#D29922" font-size="16" font-weight="780" text-anchor="start">2</text><text x="616" y="267" fill="#D0D7DE" font-size="8.8" font-weight="600" text-anchor="start"><tspan>Owned repository stars</tspan><tspan fill="#8B949E" font-weight="500"></tspan></text><line x1="22" y1="283" x2="738" y2="283" stroke="#30363D" stroke-width="1"/><text x="28" y="301" fill="#39C5CF" font-size="7.8" font-weight="750" text-anchor="start" letter-spacing=".95">ENGINEERING QUALITY</text><g transform="translate(30 305) scale(1.3)" fill="none" stroke="#39C5CF" stroke-width="1.5" stroke-linecap="round" stroke-linejoin="round"><circle cx="3" cy="3" r="2"/><circle cx="13" cy="3" r="2"/><circle cx="8" cy="13" r="2"/><path d="M5 3h6M4 5l3 6M12 5l-3 6"/></g><text x="64" y="324" fill="#39C5CF" font-size="17" font-weight="780" text-anchor="start">22.2%</text><text x="64" y="341" fill="#D0D7DE" font-size="9" font-weight="600" text-anchor="start"><tspan>CI/CD coverage</tspan><tspan fill="#8B949E" font-weight="500"></tspan></text><rect x="164" y="315" width="170" height="7" rx="3" fill="#21262D"/><rect x="164" y="315" width="37.78" height="7" rx="3" fill="#39C5CF"/><text x="334" y="341" fill="#8B949E" font-size="7.4" font-weight="650" text-anchor="end">22.2 / 100</text><g transform="translate(400 305) scale(1.3)" fill="none" stroke="#3FB950" stroke-width="1.5" stroke-linecap="round" stroke-linejoin="round"><path d="M5 1h6M6 1v4l-4 7a2 2 0 0 0 1.7 3h8.6A2 2 0 0 0 14 12l-4-7V1M4.5 10h7"/></g><text x="434" y="324" fill="#3FB950" font-size="17" font-weight="780" text-anchor="start">66.7%</text><text x="434" y="341" fill="#D0D7DE" font-size="9" font-weight="600" text-anchor="start"><tspan>Test coverage</tspan><tspan fill="#8B949E" font-weight="500"></tspan></text><rect x="534" y="315" width="176" height="7" rx="3" fill="#21262D"/><rect x="534" y="315" width="117.33" height="7" rx="3" fill="url(#overview-quality)"/><text x="710" y="341" fill="#8B949E" font-size="7.4" font-weight="650" text-anchor="end">66.7 / 100</text>
</svg>