<svg xmlns="http://www.w3.org/2000/svg" width="900" height="428" viewBox="0 0 900 428" role="img" aria-label="Engineering Language Footprint">
  <style>
    .title{fill:#58A6FF;font:600 18px -apple-system,BlinkMacSystemFont,"Segoe UI",sans-serif}
    .subtitle{fill:#8B949E;font:400 11px -apple-system,BlinkMacSystemFont,"Segoe UI",sans-serif}
    .label{fill:#8B949E;font:400 12px -apple-system,BlinkMacSystemFont,"Segoe UI",sans-serif}
    .value{fill:#F0F6FC;font:600 18px -apple-system,BlinkMacSystemFont,"Segoe UI",sans-serif}
    .small{fill:#F0F6FC;font:500 12px -apple-system,BlinkMacSystemFont,"Segoe UI",sans-serif}
    .tiny{fill:#8B949E;font:400 10px -apple-system,BlinkMacSystemFont,"Segoe UI",sans-serif}
    .empty{fill:#8B949E;font:400 13px -apple-system,BlinkMacSystemFont,"Segoe UI",sans-serif}
  </style>
  <rect x=".5" y=".5" width="899" height="427" rx="12" fill="#0D1117" stroke="#30363D"/>
  <g transform="translate(20 17) scale(1.125)" fill="none" stroke="#39C5CF" stroke-width="1.5" stroke-linecap="round" stroke-linejoin="round"><path d="M6 3L1 8l5 5M10 3l5 5-5 5"/></g>
  <text x="48" y="31" class="title">Engineering Language Footprint</text>
  <text x="48" y="49" class="subtitle">Repository-normalized composition across 23 personal repositories + 3 verified public contribution projects · each repository has equal total weight</text>
  
      <defs><clipPath id="language-bar"><rect x="28" y="68" width="844" height="13" rx="6.5"/></clipPath></defs>
      <rect x="28" y="68" width="844" height="13" rx="6.5" fill="#21262D"/>
      <g clip-path="url(#language-bar)"><rect x="28.000" y="68" width="191.909" height="13" fill="#00B4AB"/><rect x="219.909" y="68" width="160.221" height="13" fill="#F1E05A"/><rect x="380.130" y="68" width="104.007" height="13" fill="#B07219"/><rect x="484.137" y="68" width="97.657" height="13" fill="#3178C6"/><rect x="581.794" y="68" width="50.891" height="13" fill="#A97BFF"/><rect x="632.685" y="68" width="46.895" height="13" fill="#F34B7D"/><rect x="679.580" y="68" width="39.592" height="13" fill="#083FA1"/><rect x="719.172" y="68" width="35.085" height="13" fill="#384D54"/><rect x="754.257" y="68" width="32.462" height="13" fill="#DA5B0B"/><rect x="786.719" y="68" width="28.273" height="13" fill="#E34C26"/><rect x="814.992" y="68" width="22.363" height="13" fill="#427819"/><rect x="837.355" y="68" width="16.672" height="13" fill="#F05138"/><rect x="854.027" y="68" width="8.470" height="13" fill="#563D7C"/><rect x="862.497" y="68" width="2.585" height="13" fill="#58A6FF"/><rect x="865.082" y="68" width="1.672" height="13" fill="#555555"/><rect x="866.754" y="68" width="1.402" height="13" fill="#F0883E"/><rect x="868.156" y="68" width="1.362" height="13" fill="#CB171E"/><rect x="869.518" y="68" width="1.193" height="13" fill="#DA3434"/><rect x="870.710" y="68" width="0.336" height="13" fill="#4F5D95"/><rect x="871.046" y="68" width="0.328" height="13" fill="#89E051"/><rect x="871.374" y="68" width="0.224" height="13" fill="#438EFF"/><rect x="871.597" y="68" width="0.186" height="13" fill="#C1F12E"/><rect x="871.783" y="68" width="0.127" height="13" fill="#701516"/><rect x="871.911" y="68" width="0.048" height="13" fill="#3572A5"/><rect x="871.959" y="68" width="0.041" height="13" fill="#DB61A2"/></g>
      <circle cx="33" cy="106" r="5" fill="#00B4AB"/>
      <text x="46" y="110" class="small">Dart</text>
      <text x="186" y="110" class="label">22.7%</text>
      <text x="246" y="110" class="tiny">8 repos</text><circle cx="323" cy="106" r="5" fill="#F1E05A"/>
      <text x="336" y="110" class="small">JavaScript</text>
      <text x="476" y="110" class="label">19.0%</text>
      <text x="536" y="110" class="tiny">10 repos</text><circle cx="613" cy="106" r="5" fill="#B07219"/>
      <text x="626" y="110" class="small">Java</text>
      <text x="766" y="110" class="label">12.3%</text>
      <text x="826" y="110" class="tiny">7 repos</text><circle cx="33" cy="140" r="5" fill="#3178C6"/>
      <text x="46" y="144" class="small">TypeScript</text>
      <text x="186" y="144" class="label">11.6%</text>
      <text x="246" y="144" class="tiny">5 repos</text><circle cx="323" cy="140" r="5" fill="#A97BFF"/>
      <text x="336" y="144" class="small">Kotlin</text>
      <text x="476" y="144" class="label">6.0%</text>
      <text x="536" y="144" class="tiny">8 repos</text><circle cx="613" cy="140" r="5" fill="#F34B7D"/>
      <text x="626" y="144" class="small">C++</text>
      <text x="766" y="144" class="label">5.6%</text>
      <text x="826" y="144" class="tiny">3 repos</text><circle cx="33" cy="174" r="5" fill="#083FA1"/>
      <text x="46" y="178" class="small">Markdown</text>
      <text x="186" y="178" class="label">4.7%</text>
      <text x="246" y="178" class="tiny">2 repos</text><circle cx="323" cy="174" r="5" fill="#384D54"/>
      <text x="336" y="178" class="small">Dockerfile</text>
      <text x="476" y="178" class="label">4.2%</text>
      <text x="536" y="178" class="tiny">2 repos</text><circle cx="613" cy="174" r="5" fill="#DA5B0B"/>
      <text x="626" y="178" class="small">Jupyter Notebook</text>
      <text x="766" y="178" class="label">3.8%</text>
      <text x="826" y="178" class="tiny">1 repo</text><circle cx="33" cy="208" r="5" fill="#E34C26"/>
      <text x="46" y="212" class="small">HTML</text>
      <text x="186" y="212" class="label">3.3%</text>
      <text x="246" y="212" class="tiny">3 repos</text><circle cx="323" cy="208" r="5" fill="#427819"/>
      <text x="336" y="212" class="small">Makefile</text>
      <text x="476" y="212" class="label">2.6%</text>
      <text x="536" y="212" class="tiny">1 repo</text><circle cx="613" cy="208" r="5" fill="#F05138"/>
      <text x="626" y="212" class="small">Swift</text>
      <text x="766" y="212" class="label">2.0%</text>
      <text x="826" y="212" class="tiny">9 repos</text><circle cx="33" cy="242" r="5" fill="#563D7C"/>
      <text x="46" y="246" class="small">CSS</text>
      <text x="186" y="246" class="label">1.0%</text>
      <text x="246" y="246" class="tiny">4 repos</text><circle cx="323" cy="242" r="5" fill="#58A6FF"/>
      <text x="336" y="246" class="small">Mustache</text>
      <text x="476" y="246" class="label">0.3%</text>
      <text x="536" y="246" class="tiny">1 repo</text><circle cx="613" cy="242" r="5" fill="#555555"/>
      <text x="626" y="246" class="small">C</text>
      <text x="766" y="246" class="label">0.2%</text>
      <text x="826" y="246" class="tiny">2 repos</text><circle cx="33" cy="276" r="5" fill="#F0883E"/>
      <text x="46" y="280" class="small">PLpgSQL</text>
      <text x="186" y="280" class="label">0.2%</text>
      <text x="246" y="280" class="tiny">1 repo</text><circle cx="323" cy="276" r="5" fill="#CB171E"/>
      <text x="336" y="280" class="small">YAML</text>
      <text x="476" y="280" class="label">0.2%</text>
      <text x="536" y="280" class="tiny">1 repo</text><circle cx="613" cy="276" r="5" fill="#DA3434"/>
      <text x="626" y="280" class="small">CMake</text>
      <text x="766" y="280" class="label">0.1%</text>
      <text x="826" y="280" class="tiny">1 repo</text><circle cx="33" cy="310" r="5" fill="#4F5D95"/>
      <text x="46" y="314" class="small">PHP</text>
      <text x="186" y="314" class="label">&lt;0.1%</text>
      <text x="246" y="314" class="tiny">1 repo</text><circle cx="323" cy="310" r="5" fill="#89E051"/>
      <text x="336" y="314" class="small">Shell</text>
      <text x="476" y="314" class="label">&lt;0.1%</text>
      <text x="536" y="314" class="tiny">3 repos</text><circle cx="613" cy="310" r="5" fill="#438EFF"/>
      <text x="626" y="314" class="small">Objective-C</text>
      <text x="766" y="314" class="label">&lt;0.1%</text>
      <text x="826" y="314" class="tiny">6 repos</text><circle cx="33" cy="344" r="5" fill="#C1F12E"/>
      <text x="46" y="348" class="small">Batchfile</text>
      <text x="186" y="348" class="label">&lt;0.1%</text>
      <text x="246" y="348" class="tiny">2 repos</text><circle cx="323" cy="344" r="5" fill="#701516"/>
      <text x="336" y="348" class="small">Ruby</text>
      <text x="476" y="348" class="label">&lt;0.1%</text>
      <text x="536" y="348" class="tiny">1 repo</text><circle cx="613" cy="344" r="5" fill="#3572A5"/>
      <text x="626" y="348" class="small">Python</text>
      <text x="766" y="348" class="label">&lt;0.1%</text>
      <text x="826" y="348" class="tiny">1 repo</text><circle cx="33" cy="378" r="5" fill="#DB61A2"/>
      <text x="46" y="382" class="small">ANTLR</text>
      <text x="186" y="382" class="label">&lt;0.1%</text>
      <text x="246" y="382" class="tiny">1 repo</text>
    
</svg>