<svg xmlns="http://www.w3.org/2000/svg" width="900" height="428" viewBox="0 0 900 428" role="img" aria-label="Engineering Language Footprint">
  <style>
    .title{fill:#58A6FF;font:600 19px -apple-system,BlinkMacSystemFont,"Segoe UI",sans-serif}
    .subtitle{fill:#8B949E;font:600 11.7px -apple-system,BlinkMacSystemFont,"Segoe UI",sans-serif}
    .label{fill:#8B949E;font:600 12.7px -apple-system,BlinkMacSystemFont,"Segoe UI",sans-serif}
    .value{fill:#F0F6FC;font:600 19px -apple-system,BlinkMacSystemFont,"Segoe UI",sans-serif}
    .small{fill:#F0F6FC;font:600 12.6px -apple-system,BlinkMacSystemFont,"Segoe UI",sans-serif}
    .tiny{fill:#8B949E;font:600 10.6px -apple-system,BlinkMacSystemFont,"Segoe UI",sans-serif}
    .metricValue{fill:#58A6FF;font:700 19px -apple-system,BlinkMacSystemFont,"Segoe UI",sans-serif}
    .metricLabel{fill:#F0F6FC;font:600 11.6px -apple-system,BlinkMacSystemFont,"Segoe UI",sans-serif}
    .metricNote{fill:#8B949E;font:600 9.6px -apple-system,BlinkMacSystemFont,"Segoe UI",sans-serif}
    .pairedValue{fill:#F0F6FC;font:700 22px -apple-system,BlinkMacSystemFont,"Segoe UI",sans-serif}
    .pairedLabel{fill:#8B949E;font:600 14px -apple-system,BlinkMacSystemFont,"Segoe UI",sans-serif}
    .compositionValue{fill:#F0F6FC;font:700 14.4px -apple-system,BlinkMacSystemFont,"Segoe UI",sans-serif}
    .compositionLabel{fill:#8B949E;font:600 11.8px -apple-system,BlinkMacSystemFont,"Segoe UI",sans-serif}
    .sectionLabel{fill:#3FB950;font:700 11px -apple-system,BlinkMacSystemFont,"Segoe UI",sans-serif;letter-spacing:.5px}
    .empty{fill:#8B949E;font:600 13.7px -apple-system,BlinkMacSystemFont,"Segoe UI",sans-serif}
  </style>
  <rect x=".5" y=".5" width="899" height="427" rx="12" fill="#0D1117" stroke="#30363D"/>
  <g transform="translate(20 17) scale(1.125)" fill="none" stroke="#39C5CF" stroke-width="1.5" stroke-linecap="round" stroke-linejoin="round"><path d="M6 3L1 8l5 5M10 3l5 5-5 5"/></g>
  <text x="48" y="31" class="title">Engineering Language Footprint</text>
  <text x="48" y="49" class="subtitle">Code-byte composition across 24 personal repositories + 4 verified public projects · Linguist with source-tree fallback</text>
  
      <defs><clipPath id="language-bar"><rect x="28" y="68" width="844" height="13" rx="6.5"/></clipPath></defs>
      <rect x="28" y="68" width="844" height="13" rx="6.5" fill="#21262D"/>
      <g clip-path="url(#language-bar)"><rect x="28.000" y="68" width="143.658" height="13" fill="#00B4AB"/><rect x="171.658" y="68" width="118.421" height="13" fill="#F1E05A"/><rect x="290.079" y="68" width="105.573" height="13" fill="#F05138"/><rect x="395.652" y="68" width="105.318" height="13" fill="#A97BFF"/><rect x="500.970" y="68" width="93.681" height="13" fill="#3178C6"/><rect x="594.650" y="68" width="90.957" height="13" fill="#B07219"/><rect x="685.607" y="68" width="79.277" height="13" fill="#F34B7D"/><rect x="764.884" y="68" width="26.836" height="13" fill="#58A6FF"/><rect x="791.720" y="68" width="25.168" height="13" fill="#DA5B0B"/><rect x="816.888" y="68" width="12.378" height="13" fill="#DA3434"/><rect x="829.267" y="68" width="10.832" height="13" fill="#083FA1"/><rect x="840.099" y="68" width="9.035" height="13" fill="#555555"/><rect x="849.134" y="68" width="5.867" height="13" fill="#CB171E"/><rect x="855.001" y="68" width="5.016" height="13" fill="#F0883E"/><rect x="860.017" y="68" width="4.189" height="13" fill="#E34C26"/><rect x="864.206" y="68" width="3.800" height="13" fill="#427819"/><rect x="868.006" y="68" width="1.557" height="13" fill="#89E051"/><rect x="869.563" y="68" width="1.245" height="13" fill="#563D7C"/><rect x="870.808" y="68" width="0.503" height="13" fill="#3572A5"/><rect x="871.311" y="68" width="0.425" height="13" fill="#DB61A2"/><rect x="871.736" y="68" width="0.109" height="13" fill="#C1F12E"/><rect x="871.845" y="68" width="0.072" height="13" fill="#701516"/><rect x="871.918" y="68" width="0.040" height="13" fill="#4F5D95"/><rect x="871.958" y="68" width="0.035" height="13" fill="#384D54"/><rect x="871.993" y="68" width="0.007" height="13" fill="#438EFF"/></g>
      <circle cx="33" cy="106" r="5" fill="#00B4AB"/>
      <text x="46" y="110" class="small">Dart</text>
      <text x="186" y="110" class="label">17.0%</text>
      <text x="246" y="110" class="tiny">8 repos</text><circle cx="323" cy="106" r="5" fill="#F1E05A"/>
      <text x="336" y="110" class="small">JavaScript</text>
      <text x="476" y="110" class="label">14.0%</text>
      <text x="536" y="110" class="tiny">11 repos</text><circle cx="613" cy="106" r="5" fill="#F05138"/>
      <text x="626" y="110" class="small">Swift</text>
      <text x="766" y="110" class="label">12.5%</text>
      <text x="826" y="110" class="tiny">9 repos</text><circle cx="33" cy="140" r="5" fill="#A97BFF"/>
      <text x="46" y="144" class="small">Kotlin</text>
      <text x="186" y="144" class="label">12.5%</text>
      <text x="246" y="144" class="tiny">8 repos</text><circle cx="323" cy="140" r="5" fill="#3178C6"/>
      <text x="336" y="144" class="small">TypeScript</text>
      <text x="476" y="144" class="label">11.1%</text>
      <text x="536" y="144" class="tiny">6 repos</text><circle cx="613" cy="140" r="5" fill="#B07219"/>
      <text x="626" y="144" class="small">Java</text>
      <text x="766" y="144" class="label">10.8%</text>
      <text x="826" y="144" class="tiny">8 repos</text><circle cx="33" cy="174" r="5" fill="#F34B7D"/>
      <text x="46" y="178" class="small">C++</text>
      <text x="186" y="178" class="label">9.4%</text>
      <text x="246" y="178" class="tiny">3 repos</text><circle cx="323" cy="174" r="5" fill="#58A6FF"/>
      <text x="336" y="178" class="small">Mustache</text>
      <text x="476" y="178" class="label">3.2%</text>
      <text x="536" y="178" class="tiny">1 repo</text><circle cx="613" cy="174" r="5" fill="#DA5B0B"/>
      <text x="626" y="178" class="small">Jupyter Notebook</text>
      <text x="766" y="178" class="label">3.0%</text>
      <text x="826" y="178" class="tiny">1 repo</text><circle cx="33" cy="208" r="5" fill="#DA3434"/>
      <text x="46" y="212" class="small">CMake</text>
      <text x="186" y="212" class="label">1.5%</text>
      <text x="246" y="212" class="tiny">1 repo</text><circle cx="323" cy="208" r="5" fill="#083FA1"/>
      <text x="336" y="212" class="small">Markdown</text>
      <text x="476" y="212" class="label">1.3%</text>
      <text x="536" y="212" class="tiny">2 repos</text><circle cx="613" cy="208" r="5" fill="#555555"/>
      <text x="626" y="212" class="small">C</text>
      <text x="766" y="212" class="label">1.1%</text>
      <text x="826" y="212" class="tiny">2 repos</text><circle cx="33" cy="242" r="5" fill="#CB171E"/>
      <text x="46" y="246" class="small">YAML</text>
      <text x="186" y="246" class="label">0.7%</text>
      <text x="246" y="246" class="tiny">1 repo</text><circle cx="323" cy="242" r="5" fill="#F0883E"/>
      <text x="336" y="246" class="small">PLpgSQL</text>
      <text x="476" y="246" class="label">0.6%</text>
      <text x="536" y="246" class="tiny">1 repo</text><circle cx="613" cy="242" r="5" fill="#E34C26"/>
      <text x="626" y="246" class="small">HTML</text>
      <text x="766" y="246" class="label">0.5%</text>
      <text x="826" y="246" class="tiny">3 repos</text><circle cx="33" cy="276" r="5" fill="#427819"/>
      <text x="46" y="280" class="small">Makefile</text>
      <text x="186" y="280" class="label">0.5%</text>
      <text x="246" y="280" class="tiny">1 repo</text><circle cx="323" cy="276" r="5" fill="#89E051"/>
      <text x="336" y="280" class="small">Shell</text>
      <text x="476" y="280" class="label">0.2%</text>
      <text x="536" y="280" class="tiny">4 repos</text><circle cx="613" cy="276" r="5" fill="#563D7C"/>
      <text x="626" y="280" class="small">CSS</text>
      <text x="766" y="280" class="label">0.1%</text>
      <text x="826" y="280" class="tiny">4 repos</text><circle cx="33" cy="310" r="5" fill="#3572A5"/>
      <text x="46" y="314" class="small">Python</text>
      <text x="186" y="314" class="label">&lt;0.1%</text>
      <text x="246" y="314" class="tiny">1 repo</text><circle cx="323" cy="310" r="5" fill="#DB61A2"/>
      <text x="336" y="314" class="small">ANTLR</text>
      <text x="476" y="314" class="label">&lt;0.1%</text>
      <text x="536" y="314" class="tiny">1 repo</text><circle cx="613" cy="310" r="5" fill="#C1F12E"/>
      <text x="626" y="314" class="small">Batchfile</text>
      <text x="766" y="314" class="label">&lt;0.1%</text>
      <text x="826" y="314" class="tiny">2 repos</text><circle cx="33" cy="344" r="5" fill="#701516"/>
      <text x="46" y="348" class="small">Ruby</text>
      <text x="186" y="348" class="label">&lt;0.1%</text>
      <text x="246" y="348" class="tiny">1 repo</text><circle cx="323" cy="344" r="5" fill="#4F5D95"/>
      <text x="336" y="348" class="small">PHP</text>
      <text x="476" y="348" class="label">&lt;0.1%</text>
      <text x="536" y="348" class="tiny">1 repo</text><circle cx="613" cy="344" r="5" fill="#384D54"/>
      <text x="626" y="348" class="small">Dockerfile</text>
      <text x="766" y="348" class="label">&lt;0.1%</text>
      <text x="826" y="348" class="tiny">2 repos</text><circle cx="33" cy="378" r="5" fill="#438EFF"/>
      <text x="46" y="382" class="small">Objective-C</text>
      <text x="186" y="382" class="label">&lt;0.1%</text>
      <text x="246" y="382" class="tiny">6 repos</text>
    
</svg>