<svg xmlns="http://www.w3.org/2000/svg" width="900" height="462" viewBox="0 0 900 462" role="img" aria-label="Engineering Language Footprint">
  <style>
    .title{fill:#58A6FF;font:600 18px -apple-system,BlinkMacSystemFont,"Segoe UI",sans-serif}
    .subtitle{fill:#8B949E;font:400 11px -apple-system,BlinkMacSystemFont,"Segoe UI",sans-serif}
    .label{fill:#8B949E;font:400 12px -apple-system,BlinkMacSystemFont,"Segoe UI",sans-serif}
    .value{fill:#F0F6FC;font:600 18px -apple-system,BlinkMacSystemFont,"Segoe UI",sans-serif}
    .small{fill:#F0F6FC;font:500 12px -apple-system,BlinkMacSystemFont,"Segoe UI",sans-serif}
    .tiny{fill:#8B949E;font:400 10px -apple-system,BlinkMacSystemFont,"Segoe UI",sans-serif}
    .empty{fill:#8B949E;font:400 13px -apple-system,BlinkMacSystemFont,"Segoe UI",sans-serif}
  </style>
  <rect x=".5" y=".5" width="899" height="461" rx="12" fill="#0D1117" stroke="#30363D"/>
  <g transform="translate(20 17) scale(1.125)" fill="none" stroke="#39C5CF" stroke-width="1.5" stroke-linecap="round" stroke-linejoin="round"><path d="M6 3L1 8l5 5M10 3l5 5-5 5"/></g>
  <text x="48" y="31" class="title">Engineering Language Footprint</text>
  <text x="48" y="49" class="subtitle">Current composition across 23 personal repositories + 5 public projects contributed to · project composition is separate from personal authorship</text>
  
      <defs>
        <clipPath id="language-bar">
          <rect x="28" y="68" width="844" height="13" rx="6.5"/>
        </clipPath>
      </defs>
      <rect x="28" y="68" width="844" height="13" rx="6.5" fill="#21262D"/>
      <g clip-path="url(#language-bar)"><rect x="28.000" y="68" width="555.081" height="13" fill="#00B4AB"/><rect x="583.081" y="68" width="134.354" height="13" fill="#F34B7D"/><rect x="717.435" y="68" width="25.767" height="13" fill="#F1E05A"/><rect x="743.202" y="68" width="24.390" height="13" fill="#B07219"/><rect x="767.592" y="68" width="20.105" height="13" fill="#6866FB"/><rect x="787.697" y="68" width="18.417" height="13" fill="#3178C6"/><rect x="806.114" y="68" width="14.765" height="13" fill="#A97BFF"/><rect x="820.879" y="68" width="12.596" height="13" fill="#F05138"/><rect x="833.475" y="68" width="5.989" height="13" fill="#555555"/><rect x="839.464" y="68" width="5.482" height="13" fill="#58A6FF"/><rect x="844.946" y="68" width="5.141" height="13" fill="#DA5B0B"/><rect x="850.086" y="68" width="4.576" height="13" fill="#438EFF"/><rect x="854.663" y="68" width="3.617" height="13" fill="#DA3434"/><rect x="858.280" y="68" width="3.487" height="13" fill="#A371F7"/><rect x="861.767" y="68" width="3.392" height="13" fill="#3572A5"/><rect x="865.158" y="68" width="1.761" height="13" fill="#39C5CF"/><rect x="866.919" y="68" width="1.249" height="13" fill="#89E051"/><rect x="868.168" y="68" width="1.025" height="13" fill="#F0883E"/><rect x="869.192" y="68" width="0.988" height="13" fill="#E34C26"/><rect x="870.180" y="68" width="0.776" height="13" fill="#427819"/><rect x="870.957" y="68" width="0.337" height="13" fill="#701516"/><rect x="871.293" y="68" width="0.292" height="13" fill="#563D7C"/><rect x="871.585" y="68" width="0.194" height="13" fill="#C1F12E"/><rect x="871.779" y="68" width="0.099" height="13" fill="#012456"/><rect x="871.878" y="68" width="0.087" height="13" fill="#DB61A2"/><rect x="871.965" y="68" width="0.014" height="13" fill="#F85149"/><rect x="871.979" y="68" width="0.008" height="13" fill="#4F5D95"/><rect x="871.987" y="68" width="0.007" height="13" fill="#384D54"/><rect x="871.994" y="68" width="0.006" height="13" fill="#DB61A2"/></g>
      <circle cx="33" cy="106" r="5" fill="#00B4AB"/>
      <text x="46" y="110" class="small">Dart</text>
      <text x="186" y="110" class="label">65.8%</text>
      <text x="246" y="110" class="tiny">8 repos</text><circle cx="323" cy="106" r="5" fill="#F34B7D"/>
      <text x="336" y="110" class="small">C++</text>
      <text x="476" y="110" class="label">15.9%</text>
      <text x="536" y="110" class="tiny">4 repos</text><circle cx="613" cy="106" r="5" fill="#F1E05A"/>
      <text x="626" y="110" class="small">JavaScript</text>
      <text x="766" y="110" class="label">3.1%</text>
      <text x="826" y="110" class="tiny">12 repos</text><circle cx="33" cy="140" r="5" fill="#B07219"/>
      <text x="46" y="144" class="small">Java</text>
      <text x="186" y="144" class="label">2.9%</text>
      <text x="246" y="144" class="tiny">7 repos</text><circle cx="323" cy="140" r="5" fill="#6866FB"/>
      <text x="336" y="144" class="small">Objective-C++</text>
      <text x="476" y="144" class="label">2.4%</text>
      <text x="536" y="144" class="tiny">1 repo</text><circle cx="613" cy="140" r="5" fill="#3178C6"/>
      <text x="626" y="144" class="small">TypeScript</text>
      <text x="766" y="144" class="label">2.2%</text>
      <text x="826" y="144" class="tiny">5 repos</text><circle cx="33" cy="174" r="5" fill="#A97BFF"/>
      <text x="46" y="178" class="small">Kotlin</text>
      <text x="186" y="178" class="label">1.7%</text>
      <text x="246" y="178" class="tiny">8 repos</text><circle cx="323" cy="174" r="5" fill="#F05138"/>
      <text x="336" y="178" class="small">Swift</text>
      <text x="476" y="178" class="label">1.5%</text>
      <text x="536" y="178" class="tiny">9 repos</text><circle cx="613" cy="174" r="5" fill="#555555"/>
      <text x="626" y="178" class="small">C</text>
      <text x="766" y="178" class="label">0.7%</text>
      <text x="826" y="178" class="tiny">2 repos</text><circle cx="33" cy="208" r="5" fill="#58A6FF"/>
      <text x="46" y="212" class="small">Mustache</text>
      <text x="186" y="212" class="label">0.6%</text>
      <text x="246" y="212" class="tiny">1 repo</text><circle cx="323" cy="208" r="5" fill="#DA5B0B"/>
      <text x="336" y="212" class="small">Jupyter Notebook</text>
      <text x="476" y="212" class="label">0.6%</text>
      <text x="536" y="212" class="tiny">1 repo</text><circle cx="613" cy="208" r="5" fill="#438EFF"/>
      <text x="626" y="212" class="small">Objective-C</text>
      <text x="766" y="212" class="label">0.5%</text>
      <text x="826" y="212" class="tiny">7 repos</text><circle cx="33" cy="242" r="5" fill="#DA3434"/>
      <text x="46" y="246" class="small">CMake</text>
      <text x="186" y="246" class="label">0.4%</text>
      <text x="246" y="246" class="tiny">2 repos</text><circle cx="323" cy="242" r="5" fill="#A371F7"/>
      <text x="336" y="246" class="small">Go Template</text>
      <text x="476" y="246" class="label">0.4%</text>
      <text x="536" y="246" class="tiny">1 repo</text><circle cx="613" cy="242" r="5" fill="#3572A5"/>
      <text x="626" y="246" class="small">Python</text>
      <text x="766" y="246" class="label">0.4%</text>
      <text x="826" y="246" class="tiny">2 repos</text><circle cx="33" cy="276" r="5" fill="#39C5CF"/>
      <text x="46" y="280" class="small">GLSL</text>
      <text x="186" y="280" class="label">0.2%</text>
      <text x="246" y="280" class="tiny">1 repo</text><circle cx="323" cy="276" r="5" fill="#89E051"/>
      <text x="336" y="280" class="small">Shell</text>
      <text x="476" y="280" class="label">0.1%</text>
      <text x="536" y="280" class="tiny">4 repos</text><circle cx="613" cy="276" r="5" fill="#F0883E"/>
      <text x="626" y="280" class="small">PLpgSQL</text>
      <text x="766" y="280" class="label">0.1%</text>
      <text x="826" y="280" class="tiny">1 repo</text><circle cx="33" cy="310" r="5" fill="#E34C26"/>
      <text x="46" y="314" class="small">HTML</text>
      <text x="186" y="314" class="label">0.1%</text>
      <text x="246" y="314" class="tiny">4 repos</text><circle cx="323" cy="310" r="5" fill="#427819"/>
      <text x="336" y="314" class="small">Makefile</text>
      <text x="476" y="314" class="label">&lt;0.1%</text>
      <text x="536" y="314" class="tiny">1 repo</text><circle cx="613" cy="310" r="5" fill="#701516"/>
      <text x="626" y="314" class="small">Ruby</text>
      <text x="766" y="314" class="label">&lt;0.1%</text>
      <text x="826" y="314" class="tiny">2 repos</text><circle cx="33" cy="344" r="5" fill="#563D7C"/>
      <text x="46" y="348" class="small">CSS</text>
      <text x="186" y="348" class="label">&lt;0.1%</text>
      <text x="246" y="348" class="tiny">5 repos</text><circle cx="323" cy="344" r="5" fill="#C1F12E"/>
      <text x="336" y="348" class="small">Batchfile</text>
      <text x="476" y="348" class="label">&lt;0.1%</text>
      <text x="536" y="348" class="tiny">3 repos</text><circle cx="613" cy="344" r="5" fill="#012456"/>
      <text x="626" y="348" class="small">PowerShell</text>
      <text x="766" y="348" class="label">&lt;0.1%</text>
      <text x="826" y="348" class="tiny">1 repo</text><circle cx="33" cy="378" r="5" fill="#DB61A2"/>
      <text x="46" y="382" class="small">ANTLR</text>
      <text x="186" y="382" class="label">&lt;0.1%</text>
      <text x="246" y="382" class="tiny">1 repo</text><circle cx="323" cy="378" r="5" fill="#F85149"/>
      <text x="336" y="382" class="small">Lex</text>
      <text x="476" y="382" class="label">&lt;0.1%</text>
      <text x="536" y="382" class="tiny">1 repo</text><circle cx="613" cy="378" r="5" fill="#4F5D95"/>
      <text x="626" y="382" class="small">PHP</text>
      <text x="766" y="382" class="label">&lt;0.1%</text>
      <text x="826" y="382" class="tiny">1 repo</text><circle cx="33" cy="412" r="5" fill="#384D54"/>
      <text x="46" y="416" class="small">Dockerfile</text>
      <text x="186" y="416" class="label">&lt;0.1%</text>
      <text x="246" y="416" class="tiny">2 repos</text><circle cx="323" cy="412" r="5" fill="#DB61A2"/>
      <text x="336" y="416" class="small">HLSL</text>
      <text x="476" y="416" class="label">&lt;0.1%</text>
      <text x="536" y="416" class="tiny">1 repo</text>
    
</svg>