<svg xmlns="http://www.w3.org/2000/svg" width="900" height="326" viewBox="0 0 900 326" role="img" aria-label="Language Spectrum">
  <style>
    .title{fill:#58A6FF;font:600 18px -apple-system,BlinkMacSystemFont,"Segoe UI",sans-serif}
    .subtitle{fill:#8B949E;font:400 11px -apple-system,BlinkMacSystemFont,"Segoe UI",sans-serif}
    .label{fill:#8B949E;font:400 12px -apple-system,BlinkMacSystemFont,"Segoe UI",sans-serif}
    .value{fill:#F0F6FC;font:600 18px -apple-system,BlinkMacSystemFont,"Segoe UI",sans-serif}
    .small{fill:#F0F6FC;font:500 12px -apple-system,BlinkMacSystemFont,"Segoe UI",sans-serif}
    .tiny{fill:#8B949E;font:400 10px -apple-system,BlinkMacSystemFont,"Segoe UI",sans-serif}
    .empty{fill:#8B949E;font:400 13px -apple-system,BlinkMacSystemFont,"Segoe UI",sans-serif}
  </style>
  <rect x=".5" y=".5" width="899" height="325" rx="12" fill="#0D1117" stroke="#30363D"/>
  <g transform="translate(20 17) scale(1.125)" fill="none" stroke="#39C5CF" stroke-width="1.5" stroke-linecap="round" stroke-linejoin="round"><path d="M6 3L1 8l5 5M10 3l5 5-5 5"/></g>
  <text x="48" y="31" class="title">Language Spectrum</text>
  <text x="48" y="49" class="subtitle">All detected languages · GitHub Linguist bytes across 22 scanned repositories</text>
  
      <defs>
        <clipPath id="language-bar">
          <rect x="28" y="68" width="844" height="13" rx="6.5"/>
        </clipPath>
      </defs>
      <rect x="28" y="68" width="844" height="13" rx="6.5" fill="#21262D"/>
      <g clip-path="url(#language-bar)"><rect x="28.000" y="68" width="470.707" height="13" fill="#F1E05A"/><rect x="498.707" y="68" width="160.081" height="13" fill="#3178C6"/><rect x="658.788" y="68" width="103.999" height="13" fill="#DA5B0B"/><rect x="762.787" y="68" width="25.629" height="13" fill="#00B4AB"/><rect x="788.416" y="68" width="20.727" height="13" fill="#F0883E"/><rect x="809.142" y="68" width="17.309" height="13" fill="#E34C26"/><rect x="826.451" y="68" width="15.702" height="13" fill="#427819"/><rect x="842.153" y="68" width="14.449" height="13" fill="#B07219"/><rect x="856.603" y="68" width="5.579" height="13" fill="#F34B7D"/><rect x="862.181" y="68" width="5.146" height="13" fill="#563D7C"/><rect x="867.328" y="68" width="2.485" height="13" fill="#F05138"/><rect x="869.813" y="68" width="1.785" height="13" fill="#A97BFF"/><rect x="871.597" y="68" width="0.165" height="13" fill="#4F5D95"/><rect x="871.762" y="68" width="0.146" height="13" fill="#384D54"/><rect x="871.908" y="68" width="0.068" height="13" fill="#89E051"/><rect x="871.976" y="68" width="0.024" height="13" fill="#438EFF"/></g>
      <circle cx="33" cy="106" r="5" fill="#F1E05A"/>
      <text x="46" y="110" class="small">JavaScript</text>
      <text x="186" y="110" class="label">55.8%</text>
      <text x="246" y="110" class="tiny">9 repos</text><circle cx="323" cy="106" r="5" fill="#3178C6"/>
      <text x="336" y="110" class="small">TypeScript</text>
      <text x="476" y="110" class="label">19.0%</text>
      <text x="536" y="110" class="tiny">4 repos</text><circle cx="613" cy="106" r="5" fill="#DA5B0B"/>
      <text x="626" y="110" class="small">Jupyter Notebook</text>
      <text x="766" y="110" class="label">12.3%</text>
      <text x="826" y="110" class="tiny">1 repo</text><circle cx="33" cy="140" r="5" fill="#00B4AB"/>
      <text x="46" y="144" class="small">Dart</text>
      <text x="186" y="144" class="label">3.0%</text>
      <text x="246" y="144" class="tiny">5 repos</text><circle cx="323" cy="140" r="5" fill="#F0883E"/>
      <text x="336" y="144" class="small">PLpgSQL</text>
      <text x="476" y="144" class="label">2.5%</text>
      <text x="536" y="144" class="tiny">1 repo</text><circle cx="613" cy="140" r="5" fill="#E34C26"/>
      <text x="626" y="144" class="small">HTML</text>
      <text x="766" y="144" class="label">2.1%</text>
      <text x="826" y="144" class="tiny">3 repos</text><circle cx="33" cy="174" r="5" fill="#427819"/>
      <text x="46" y="178" class="small">Makefile</text>
      <text x="186" y="178" class="label">1.9%</text>
      <text x="246" y="178" class="tiny">1 repo</text><circle cx="323" cy="174" r="5" fill="#B07219"/>
      <text x="336" y="178" class="small">Java</text>
      <text x="476" y="178" class="label">1.7%</text>
      <text x="536" y="178" class="tiny">5 repos</text><circle cx="613" cy="174" r="5" fill="#F34B7D"/>
      <text x="626" y="178" class="small">C++</text>
      <text x="766" y="178" class="label">0.7%</text>
      <text x="826" y="178" class="tiny">2 repos</text><circle cx="33" cy="208" r="5" fill="#563D7C"/>
      <text x="46" y="212" class="small">CSS</text>
      <text x="186" y="212" class="label">0.6%</text>
      <text x="246" y="212" class="tiny">4 repos</text><circle cx="323" cy="208" r="5" fill="#F05138"/>
      <text x="336" y="212" class="small">Swift</text>
      <text x="476" y="212" class="label">0.3%</text>
      <text x="536" y="212" class="tiny">6 repos</text><circle cx="613" cy="208" r="5" fill="#A97BFF"/>
      <text x="626" y="212" class="small">Kotlin</text>
      <text x="766" y="212" class="label">0.2%</text>
      <text x="826" y="212" class="tiny">5 repos</text><circle cx="33" cy="242" r="5" fill="#4F5D95"/>
      <text x="46" y="246" class="small">PHP</text>
      <text x="186" y="246" class="label">0.0%</text>
      <text x="246" y="246" class="tiny">1 repo</text><circle cx="323" cy="242" r="5" fill="#384D54"/>
      <text x="336" y="246" class="small">Dockerfile</text>
      <text x="476" y="246" class="label">0.0%</text>
      <text x="536" y="246" class="tiny">2 repos</text><circle cx="613" cy="242" r="5" fill="#89E051"/>
      <text x="626" y="246" class="small">Shell</text>
      <text x="766" y="246" class="label">0.0%</text>
      <text x="826" y="246" class="tiny">1 repo</text><circle cx="33" cy="276" r="5" fill="#438EFF"/>
      <text x="46" y="280" class="small">Objective-C</text>
      <text x="186" y="280" class="label">0.0%</text>
      <text x="246" y="280" class="tiny">5 repos</text>
    
</svg>