<svg xmlns="http://www.w3.org/2000/svg" width="760" height="414" viewBox="0 0 760 414" role="img" aria-label="MCP &amp; Tool Integration">
  <style>
    .title{fill:#58A6FF;font:600 18px -apple-system,BlinkMacSystemFont,"Segoe UI",sans-serif}
    .subtitle{fill:#8B949E;font:400 11px -apple-system,BlinkMacSystemFont,"Segoe UI",sans-serif}
    .label{fill:#8B949E;font:400 12px -apple-system,BlinkMacSystemFont,"Segoe UI",sans-serif}
    .value{fill:#F0F6FC;font:600 18px -apple-system,BlinkMacSystemFont,"Segoe UI",sans-serif}
    .small{fill:#F0F6FC;font:500 12px -apple-system,BlinkMacSystemFont,"Segoe UI",sans-serif}
    .tiny{fill:#8B949E;font:400 10px -apple-system,BlinkMacSystemFont,"Segoe UI",sans-serif}
    .empty{fill:#8B949E;font:400 13px -apple-system,BlinkMacSystemFont,"Segoe UI",sans-serif}
  </style>
  <rect x=".5" y=".5" width="759" height="413" rx="12" fill="#0D1117" stroke="#30363D"/>
  <g transform="translate(20 17) scale(1.125)" fill="none" stroke="#3FB950" stroke-width="1.5" stroke-linecap="round" stroke-linejoin="round"><circle cx="8" cy="3" r="2"/><circle cx="3" cy="12" r="2"/><circle cx="13" cy="12" r="2"/><path d="M7 5 4 10M9 5l3 5M5 12h6"/></g>
  <text x="48" y="31" class="title">MCP &amp; Tool Integration</text>
  <text x="48" y="49" class="subtitle">Aggregate tool categories only · private server names, URLs and credentials are never rendered</text>
  <g transform="translate(20 67) scale(1)" fill="none" stroke="#3FB950" stroke-width="1.5" stroke-linecap="round" stroke-linejoin="round"><circle cx="8" cy="3" r="2"/><circle cx="3" cy="12" r="2"/><circle cx="13" cy="12" r="2"/><path d="M7 5 4 10M9 5l3 5M5 12h6"/></g>
      <text x="46" y="80" class="value">5</text>
      <text x="46" y="98" class="label">MCP-enabled repositories</text><g transform="translate(380 67) scale(1)" fill="none" stroke="#58A6FF" stroke-width="1.5" stroke-linecap="round" stroke-linejoin="round"><path d="M3 1h7l3 3v11H3zM10 1v4h3M5 8h6M5 11h6"/></g>
      <text x="406" y="80" class="value">99</text>
      <text x="406" y="98" class="label">MCP configuration signals</text><g transform="translate(20 129) scale(1)" fill="none" stroke="#A371F7" stroke-width="1.5" stroke-linecap="round" stroke-linejoin="round"><rect x="2" y="4" width="12" height="9" rx="2"/><path d="M8 1v3M5 8h.01M11 8h.01M5 11h6M1 7h1M14 7h1"/></g>
      <text x="46" y="142" class="value">107</text>
      <text x="46" y="160" class="label">Agent definition files</text><g transform="translate(380 129) scale(1)" fill="none" stroke="#39C5CF" stroke-width="1.5" stroke-linecap="round" stroke-linejoin="round"><path d="M10.5 2.2a3.5 3.5 0 0 0-4.2 4.5L2 11l3 3 4.3-4.3a3.5 3.5 0 0 0 4.5-4.2l-2.2 2.2-2.3-.6-.6-2.3 1.8-2.6z"/></g>
      <text x="406" y="142" class="value">7</text>
      <text x="406" y="160" class="label">Connected tool categories</text>
      <line x1="28" y1="181" x2="732" y2="181" stroke="#30363D"/>
      <text x="28" y="198" class="title" style="font-size:14px">Detected tool categories</text>
      <rect x="28" y="218" width="346" height="32" rx="8" fill="#39C5CF" fill-opacity=".08" stroke="#39C5CF" stroke-opacity=".45"/>
      <g transform="translate(39 226) scale(0.875)" fill="none" stroke="#39C5CF" stroke-width="1.5" stroke-linecap="round" stroke-linejoin="round"><path d="M10.5 2.2a3.5 3.5 0 0 0-4.2 4.5L2 11l3 3 4.3-4.3a3.5 3.5 0 0 0 4.5-4.2l-2.2 2.2-2.3-.6-.6-2.3 1.8-2.6z"/></g>
      <text x="62" y="238" class="small">Filesystem</text>
      <text x="362" y="238" text-anchor="end" class="label">12 repos</text><rect x="386" y="218" width="346" height="32" rx="8" fill="#39C5CF" fill-opacity=".08" stroke="#39C5CF" stroke-opacity=".45"/>
      <g transform="translate(397 226) scale(0.875)" fill="none" stroke="#39C5CF" stroke-width="1.5" stroke-linecap="round" stroke-linejoin="round"><path d="M10.5 2.2a3.5 3.5 0 0 0-4.2 4.5L2 11l3 3 4.3-4.3a3.5 3.5 0 0 0 4.5-4.2l-2.2 2.2-2.3-.6-.6-2.3 1.8-2.6z"/></g>
      <text x="420" y="238" class="small">Cloud &amp; deployment</text>
      <text x="720" y="238" text-anchor="end" class="label">10 repos</text><rect x="28" y="260" width="346" height="32" rx="8" fill="#39C5CF" fill-opacity=".08" stroke="#39C5CF" stroke-opacity=".45"/>
      <g transform="translate(39 268) scale(0.875)" fill="none" stroke="#39C5CF" stroke-width="1.5" stroke-linecap="round" stroke-linejoin="round"><path d="M10.5 2.2a3.5 3.5 0 0 0-4.2 4.5L2 11l3 3 4.3-4.3a3.5 3.5 0 0 0 4.5-4.2l-2.2 2.2-2.3-.6-.6-2.3 1.8-2.6z"/></g>
      <text x="62" y="280" class="small">Git hosting</text>
      <text x="362" y="280" text-anchor="end" class="label">10 repos</text><rect x="386" y="260" width="346" height="32" rx="8" fill="#39C5CF" fill-opacity=".08" stroke="#39C5CF" stroke-opacity=".45"/>
      <g transform="translate(397 268) scale(0.875)" fill="none" stroke="#39C5CF" stroke-width="1.5" stroke-linecap="round" stroke-linejoin="round"><path d="M10.5 2.2a3.5 3.5 0 0 0-4.2 4.5L2 11l3 3 4.3-4.3a3.5 3.5 0 0 0 4.5-4.2l-2.2 2.2-2.3-.6-.6-2.3 1.8-2.6z"/></g>
      <text x="420" y="280" class="small">Databases</text>
      <text x="720" y="280" text-anchor="end" class="label">6 repos</text><rect x="28" y="302" width="346" height="32" rx="8" fill="#39C5CF" fill-opacity=".08" stroke="#39C5CF" stroke-opacity=".45"/>
      <g transform="translate(39 310) scale(0.875)" fill="none" stroke="#39C5CF" stroke-width="1.5" stroke-linecap="round" stroke-linejoin="round"><path d="M10.5 2.2a3.5 3.5 0 0 0-4.2 4.5L2 11l3 3 4.3-4.3a3.5 3.5 0 0 0 4.5-4.2l-2.2 2.2-2.3-.6-.6-2.3 1.8-2.6z"/></g>
      <text x="62" y="322" class="small">Browser &amp; web</text>
      <text x="362" y="322" text-anchor="end" class="label">4 repos</text><rect x="386" y="302" width="346" height="32" rx="8" fill="#39C5CF" fill-opacity=".08" stroke="#39C5CF" stroke-opacity=".45"/>
      <g transform="translate(397 310) scale(0.875)" fill="none" stroke="#39C5CF" stroke-width="1.5" stroke-linecap="round" stroke-linejoin="round"><path d="M10.5 2.2a3.5 3.5 0 0 0-4.2 4.5L2 11l3 3 4.3-4.3a3.5 3.5 0 0 0 4.5-4.2l-2.2 2.2-2.3-.6-.6-2.3 1.8-2.6z"/></g>
      <text x="420" y="322" class="small">Productivity</text>
      <text x="720" y="322" text-anchor="end" class="label">3 repos</text><rect x="28" y="344" width="346" height="32" rx="8" fill="#39C5CF" fill-opacity=".08" stroke="#39C5CF" stroke-opacity=".45"/>
      <g transform="translate(39 352) scale(0.875)" fill="none" stroke="#39C5CF" stroke-width="1.5" stroke-linecap="round" stroke-linejoin="round"><path d="M10.5 2.2a3.5 3.5 0 0 0-4.2 4.5L2 11l3 3 4.3-4.3a3.5 3.5 0 0 0 4.5-4.2l-2.2 2.2-2.3-.6-.6-2.3 1.8-2.6z"/></g>
      <text x="62" y="364" class="small">Custom APIs</text>
      <text x="362" y="364" text-anchor="end" class="label">2 repos</text>
</svg>