<svg xmlns="http://www.w3.org/2000/svg" width="900" height="580" viewBox="0 0 900 580" role="img" aria-label="MCP &amp; Tool Integration">
  <style>
    .title{fill:#58A6FF;font:600 18px -apple-system,BlinkMacSystemFont,"Segoe UI",sans-serif}
    .subtitle{fill:#8B949E;font:400 11px -apple-system,BlinkMacSystemFont,"Segoe UI",sans-serif}
    .label{fill:#8B949E;font:500 11px -apple-system,BlinkMacSystemFont,"Segoe UI",sans-serif}
    .value{fill:#F0F6FC;font:700 20px -apple-system,BlinkMacSystemFont,"Segoe UI",sans-serif}
    .small{fill:#F0F6FC;font:600 12px -apple-system,BlinkMacSystemFont,"Segoe UI",sans-serif}
    .tiny{fill:#8B949E;font:400 10px -apple-system,BlinkMacSystemFont,"Segoe UI",sans-serif}
    .empty{fill:#8B949E;font:400 13px -apple-system,BlinkMacSystemFont,"Segoe UI",sans-serif}
  </style>
  <rect x=".5" y=".5" width="899" height="579" rx="12" fill="#0D1117" stroke="#30363D"/>
  <g transform="translate(20 17) scale(1.125)" fill="none" stroke="#3FB950" stroke-width="1.5" stroke-linecap="round" stroke-linejoin="round"><circle cx="8" cy="3" r="2"/><circle cx="3" cy="12" r="2"/><circle cx="13" cy="12" r="2"/><path d="M7 5 4 10M9 5l3 5M5 12h6"/></g>
  <text x="48" y="31" class="title">MCP &amp; Tool Integration</text>
  <text x="48" y="49" class="subtitle">Aggregate tool categories only · private server names, URLs and credentials are never rendered</text>
  <rect x="20" y="72" width="424" height="82" rx="10" fill="#3FB950" fill-opacity=".09" stroke="#3FB950" stroke-opacity=".55"/>
      <g transform="translate(33 85) scale(1.0625)" fill="none" stroke="#3FB950" stroke-width="1.5" stroke-linecap="round" stroke-linejoin="round"><circle cx="8" cy="3" r="2"/><circle cx="3" cy="12" r="2"/><circle cx="13" cy="12" r="2"/><path d="M7 5 4 10M9 5l3 5M5 12h6"/></g>
      <text x="62" y="103" class="value">8</text>
      <text x="33" y="128" text-anchor="start" class="label"><tspan x="33" dy="0">Repositories with MCP or tool</tspan><tspan x="33" dy="14">integration</tspan></text><rect x="456" y="72" width="424" height="82" rx="10" fill="#58A6FF" fill-opacity=".09" stroke="#58A6FF" stroke-opacity=".55"/>
      <g transform="translate(469 85) scale(1.0625)" fill="none" stroke="#58A6FF" stroke-width="1.5" stroke-linecap="round" stroke-linejoin="round"><path d="M3 1h7l3 3v11H3zM10 1v4h3M5 8h6M5 11h6"/></g>
      <text x="498" y="103" class="value">99</text>
      <text x="469" y="128" text-anchor="start" class="label"><tspan x="469" dy="0">MCP configuration signals</tspan></text><rect x="20" y="166" width="424" height="82" rx="10" fill="#39C5CF" fill-opacity=".09" stroke="#39C5CF" stroke-opacity=".55"/>
      <g transform="translate(33 179) scale(1.0625)" fill="none" stroke="#39C5CF" stroke-width="1.5" stroke-linecap="round" stroke-linejoin="round"><path d="M10.5 2.2a3.5 3.5 0 0 0-4.2 4.5L2 11l3 3 4.3-4.3a3.5 3.5 0 0 0 4.5-4.2l-2.2 2.2-2.3-.6-.6-2.3 1.8-2.6z"/></g>
      <text x="62" y="197" class="value">139</text>
      <text x="33" y="222" text-anchor="start" class="label"><tspan x="33" dy="0">Custom tool definition signals</tspan></text><rect x="456" y="166" width="424" height="82" rx="10" fill="#A371F7" fill-opacity=".09" stroke="#A371F7" stroke-opacity=".55"/>
      <g transform="translate(469 179) scale(1.0625)" fill="none" stroke="#A371F7" stroke-width="1.5" stroke-linecap="round" stroke-linejoin="round"><path d="M8 1l7 4-7 4-7-4 7-4zM1 8l7 4 7-4M1 11l7 4 7-4"/></g>
      <text x="498" y="197" class="value">7</text>
      <text x="469" y="222" text-anchor="start" class="label"><tspan x="469" dy="0">Generic connected-tool categories</tspan></text><text x="28" y="266" class="title" style="font-size:14px">Detected tool categories</text><g transform="translate(28 275) scale(0.875)" fill="none" stroke="#39C5CF" stroke-width="1.5" stroke-linecap="round" stroke-linejoin="round"><path d="M10.5 2.2a3.5 3.5 0 0 0-4.2 4.5L2 11l3 3 4.3-4.3a3.5 3.5 0 0 0 4.5-4.2l-2.2 2.2-2.3-.6-.6-2.3 1.8-2.6z"/></g>
        <text x="52" y="290" class="small">Cloud &amp; deployment</text>
        <rect x="340" y="280" width="360" height="8" rx="4" fill="#21262D"/>
        <rect x="340" y="280" width="360" height="8" rx="4" fill="#39C5CF"/>
        <text x="860" y="290" text-anchor="end" class="label">10 repos</text><g transform="translate(28 313) scale(0.875)" fill="none" stroke="#39C5CF" stroke-width="1.5" stroke-linecap="round" stroke-linejoin="round"><path d="M10.5 2.2a3.5 3.5 0 0 0-4.2 4.5L2 11l3 3 4.3-4.3a3.5 3.5 0 0 0 4.5-4.2l-2.2 2.2-2.3-.6-.6-2.3 1.8-2.6z"/></g>
        <text x="52" y="328" class="small">Git hosting</text>
        <rect x="340" y="318" width="360" height="8" rx="4" fill="#21262D"/>
        <rect x="340" y="318" width="360" height="8" rx="4" fill="#39C5CF"/>
        <text x="860" y="328" text-anchor="end" class="label">10 repos</text><g transform="translate(28 351) scale(0.875)" fill="none" stroke="#39C5CF" stroke-width="1.5" stroke-linecap="round" stroke-linejoin="round"><path d="M10.5 2.2a3.5 3.5 0 0 0-4.2 4.5L2 11l3 3 4.3-4.3a3.5 3.5 0 0 0 4.5-4.2l-2.2 2.2-2.3-.6-.6-2.3 1.8-2.6z"/></g>
        <text x="52" y="366" class="small">Databases</text>
        <rect x="340" y="356" width="360" height="8" rx="4" fill="#21262D"/>
        <rect x="340" y="356" width="312" height="8" rx="4" fill="#39C5CF"/>
        <text x="860" y="366" text-anchor="end" class="label">6 repos</text><g transform="translate(28 389) scale(0.875)" fill="none" stroke="#39C5CF" stroke-width="1.5" stroke-linecap="round" stroke-linejoin="round"><path d="M10.5 2.2a3.5 3.5 0 0 0-4.2 4.5L2 11l3 3 4.3-4.3a3.5 3.5 0 0 0 4.5-4.2l-2.2 2.2-2.3-.6-.6-2.3 1.8-2.6z"/></g>
        <text x="52" y="404" class="small">Browser &amp; web</text>
        <rect x="340" y="394" width="360" height="8" rx="4" fill="#21262D"/>
        <rect x="340" y="394" width="208" height="8" rx="4" fill="#39C5CF"/>
        <text x="860" y="404" text-anchor="end" class="label">4 repos</text><g transform="translate(28 427) scale(0.875)" fill="none" stroke="#39C5CF" stroke-width="1.5" stroke-linecap="round" stroke-linejoin="round"><path d="M10.5 2.2a3.5 3.5 0 0 0-4.2 4.5L2 11l3 3 4.3-4.3a3.5 3.5 0 0 0 4.5-4.2l-2.2 2.2-2.3-.6-.6-2.3 1.8-2.6z"/></g>
        <text x="52" y="442" class="small">Filesystem</text>
        <rect x="340" y="432" width="360" height="8" rx="4" fill="#21262D"/>
        <rect x="340" y="432" width="208" height="8" rx="4" fill="#39C5CF"/>
        <text x="860" y="442" text-anchor="end" class="label">4 repos</text><g transform="translate(28 465) scale(0.875)" fill="none" stroke="#39C5CF" stroke-width="1.5" stroke-linecap="round" stroke-linejoin="round"><path d="M10.5 2.2a3.5 3.5 0 0 0-4.2 4.5L2 11l3 3 4.3-4.3a3.5 3.5 0 0 0 4.5-4.2l-2.2 2.2-2.3-.6-.6-2.3 1.8-2.6z"/></g>
        <text x="52" y="480" class="small">Productivity</text>
        <rect x="340" y="470" width="360" height="8" rx="4" fill="#21262D"/>
        <rect x="340" y="470" width="156" height="8" rx="4" fill="#39C5CF"/>
        <text x="860" y="480" text-anchor="end" class="label">3 repos</text><g transform="translate(28 503) scale(0.875)" fill="none" stroke="#39C5CF" stroke-width="1.5" stroke-linecap="round" stroke-linejoin="round"><path d="M10.5 2.2a3.5 3.5 0 0 0-4.2 4.5L2 11l3 3 4.3-4.3a3.5 3.5 0 0 0 4.5-4.2l-2.2 2.2-2.3-.6-.6-2.3 1.8-2.6z"/></g>
        <text x="52" y="518" class="small">Custom APIs</text>
        <rect x="340" y="508" width="360" height="8" rx="4" fill="#21262D"/>
        <rect x="340" y="508" width="104" height="8" rx="4" fill="#39C5CF"/>
        <text x="860" y="518" text-anchor="end" class="label">2 repos</text>
</svg>