<svg xmlns="http://www.w3.org/2000/svg" width="480" height="252" viewBox="0 0 480 252" role="img" aria-label="Memory Engineering">
  <style>
    .title{fill:#58A6FF;font:600 19px -apple-system,BlinkMacSystemFont,"Segoe UI",sans-serif}
    .subtitle{fill:#8B949E;font:600 11.7px -apple-system,BlinkMacSystemFont,"Segoe UI",sans-serif}
    .label{fill:#8B949E;font:600 12.7px -apple-system,BlinkMacSystemFont,"Segoe UI",sans-serif}
    .value{fill:#F0F6FC;font:600 19px -apple-system,BlinkMacSystemFont,"Segoe UI",sans-serif}
    .small{fill:#F0F6FC;font:600 12.6px -apple-system,BlinkMacSystemFont,"Segoe UI",sans-serif}
    .tiny{fill:#8B949E;font:600 10.6px -apple-system,BlinkMacSystemFont,"Segoe UI",sans-serif}
    .compactLabel{fill:#F0F6FC;font:600 11.2px -apple-system,BlinkMacSystemFont,"Segoe UI",sans-serif}
    .empty{fill:#8B949E;font:600 13.7px -apple-system,BlinkMacSystemFont,"Segoe UI",sans-serif}
  </style>
  <rect x=".5" y=".5" width="479" height="251" rx="12" fill="#0D1117" stroke="#30363D"/>
  <g transform="translate(20 17) scale(1.125)" fill="none" stroke="#D29922" stroke-width="1.5" stroke-linecap="round" stroke-linejoin="round"><path d="M4 3h8v10H4zM2 5h2M2 8h2M2 11h2M12 5h2M12 8h2M12 11h2M6 1v2M10 1v2M6 13v2M10 13v2"/></g>
  <text x="48" y="31" class="title">Memory Engineering</text>
  <text x="48" y="49" class="subtitle">Persistent state, checkpoints, sessions and semantic memory</text>
  <text x="22" y="88" class="value">4</text>
      <text x="22" y="106" class="label">repositories</text>
      <text x="164" y="88" class="value">71</text>
      <text x="164" y="106" class="label">evidence signals</text>
      <rect x="304" y="75" width="150" height="10" rx="5" fill="#21262D"/>
      <rect x="304" y="75" width="150.0" height="10" rx="5" fill="#3FB950"/>
      <text x="454" y="103" text-anchor="end" style="fill:#3FB950;font:600 11px -apple-system,BlinkMacSystemFont,'Segoe UI',sans-serif">Deep depth</text>
      <rect x="20" y="132" width="212" height="46" rx="8" fill="#D29922" fill-opacity=".075" stroke="#D29922" stroke-opacity=".42"/>
      <g transform="translate(30 142) scale(0.875)" fill="none" stroke="#D29922" stroke-width="1.5" stroke-linecap="round" stroke-linejoin="round"><path d="M4 3h8v10H4zM2 5h2M2 8h2M2 11h2M12 5h2M12 8h2M12 11h2M6 1v2M10 1v2M6 13v2M10 13v2"/></g>
      <text x="52" y="153" class="small">2</text>
      <text x="30" y="170" class="compactLabel">Memory implementation files</text><rect x="244" y="132" width="212" height="46" rx="8" fill="#D29922" fill-opacity=".075" stroke="#D29922" stroke-opacity=".42"/>
      <g transform="translate(254 142) scale(0.875)" fill="none" stroke="#D29922" stroke-width="1.5" stroke-linecap="round" stroke-linejoin="round"><path d="M1 8h3l2-5 4 10 2-5h3"/></g>
      <text x="276" y="153" class="small">21</text>
      <text x="254" y="170" class="compactLabel">Checkpoints &amp; frameworks</text><rect x="20" y="188" width="212" height="46" rx="8" fill="#D29922" fill-opacity=".075" stroke="#D29922" stroke-opacity=".42"/>
      <g transform="translate(30 198) scale(0.875)" fill="none" stroke="#D29922" stroke-width="1.5" stroke-linecap="round" stroke-linejoin="round"><path d="M8 1l7 4-7 4-7-4 7-4zM1 8l7 4 7-4M1 11l7 4 7-4"/></g>
      <text x="52" y="209" class="small">45</text>
      <text x="30" y="226" class="compactLabel">State stores &amp; sessions</text><rect x="244" y="188" width="212" height="46" rx="8" fill="#D29922" fill-opacity=".075" stroke="#D29922" stroke-opacity=".42"/>
      <g transform="translate(254 198) scale(0.875)" fill="none" stroke="#D29922" stroke-width="1.5" stroke-linecap="round" stroke-linejoin="round"><path d="M6 2.2A2.8 2.8 0 0 0 3.4 5a2.8 2.8 0 0 0 .7 5.4A2.7 2.7 0 0 0 8 13V3.5A2 2 0 0 0 6 1.5M10 2.2A2.8 2.8 0 0 1 12.6 5a2.8 2.8 0 0 1-.7 5.4A2.7 2.7 0 0 1 8 13V3.5a2 2 0 0 1 2-2M4.2 6.2h2M9.8 6.2h2M5 9h1.5M9.5 9H11"/></g>
      <text x="276" y="209" class="small">3</text>
      <text x="254" y="226" class="compactLabel">Persistent &amp; semantic</text>
</svg>