<svg xmlns="http://www.w3.org/2000/svg" width="900" height="446" viewBox="0 0 900 446" role="img" aria-label="Memory Engineering">
  <style>
    .title{fill:#58A6FF;font:600 18px -apple-system,BlinkMacSystemFont,"Segoe UI",sans-serif}
    .subtitle{fill:#8B949E;font:400 11px -apple-system,BlinkMacSystemFont,"Segoe UI",sans-serif}
    .label{fill:#8B949E;font:500 11px -apple-system,BlinkMacSystemFont,"Segoe UI",sans-serif}
    .value{fill:#F0F6FC;font:700 20px -apple-system,BlinkMacSystemFont,"Segoe UI",sans-serif}
    .small{fill:#F0F6FC;font:600 12px -apple-system,BlinkMacSystemFont,"Segoe UI",sans-serif}
    .tiny{fill:#8B949E;font:400 10px -apple-system,BlinkMacSystemFont,"Segoe UI",sans-serif}
    .empty{fill:#8B949E;font:400 13px -apple-system,BlinkMacSystemFont,"Segoe UI",sans-serif}
  </style>
  <rect x=".5" y=".5" width="899" height="445" rx="12" fill="#0D1117" stroke="#30363D"/>
  <g transform="translate(20 17) scale(1.125)" fill="none" stroke="#D29922" stroke-width="1.5" stroke-linecap="round" stroke-linejoin="round"><path d="M4 3h8v10H4zM2 5h2M2 8h2M2 11h2M12 5h2M12 8h2M12 11h2M6 1v2M10 1v2M6 13v2M10 13v2"/></g>
  <text x="48" y="31" class="title">Memory Engineering</text>
  <text x="48" y="49" class="subtitle">Short- and long-term memory, checkpoints, durable state, conversation sessions and semantic memory</text>
  <rect x="20" y="72" width="424" height="82" rx="10" fill="#D29922" fill-opacity=".09" stroke="#D29922" stroke-opacity=".55"/>
      <g transform="translate(33 85) scale(1.0625)" fill="none" stroke="#D29922" stroke-width="1.5" stroke-linecap="round" stroke-linejoin="round"><path d="M4 3h8v10H4zM2 5h2M2 8h2M2 11h2M12 5h2M12 8h2M12 11h2M6 1v2M10 1v2M6 13v2M10 13v2"/></g>
      <text x="62" y="103" class="value">3</text>
      <text x="33" y="128" text-anchor="start" class="label"><tspan x="33" dy="0">Repositories with memory engineering</tspan></text>
      <rect x="456" y="72" width="424" height="82" rx="10" fill="#D29922" fill-opacity=".09" stroke="#D29922" stroke-opacity=".55"/>
      <g transform="translate(469 85) scale(1.0625)" fill="none" stroke="#D29922" stroke-width="1.5" stroke-linecap="round" stroke-linejoin="round"><path d="M4 3h8v10H4zM2 5h2M2 8h2M2 11h2M12 5h2M12 8h2M12 11h2M6 1v2M10 1v2M6 13v2M10 13v2"/></g>
      <text x="498" y="103" class="value">1</text>
      <text x="469" y="128" text-anchor="start" class="label"><tspan x="469" dy="0">Memory implementation and configuration</tspan><tspan x="469" dy="14">files</tspan></text>
      <rect x="20" y="166" width="424" height="82" rx="10" fill="#D29922" fill-opacity=".09" stroke="#D29922" stroke-opacity=".55"/>
      <g transform="translate(33 179) scale(1.0625)" fill="none" stroke="#D29922" stroke-width="1.5" stroke-linecap="round" stroke-linejoin="round"><rect x="2" y="3" width="12" height="11" rx="2"/><path d="M5 1v4M11 1v4M2 7h12"/></g>
      <text x="62" y="197" class="value">21</text>
      <text x="33" y="222" text-anchor="start" class="label"><tspan x="33" dy="0">Checkpoint and saver signals</tspan></text>
      <rect x="456" y="166" width="424" height="82" rx="10" fill="#D29922" fill-opacity=".09" stroke="#D29922" stroke-opacity=".55"/>
      <g transform="translate(469 179) scale(1.0625)" fill="none" stroke="#D29922" stroke-width="1.5" stroke-linecap="round" stroke-linejoin="round"><ellipse cx="8" cy="3" rx="5" ry="2"/><path d="M3 3v8c0 1.1 2.2 2 5 2s5-.9 5-2V3M3 7c0 1.1 2.2 2 5 2s5-.9 5-2"/></g>
      <text x="498" y="197" class="value">1</text>
      <text x="469" y="222" text-anchor="start" class="label"><tspan x="469" dy="0">Persistent state-store signals</tspan></text>
      <rect x="20" y="260" width="424" height="82" rx="10" fill="#D29922" fill-opacity=".09" stroke="#D29922" stroke-opacity=".55"/>
      <g transform="translate(33 273) scale(1.0625)" fill="none" stroke="#D29922" stroke-width="1.5" stroke-linecap="round" stroke-linejoin="round"><path d="M8 1l7 4-7 4-7-4 7-4zM1 8l7 4 7-4M1 11l7 4 7-4"/></g>
      <text x="62" y="291" class="value">44</text>
      <text x="33" y="316" text-anchor="start" class="label"><tspan x="33" dy="0">Session, thread and conversation memory</tspan></text>
      <rect x="456" y="260" width="424" height="82" rx="10" fill="#D29922" fill-opacity=".09" stroke="#D29922" stroke-opacity=".55"/>
      <g transform="translate(469 273) scale(1.0625)" fill="none" stroke="#D29922" stroke-width="1.5" stroke-linecap="round" stroke-linejoin="round"><rect x="3" y="7" width="10" height="8" rx="2"/><path d="M5 7V5a3 3 0 0 1 6 0v2"/></g>
      <text x="498" y="291" class="value">1</text>
      <text x="469" y="316" text-anchor="start" class="label"><tspan x="469" dy="0">Long-term and durable memory signals</tspan></text>
      <rect x="20" y="354" width="424" height="82" rx="10" fill="#D29922" fill-opacity=".09" stroke="#D29922" stroke-opacity=".55"/>
      <g transform="translate(33 367) scale(1.0625)" fill="none" stroke="#D29922" stroke-width="1.5" stroke-linecap="round" stroke-linejoin="round"><path d="M6 2.2A2.8 2.8 0 0 0 3.4 5a2.8 2.8 0 0 0 .7 5.4A2.7 2.7 0 0 0 8 13V3.5A2 2 0 0 0 6 1.5M10 2.2A2.8 2.8 0 0 1 12.6 5a2.8 2.8 0 0 1-.7 5.4A2.7 2.7 0 0 1 8 13V3.5a2 2 0 0 1 2-2M4.2 6.2h2M9.8 6.2h2M5 9h1.5M9.5 9H11"/></g>
      <text x="62" y="385" class="value">2</text>
      <text x="33" y="410" text-anchor="start" class="label"><tspan x="33" dy="0">Semantic and episodic memory signals</tspan></text>
      <rect x="456" y="354" width="424" height="82" rx="10" fill="#D29922" fill-opacity=".09" stroke="#D29922" stroke-opacity=".55"/>
      <g transform="translate(469 367) scale(1.0625)" fill="none" stroke="#D29922" stroke-width="1.5" stroke-linecap="round" stroke-linejoin="round"><path d="M10.5 2.2a3.5 3.5 0 0 0-4.2 4.5L2 11l3 3 4.3-4.3a3.5 3.5 0 0 0 4.5-4.2l-2.2 2.2-2.3-.6-.6-2.3 1.8-2.6z"/></g>
      <text x="498" y="385" class="value">0</text>
      <text x="469" y="410" text-anchor="start" class="label"><tspan x="469" dy="0">Memory framework and backend signals</tspan></text>
      
</svg>