<svg xmlns="http://www.w3.org/2000/svg" width="1000" height="710" viewBox="0 0 1000 710" role="img" aria-label="Open-Source Project Analytics">
  <style>
    .title{fill:#58A6FF;font:600 19px -apple-system,BlinkMacSystemFont,"Segoe UI",sans-serif}
    .subtitle{fill:#8B949E;font:600 11.7px -apple-system,BlinkMacSystemFont,"Segoe UI",sans-serif}
    .label{fill:#8B949E;font:600 12.7px -apple-system,BlinkMacSystemFont,"Segoe UI",sans-serif}
    .value{fill:#F0F6FC;font:600 19px -apple-system,BlinkMacSystemFont,"Segoe UI",sans-serif}
    .small{fill:#F0F6FC;font:600 12.6px -apple-system,BlinkMacSystemFont,"Segoe UI",sans-serif}
    .tiny{fill:#8B949E;font:600 10.6px -apple-system,BlinkMacSystemFont,"Segoe UI",sans-serif}
    .metricValue{fill:#58A6FF;font:700 19px -apple-system,BlinkMacSystemFont,"Segoe UI",sans-serif}
    .metricLabel{fill:#F0F6FC;font:600 11.6px -apple-system,BlinkMacSystemFont,"Segoe UI",sans-serif}
    .metricNote{fill:#8B949E;font:600 9.6px -apple-system,BlinkMacSystemFont,"Segoe UI",sans-serif}
    .sectionLabel{fill:#3FB950;font:700 11px -apple-system,BlinkMacSystemFont,"Segoe UI",sans-serif;letter-spacing:.5px}
    .empty{fill:#8B949E;font:600 13.7px -apple-system,BlinkMacSystemFont,"Segoe UI",sans-serif}
  </style>
  <rect x=".5" y=".5" width="999" height="709" rx="12" fill="#0D1117" stroke="#30363D"/>
  <g transform="translate(20 17) scale(1.125)" fill="none" stroke="#3FB950" stroke-width="1.5" stroke-linecap="round" stroke-linejoin="round"><circle cx="4" cy="3" r="2"/><circle cx="4" cy="13" r="2"/><circle cx="12" cy="8" r="2"/><path d="M4 5v6M6 4c4 0 4 4 4 4"/></g>
  <text x="48" y="31" class="title">Open-Source Project Analytics</text>
  <text x="48" y="49" class="subtitle">GitHub-verified personal contribution to a public project</text>
  <g data-project-index="1">
      <rect x="23" y="81" width="962" height="620" rx="16" fill="#000000" fill-opacity=".22"/>
      <rect data-project-card="1" x="18" y="74" width="964" height="620" rx="16" fill="#21262D" stroke="#3FB950" stroke-opacity=".86" stroke-width="1.7"/>
      <rect x="18" y="74" width="964" height="6" rx="3" fill="#3FB950"/>
      <rect x="19" y="81" width="962" height="96" rx="14" fill="#3FB950" fill-opacity=".065"/>
      <g transform="translate(42 93) scale(1.25)" fill="none" stroke="#3FB950" stroke-width="1.5" stroke-linecap="round" stroke-linejoin="round"><path d="M2 2.5A1.5 1.5 0 0 1 3.5 1H14v12H4a2 2 0 0 0-2 2V2.5z"/><path d="M4 13h10M5 4h6"/></g>
      <text x="72" y="112" class="value"><tspan x="72" dy="0">abkumar/Implementation-of-Basic-Data-Structures-in-JAVA</tspan></text>
      <rect x="770" y="92" width="188" height="25" rx="12.5" fill="#3FB950" fill-opacity=".16" stroke="#3FB950" stroke-opacity=".72"/>
      <text x="864" y="109" text-anchor="middle" class="metricLabel">VERIFIED CONTRIBUTION</text>
      <text x="42" y="136" class="label"><tspan x="42" dy="0">Attributed identities: abkumar</tspan></text>
      <text x="42" y="158" class="tiny"><tspan x="42" dy="0">Verified by: commit</tspan></text>

      <rect x="32" y="171" width="936" height="22" rx="7" fill="#3FB950" fill-opacity=".1"/>
      <text x="42" y="188" class="sectionLabel">FULL PROJECT COMPOSITION</text>
      <rect x="42" y="205" width="298.6666666666667" height="42" rx="9" fill="#0D1117" stroke="#3FB950" stroke-opacity=".34"/>
      <text x="55" y="224" class="small">3</text>
      <text x="55" y="239" class="tiny">Project commits</text><rect x="350.6666666666667" y="205" width="298.6666666666667" height="42" rx="9" fill="#0D1117" stroke="#3FB950" stroke-opacity=".34"/>
      <text x="363.6666666666667" y="224" class="small">0</text>
      <text x="363.6666666666667" y="239" class="tiny">Releases</text><rect x="659.3333333333334" y="205" width="298.6666666666667" height="42" rx="9" fill="#0D1117" stroke="#3FB950" stroke-opacity=".34"/>
      <text x="672.3333333333334" y="224" class="small">1</text>
      <text x="672.3333333333334" y="239" class="tiny">Languages</text><rect x="42" y="257" width="298.6666666666667" height="42" rx="9" fill="#0D1117" stroke="#3FB950" stroke-opacity=".34"/>
      <text x="55" y="276" class="small">202</text>
      <text x="55" y="291" class="tiny">Source files</text><rect x="350.6666666666667" y="257" width="298.6666666666667" height="42" rx="9" fill="#0D1117" stroke="#3FB950" stroke-opacity=".34"/>
      <text x="363.6666666666667" y="276" class="small">0</text>
      <text x="363.6666666666667" y="291" class="tiny">Stars</text><rect x="659.3333333333334" y="257" width="298.6666666666667" height="42" rx="9" fill="#0D1117" stroke="#3FB950" stroke-opacity=".34"/>
      <text x="672.3333333333334" y="276" class="small">0</text>
      <text x="672.3333333333334" y="291" class="tiny">Forks</text>

      <rect x="32" y="311" width="936" height="183" rx="12" fill="#0D1117" stroke="#3FB950" stroke-opacity=".34"/>
      <text x="42" y="328" class="sectionLabel">VERIFIED PERSONAL CONTRIBUTION</text>
      <rect x="42" y="345" width="221.5" height="64" rx="10" fill="#58A6FF" fill-opacity=".15" stroke="#58A6FF" stroke-opacity=".9" stroke-width="1.5"/>
      <g transform="translate(54 357) scale(1.0625)" fill="none" stroke="#58A6FF" stroke-width="1.5" stroke-linecap="round" stroke-linejoin="round"><circle cx="8" cy="8" r="2.5"/><path d="M0 8h5.5M10.5 8H16"/></g>
      <text x="84" y="373" class="metricValue">1</text>
      <text x="54" y="397" class="metricLabel">Attributed commits</text>
      <rect x="273.5" y="345" width="221.5" height="64" rx="10" fill="#A371F7" fill-opacity=".15" stroke="#A371F7" stroke-opacity=".9" stroke-width="1.5"/>
      <g transform="translate(285.5 357) scale(1.0625)" fill="none" stroke="#A371F7" stroke-width="1.5" stroke-linecap="round" stroke-linejoin="round"><circle cx="4" cy="3" r="2"/><circle cx="12" cy="13" r="2"/><path d="M4 5v6a2 2 0 0 0 2 2h4M10 3h2a2 2 0 0 1 2 2v4M12 7l2 2 2-2"/></g>
      <text x="315.5" y="373" class="metricValue">0</text>
      <text x="285.5" y="397" class="metricLabel">Authored PRs</text>
      <rect x="505" y="345" width="221.5" height="64" rx="10" fill="#39C5CF" fill-opacity=".15" stroke="#39C5CF" stroke-opacity=".9" stroke-width="1.5"/>
      <g transform="translate(517 357) scale(1.0625)" fill="none" stroke="#39C5CF" stroke-width="1.5" stroke-linecap="round" stroke-linejoin="round"><circle cx="6" cy="5" r="2.5"/><circle cx="12" cy="6" r="2"/><path d="M1.5 14c.3-3 2-4.5 4.5-4.5S10.2 11 10.5 14M10 10c2.6 0 4 1.2 4.5 4"/></g>
      <text x="547" y="373" class="metricValue">0</text>
      <text x="517" y="397" class="metricLabel">PRs reviewed</text>
      <rect x="736.5" y="345" width="221.5" height="64" rx="10" fill="#3FB950" fill-opacity=".15" stroke="#3FB950" stroke-opacity=".9" stroke-width="1.5"/>
      <g transform="translate(748.5 357) scale(1.0625)" fill="none" stroke="#3FB950" stroke-width="1.5" stroke-linecap="round" stroke-linejoin="round"><path d="M5 1h6M6 1v4l-4 7a2 2 0 0 0 1.7 3h8.6A2 2 0 0 0 14 12l-4-7V1M4.5 10h7"/></g>
      <text x="778.5" y="373" class="metricValue">0</text>
      <text x="748.5" y="397" class="metricLabel">PRs approved</text>
      <rect x="42" y="419" width="221.5" height="64" rx="10" fill="#F0883E" fill-opacity=".15" stroke="#F0883E" stroke-opacity=".9" stroke-width="1.5"/>
      <g transform="translate(54 431) scale(1.0625)" fill="none" stroke="#F0883E" stroke-width="1.5" stroke-linecap="round" stroke-linejoin="round"><path d="M1 8h3l2-5 4 10 2-5h3"/></g>
      <text x="84" y="447" class="metricValue">0</text>
      <text x="54" y="471" class="metricLabel">Review submissions</text>
      <rect x="273.5" y="419" width="221.5" height="64" rx="10" fill="#D29922" fill-opacity=".15" stroke="#D29922" stroke-opacity=".9" stroke-width="1.5"/>
      <g transform="translate(285.5 431) scale(1.0625)" fill="none" stroke="#D29922" stroke-width="1.5" stroke-linecap="round" stroke-linejoin="round"><path d="M6 3L1 8l5 5M10 3l5 5-5 5"/></g>
      <text x="315.5" y="447" class="metricValue">0</text>
      <text x="285.5" y="471" class="metricLabel">Analyzed changed lines</text>
      <rect x="505" y="419" width="221.5" height="64" rx="10" fill="#DB61A2" fill-opacity=".15" stroke="#DB61A2" stroke-opacity=".9" stroke-width="1.5"/>
      <g transform="translate(517 431) scale(1.0625)" fill="none" stroke="#DB61A2" stroke-width="1.5" stroke-linecap="round" stroke-linejoin="round"><path d="M2 2.5A1.5 1.5 0 0 1 3.5 1H14v12H4a2 2 0 0 0-2 2V2.5z"/><path d="M4 13h10M5 4h6"/></g>
      <text x="547" y="447" class="metricValue">0</text>
      <text x="517" y="471" class="metricLabel">Files touched</text>
      

      <rect x="32" y="495" width="936" height="107" rx="12" fill="#0D1117" stroke="#30363D"/>
      <text x="42" y="512" class="sectionLabel">LANGUAGE COMPOSITION</text>
      <defs>
        <clipPath id="public-project-0-abkumar-Implementation-of-Basic-Data-Structures-in-JAVA">
          <rect x="42" y="530" width="916" height="12" rx="6"/>
        </clipPath>
      </defs>
      <rect x="42" y="530" width="916" height="12" rx="6" fill="#21262D"/>
      <g clip-path="url(#public-project-0-abkumar-Implementation-of-Basic-Data-Structures-in-JAVA)"><rect x="42.00" y="530" width="916.00" height="12" fill="#B07219"/></g>
      <circle cx="47" cy="562" r="5" fill="#B07219"/>
      <text x="60" y="566" class="small">Java</text>
      <text x="192" y="566" class="label">100.0%</text>
      <text x="252" y="566" class="tiny">201 files</text>
      

      <rect x="32" y="603" width="936" height="67" rx="12" fill="#0D1117" stroke="#30363D"/>
      <text x="42" y="620" class="sectionLabel">FRAMEWORKS &amp; PLATFORMS</text>
      <text x="42" y="661" class="tiny">No supported framework or platform signature was detected.</text>
      
    </g>
</svg>