<svg xmlns="http://www.w3.org/2000/svg" width="600" height="360" viewBox="0 0 600 360" role="img" aria-label="Repository Portfolio">
  <style>
    .title{fill:#58A6FF;font:600 19px -apple-system,BlinkMacSystemFont,"Segoe UI",sans-serif}
    .subtitle{fill:#8B949E;font:600 11.7px -apple-system,BlinkMacSystemFont,"Segoe UI",sans-serif}
    .label{fill:#8B949E;font:600 12.7px -apple-system,BlinkMacSystemFont,"Segoe UI",sans-serif}
    .value{fill:#F0F6FC;font:600 19px -apple-system,BlinkMacSystemFont,"Segoe UI",sans-serif}
    .small{fill:#F0F6FC;font:600 12.6px -apple-system,BlinkMacSystemFont,"Segoe UI",sans-serif}
    .tiny{fill:#8B949E;font:600 10.6px -apple-system,BlinkMacSystemFont,"Segoe UI",sans-serif}
    .metricValue{fill:#58A6FF;font:700 19px -apple-system,BlinkMacSystemFont,"Segoe UI",sans-serif}
    .metricLabel{fill:#F0F6FC;font:600 11.6px -apple-system,BlinkMacSystemFont,"Segoe UI",sans-serif}
    .metricNote{fill:#8B949E;font:600 9.6px -apple-system,BlinkMacSystemFont,"Segoe UI",sans-serif}
    .pairedValue{fill:#F0F6FC;font:700 22px -apple-system,BlinkMacSystemFont,"Segoe UI",sans-serif}
    .pairedLabel{fill:#8B949E;font:600 14px -apple-system,BlinkMacSystemFont,"Segoe UI",sans-serif}
    .compositionValue{fill:#F0F6FC;font:700 14.4px -apple-system,BlinkMacSystemFont,"Segoe UI",sans-serif}
    .compositionLabel{fill:#8B949E;font:600 11.8px -apple-system,BlinkMacSystemFont,"Segoe UI",sans-serif}
    .sectionLabel{fill:#3FB950;font:700 11px -apple-system,BlinkMacSystemFont,"Segoe UI",sans-serif;letter-spacing:.5px}
    .empty{fill:#8B949E;font:600 13.7px -apple-system,BlinkMacSystemFont,"Segoe UI",sans-serif}
  </style>
  <rect x=".5" y=".5" width="599" height="359" rx="12" fill="#0D1117" stroke="#30363D"/>
  <g transform="translate(20 17) scale(1.125)" fill="none" stroke="#58A6FF" stroke-width="1.5" stroke-linecap="round" stroke-linejoin="round"><path d="M2 2.5A1.5 1.5 0 0 1 3.5 1H14v12H4a2 2 0 0 0-2 2V2.5z"/><path d="M4 13h10M5 4h6"/></g>
  <text x="48" y="31" class="title">Repository Portfolio</text>
  <text x="48" y="49" class="subtitle">28 repositories scanned successfully · aggregate-only private data</text>
  <g transform="translate(20 69) scale(1)" fill="none" stroke="#58A6FF" stroke-width="1.5" stroke-linecap="round" stroke-linejoin="round"><path d="M2 2.5A1.5 1.5 0 0 1 3.5 1H14v12H4a2 2 0 0 0-2 2V2.5z"/><path d="M4 13h10M5 4h6"/></g>
      <text x="46" y="82" class="pairedValue">28</text>
      <text x="46" y="103" class="pairedLabel">Token-accessible repositories</text><g transform="translate(300 69) scale(1)" fill="none" stroke="#3FB950" stroke-width="1.5" stroke-linecap="round" stroke-linejoin="round"><rect x="3" y="7" width="10" height="8" rx="2"/><path d="M11 7V5a3 3 0 0 0-5.8-1"/></g>
      <text x="326" y="82" class="pairedValue">18</text>
      <text x="326" y="103" class="pairedLabel">Public repositories</text><g transform="translate(20 143) scale(1)" fill="none" stroke="#A371F7" stroke-width="1.5" stroke-linecap="round" stroke-linejoin="round"><rect x="3" y="7" width="10" height="8" rx="2"/><path d="M5 7V5a3 3 0 0 1 6 0v2"/></g>
      <text x="46" y="156" class="pairedValue">10</text>
      <text x="46" y="177" class="pairedLabel">Private repositories</text><g transform="translate(300 143) scale(1)" fill="none" stroke="#F0883E" stroke-width="1.5" stroke-linecap="round" stroke-linejoin="round"><path d="M1 8h3l2-5 4 10 2-5h3"/></g>
      <text x="326" y="156" class="pairedValue">13</text>
      <text x="326" y="177" class="pairedLabel">Updated in the last 90 days</text><g transform="translate(20 217) scale(1)" fill="none" stroke="#39C5CF" stroke-width="1.5" stroke-linecap="round" stroke-linejoin="round"><path d="M3 1h7l3 3v11H3zM10 1v4h3M5 8h6M5 11h6"/></g>
      <text x="46" y="230" class="pairedValue">28</text>
      <text x="46" y="251" class="pairedLabel">Scanned repositories with README</text><g transform="translate(300 217) scale(1)" fill="none" stroke="#3FB950" stroke-width="1.5" stroke-linecap="round" stroke-linejoin="round"><path d="M5 1h6M6 1v4l-4 7a2 2 0 0 0 1.7 3h8.6A2 2 0 0 0 14 12l-4-7V1M4.5 10h7"/></g>
      <text x="326" y="230" class="pairedValue">19</text>
      <text x="326" y="251" class="pairedLabel">Scanned repositories with tests</text><g transform="translate(20 291) scale(1)" fill="none" stroke="#58A6FF" stroke-width="1.5" stroke-linecap="round" stroke-linejoin="round"><circle cx="3" cy="3" r="2"/><circle cx="13" cy="3" r="2"/><circle cx="8" cy="13" r="2"/><path d="M5 3h6M4 5l3 6M12 5l-3 6"/></g>
      <text x="46" y="304" class="pairedValue">6</text>
      <text x="46" y="325" class="pairedLabel">Scanned repositories with CI/CD</text><g transform="translate(300 291) scale(1)" fill="none" stroke="#8B949E" stroke-width="1.5" stroke-linecap="round" stroke-linejoin="round"><path d="M2 2.5A1.5 1.5 0 0 1 3.5 1H14v12H4a2 2 0 0 0-2 2V2.5z"/><path d="M4 13h10M5 4h6"/></g>
      <text x="326" y="304" class="pairedValue">0</text>
      <text x="326" y="325" class="pairedLabel">Archived repositories</text>
</svg>